<?xml version="1.0" encoding="utf-8" standalone="no"?>
<!DOCTYPE svg PUBLIC "-//W3C//DTD SVG 1.1//EN"
  "http://www.w3.org/Graphics/SVG/1.1/DTD/svg11.dtd">
<!-- Created with matplotlib (https://matplotlib.org/) -->
<svg height="260.380625pt" version="1.1" viewBox="0 0 376.767188 260.380625" width="376.767188pt" xmlns="http://www.w3.org/2000/svg" xmlns:xlink="http://www.w3.org/1999/xlink">
 <defs>
  <style type="text/css">
*{stroke-linecap:butt;stroke-linejoin:round;}
  </style>
 </defs>
 <g id="figure_1">
  <g id="patch_1">
   <path d="M 0 260.380625 
L 376.767188 260.380625 
L 376.767188 0 
L 0 0 
z
" style="fill:none;"/>
  </g>
  <g id="axes_1">
   <g id="patch_2">
    <path d="M 34.767188 224.64 
L 369.567187 224.64 
L 369.567187 7.2 
L 34.767188 7.2 
z
" style="fill:#ffffff;"/>
   </g>
   <g id="matplotlib.axis_1">
    <g id="xtick_1">
     <g id="line2d_1">
      <defs>
       <path d="M 0 0 
L 0 3.5 
" id="m03cf50532b" style="stroke:#000000;stroke-width:0.8;"/>
      </defs>
      <g>
       <use style="stroke:#000000;stroke-width:0.8;" x="49.985369" xlink:href="#m03cf50532b" y="224.64"/>
      </g>
     </g>
     <g id="text_1">
      <!-- 2008 -->
      <defs>
       <path d="M 28.90625 73.4375 
Q 18.953125 73.4375 13.09375 67.28125 
Q 7.90625 61.8125 7.90625 53.8125 
L 7.90625 51.265625 
Q 7.90625 49.609375 8.796875 48.640625 
Q 9.671875 47.75 10.9375 47.75 
Q 12.203125 47.75 13.09375 48.640625 
Q 14.0625 49.515625 14.0625 50.984375 
L 14.0625 53.8125 
Q 14.0625 59.671875 17.78125 63.578125 
Q 21.875 67.96875 28.90625 67.96875 
Q 35.9375 67.96875 40.140625 63.578125 
Q 43.84375 59.671875 43.84375 53.8125 
Q 43.84375 46.6875 39.453125 41.703125 
Q 36.03125 37.984375 26.265625 31.9375 
Q 16.015625 25.78125 11.234375 18.5625 
Q 5.953125 10.640625 6.0625 -0.09375 
L 48.734375 -0.09375 
Q 50 -0.09375 50.78125 0.78125 
Q 51.5625 1.5625 51.5625 2.640625 
Q 51.5625 3.8125 50.78125 4.59375 
Q 50 5.375 48.734375 5.375 
L 12.5 5.375 
Q 13.1875 12.40625 16.5 16.890625 
Q 20.3125 22.171875 30.671875 28.609375 
L 32.625 29.984375 
Q 42.1875 36.03125 45.21875 39.546875 
Q 50 45.015625 50 53.8125 
Q 50 61.8125 44.734375 67.28125 
Q 38.765625 73.4375 28.90625 73.4375 
z
" id="UNAVAILABLE-50"/>
       <path d="M 28.71875 73.4375 
Q 17.96875 73.4375 11.71875 61.8125 
Q 6.15625 51.265625 6.15625 35.84375 
Q 6.15625 20.515625 11.71875 9.96875 
Q 17.96875 -1.765625 28.71875 -1.765625 
Q 39.359375 -1.765625 45.609375 9.96875 
Q 51.265625 20.515625 51.265625 35.84375 
Q 51.265625 51.265625 45.609375 61.8125 
Q 39.359375 73.4375 28.71875 73.4375 
z
M 28.71875 67.96875 
Q 36.421875 67.96875 41.015625 58.015625 
Q 45.125 49.03125 45.125 35.75 
Q 45.125 22.65625 41.015625 13.671875 
Q 36.421875 3.71875 28.71875 3.71875 
Q 20.796875 3.71875 16.3125 13.671875 
Q 12.3125 22.65625 12.3125 35.75 
Q 12.3125 49.03125 16.3125 58.015625 
Q 20.796875 67.96875 28.71875 67.96875 
z
" id="UNAVAILABLE-48"/>
       <path d="M 50.296875 54.890625 
Q 50.296875 62.40625 44.828125 67.671875 
Q 38.765625 73.4375 28.8125 73.4375 
Q 18.84375 73.4375 12.796875 67.671875 
Q 7.421875 62.40625 7.421875 54.890625 
Q 7.421875 48.640625 10.75 44.234375 
Q 13.28125 40.828125 16.796875 39.359375 
Q 11.328125 36.421875 8.296875 31.640625 
Q 5.171875 26.5625 5.171875 20.125 
Q 5.171875 11.328125 11.140625 5.078125 
Q 17.78125 -1.765625 28.71875 -1.765625 
Q 39.75 -1.765625 46.390625 5.078125 
Q 52.4375 11.328125 52.4375 20.125 
Q 52.4375 26.5625 49.03125 31.84375 
Q 45.796875 36.8125 40.625 39.265625 
Q 44.234375 40.71875 46.875 44.140625 
Q 50.296875 48.640625 50.296875 54.890625 
z
M 28.8125 36.421875 
Q 37.015625 36.421875 42 31.34375 
Q 46.578125 26.765625 46.578125 20.015625 
Q 46.578125 13.375 42 8.796875 
Q 37.015625 3.71875 28.8125 3.71875 
Q 20.515625 3.71875 15.625 8.796875 
Q 11.140625 13.375 11.140625 20.015625 
Q 11.140625 26.765625 15.625 31.34375 
Q 20.515625 36.421875 28.8125 36.421875 
z
M 28.8125 67.96875 
Q 36.03125 67.96875 40.4375 63.96875 
Q 44.4375 60.25 44.4375 54.890625 
Q 44.4375 49.515625 40.4375 45.90625 
Q 36.03125 41.796875 28.8125 41.796875 
Q 21.578125 41.796875 17.28125 45.90625 
Q 13.375 49.515625 13.375 54.890625 
Q 13.375 60.25 17.28125 63.96875 
Q 21.578125 67.96875 28.8125 67.96875 
z
" id="UNAVAILABLE-56"/>
      </defs>
      <g transform="translate(38.500994 238.98375)scale(0.1 -0.1)">
       <use xlink:href="#UNAVAILABLE-50"/>
       <use x="57.421875" xlink:href="#UNAVAILABLE-48"/>
       <use x="114.84375" xlink:href="#UNAVAILABLE-48"/>
       <use x="172.265625" xlink:href="#UNAVAILABLE-56"/>
      </g>
     </g>
    </g>
    <g id="xtick_2">
     <g id="line2d_2">
      <g>
       <use style="stroke:#000000;stroke-width:0.8;" x="100.712642" xlink:href="#m03cf50532b" y="224.64"/>
      </g>
     </g>
     <g id="text_2">
      <!-- 2010 -->
      <defs>
       <path d="M 16.5 56.0625 
L 27.25 56.0625 
L 27.25 1.859375 
Q 27.25 0.203125 28.125 -0.875 
Q 29 -1.765625 30.28125 -1.859375 
Q 31.453125 -1.859375 32.328125 -0.875 
Q 33.296875 0.09375 33.296875 1.765625 
L 33.296875 71 
Q 33.296875 73.53125 30.765625 73.4375 
Q 28.21875 73.34375 28.125 71 
Q 27.828125 65.234375 24.515625 62.703125 
Q 21.6875 60.546875 16.21875 60.546875 
Q 13.96875 60.546875 14.0625 58.296875 
Q 14.15625 56.0625 16.5 56.0625 
z
" id="UNAVAILABLE-49"/>
      </defs>
      <g transform="translate(89.228267 238.98375)scale(0.1 -0.1)">
       <use xlink:href="#UNAVAILABLE-50"/>
       <use x="57.421875" xlink:href="#UNAVAILABLE-48"/>
       <use x="114.84375" xlink:href="#UNAVAILABLE-49"/>
       <use x="172.265625" xlink:href="#UNAVAILABLE-48"/>
      </g>
     </g>
    </g>
    <g id="xtick_3">
     <g id="line2d_3">
      <g>
       <use style="stroke:#000000;stroke-width:0.8;" x="151.439915" xlink:href="#m03cf50532b" y="224.64"/>
      </g>
     </g>
     <g id="text_3">
      <!-- 2012 -->
      <g transform="translate(139.95554 238.98375)scale(0.1 -0.1)">
       <use xlink:href="#UNAVAILABLE-50"/>
       <use x="57.421875" xlink:href="#UNAVAILABLE-48"/>
       <use x="114.84375" xlink:href="#UNAVAILABLE-49"/>
       <use x="172.265625" xlink:href="#UNAVAILABLE-50"/>
      </g>
     </g>
    </g>
    <g id="xtick_4">
     <g id="line2d_4">
      <g>
       <use style="stroke:#000000;stroke-width:0.8;" x="202.167188" xlink:href="#m03cf50532b" y="224.64"/>
      </g>
     </g>
     <g id="text_4">
      <!-- 2014 -->
      <defs>
       <path d="M 36.921875 62.3125 
L 36.921875 22.65625 
L 11.234375 22.65625 
z
M 35.75 70.796875 
L 5.375 24.3125 
Q 3.8125 21.875 4.296875 19.625 
Q 4.890625 17.28125 7.421875 17.28125 
L 36.921875 17.28125 
L 36.921875 1.265625 
Q 36.921875 -0.203125 37.796875 -0.984375 
Q 38.671875 -1.765625 39.9375 -1.765625 
Q 41.109375 -1.765625 42 -0.984375 
Q 42.96875 -0.09375 42.96875 1.265625 
L 42.96875 17.28125 
L 52.25 17.28125 
Q 53.609375 17.28125 54.390625 18.171875 
Q 55.171875 18.953125 55.171875 20.015625 
Q 55.171875 21.09375 54.5 21.875 
Q 53.71875 22.65625 52.546875 22.65625 
L 42.96875 22.65625 
L 42.96875 70.125 
Q 42.96875 73.25 40.234375 73.4375 
Q 37.5 73.53125 35.75 70.796875 
z
" id="UNAVAILABLE-52"/>
      </defs>
      <g transform="translate(190.682813 238.98375)scale(0.1 -0.1)">
       <use xlink:href="#UNAVAILABLE-50"/>
       <use x="57.421875" xlink:href="#UNAVAILABLE-48"/>
       <use x="114.84375" xlink:href="#UNAVAILABLE-49"/>
       <use x="172.265625" xlink:href="#UNAVAILABLE-52"/>
      </g>
     </g>
    </g>
    <g id="xtick_5">
     <g id="line2d_5">
      <g>
       <use style="stroke:#000000;stroke-width:0.8;" x="252.89446" xlink:href="#m03cf50532b" y="224.64"/>
      </g>
     </g>
     <g id="text_5">
      <!-- 2016 -->
      <defs>
       <path d="M 12.203125 22.46875 
Q 12.203125 30.171875 17 35.25 
Q 21.875 40.328125 29.296875 40.328125 
Q 37.40625 40.328125 41.703125 34.96875 
Q 45.40625 30.171875 45.40625 22.5625 
Q 45.40625 14.0625 40.828125 8.890625 
Q 36.328125 3.71875 29 3.71875 
Q 21.578125 3.71875 16.890625 8.890625 
Q 12.203125 14.0625 12.203125 22.46875 
z
M 31.0625 73.4375 
Q 18.171875 73.4375 11.625 60.25 
Q 6.0625 48.734375 6.0625 29.5 
Q 6.0625 11.53125 13.375 3.8125 
Q 18.75 -1.765625 28.125 -1.765625 
Q 39.15625 -1.765625 45.21875 4.6875 
Q 51.46875 11.234375 51.46875 23.25 
Q 51.46875 34.28125 44.34375 40.625 
Q 38.375 45.796875 30.859375 45.796875 
Q 23.734375 45.796875 18.65625 42.96875 
Q 14.546875 40.625 12.203125 36.71875 
Q 12.890625 49.125 16.609375 57.234375 
Q 21.578125 67.96875 30.953125 67.96875 
Q 36.71875 67.96875 40.046875 64.75 
Q 42.875 62.015625 43.65625 57.234375 
Q 44.234375 54.296875 47.171875 54.78125 
Q 50.203125 55.375 49.90625 58.109375 
Q 48.921875 65.921875 43.359375 69.921875 
Q 38.484375 73.4375 31.0625 73.4375 
z
" id="UNAVAILABLE-54"/>
      </defs>
      <g transform="translate(241.410085 238.98375)scale(0.1 -0.1)">
       <use xlink:href="#UNAVAILABLE-50"/>
       <use x="57.421875" xlink:href="#UNAVAILABLE-48"/>
       <use x="114.84375" xlink:href="#UNAVAILABLE-49"/>
       <use x="172.265625" xlink:href="#UNAVAILABLE-54"/>
      </g>
     </g>
    </g>
    <g id="xtick_6">
     <g id="line2d_6">
      <g>
       <use style="stroke:#000000;stroke-width:0.8;" x="303.621733" xlink:href="#m03cf50532b" y="224.64"/>
      </g>
     </g>
     <g id="text_6">
      <!-- 2018 -->
      <g transform="translate(292.137358 238.98375)scale(0.1 -0.1)">
       <use xlink:href="#UNAVAILABLE-50"/>
       <use x="57.421875" xlink:href="#UNAVAILABLE-48"/>
       <use x="114.84375" xlink:href="#UNAVAILABLE-49"/>
       <use x="172.265625" xlink:href="#UNAVAILABLE-56"/>
      </g>
     </g>
    </g>
    <g id="xtick_7">
     <g id="line2d_7">
      <g>
       <use style="stroke:#000000;stroke-width:0.8;" x="354.349006" xlink:href="#m03cf50532b" y="224.64"/>
      </g>
     </g>
     <g id="text_7">
      <!-- 2020 -->
      <g transform="translate(342.864631 238.98375)scale(0.1 -0.1)">
       <use xlink:href="#UNAVAILABLE-50"/>
       <use x="57.421875" xlink:href="#UNAVAILABLE-48"/>
       <use x="114.84375" xlink:href="#UNAVAILABLE-50"/>
       <use x="172.265625" xlink:href="#UNAVAILABLE-48"/>
      </g>
     </g>
    </g>
    <g id="text_8">
     <!-- year -->
     <defs>
      <path d="M 2.4375 49.8125 
L 20.703125 3.71875 
L 17.28125 -3.515625 
Q 15.921875 -6.453125 14.84375 -7.515625 
Q 13.578125 -8.796875 11.421875 -8.796875 
L 7.03125 -8.796875 
Q 5.5625 -8.796875 4.78125 -9.578125 
Q 4.109375 -10.359375 4.109375 -11.421875 
Q 4.109375 -12.5 4.78125 -13.28125 
Q 5.5625 -14.15625 7.03125 -14.15625 
L 11.421875 -14.15625 
Q 15.4375 -14.15625 18.453125 -11.71875 
Q 21.578125 -9.28125 23.828125 -4.296875 
L 45.90625 50.484375 
Q 46.390625 51.65625 45.703125 52.640625 
Q 45.015625 53.515625 43.75 53.8125 
Q 42.484375 54.109375 41.40625 53.71875 
Q 40.046875 53.328125 39.65625 52.046875 
L 24.03125 11.625 
L 8.203125 52.34375 
Q 7.71875 53.609375 6.546875 53.90625 
Q 5.375 54.203125 4.203125 53.609375 
Q 3.03125 53.125 2.4375 52.15625 
Q 1.859375 51.078125 2.4375 49.8125 
z
" id="UNAVAILABLE-121"/>
      <path d="M 43.265625 14.75 
Q 40.921875 9.671875 37.890625 7.125 
Q 33.984375 3.71875 28.125 3.71875 
Q 20.703125 3.71875 16.3125 10.453125 
Q 12.5 16.109375 12.109375 24.421875 
L 50.484375 24.421875 
L 50.484375 25.984375 
Q 50.484375 37.40625 44.828125 45.3125 
Q 38.578125 53.90625 28.125 53.90625 
Q 17.671875 53.90625 11.53125 45.3125 
Q 5.953125 37.40625 5.953125 25.984375 
Q 5.953125 14.65625 11.53125 6.84375 
Q 17.671875 -1.765625 28.125 -1.765625 
Q 35.546875 -1.765625 41.015625 2.046875 
Q 46.390625 5.671875 49.21875 12.5 
Q 49.8125 13.96875 49.21875 15.234375 
Q 48.734375 16.3125 47.5625 16.703125 
Q 46.296875 17.1875 45.125 16.796875 
Q 43.84375 16.21875 43.265625 14.75 
z
M 12.3125 29.890625 
Q 12.890625 37.015625 16.5 42.1875 
Q 20.90625 48.53125 28.125 48.53125 
Q 35.359375 48.53125 39.84375 42.09375 
Q 43.453125 36.8125 44.046875 29.890625 
z
" id="UNAVAILABLE-101"/>
      <path d="M 41.609375 12.5 
Q 39.359375 8.5 35.0625 6.25 
Q 30.28125 3.71875 23.53125 3.71875 
Q 17.578125 3.71875 14.75 6.25 
Q 12.015625 8.59375 12.015625 13.375 
Q 12.015625 18.359375 14.9375 20.90625 
Q 17.96875 23.640625 25.296875 24.609375 
Q 32.625 25.59375 36.8125 26.859375 
Q 40.234375 27.9375 41.609375 29.109375 
z
M 28.21875 53.90625 
Q 20.015625 53.90625 15.046875 50.296875 
Q 9.96875 46.484375 8.796875 38.96875 
Q 8.5 37.5 9.375 36.625 
Q 10.15625 35.75 11.328125 35.640625 
Q 12.59375 35.546875 13.484375 36.234375 
Q 14.546875 36.921875 14.75 38.1875 
Q 15.234375 43.0625 18.171875 45.609375 
Q 21.484375 48.53125 28.125 48.53125 
Q 34.96875 48.53125 38.375 46 
Q 41.609375 43.5625 41.609375 38.765625 
Q 41.609375 34.578125 38.671875 33.015625 
Q 35.640625 31.34375 25.203125 29.890625 
Q 13.375 28.421875 8.890625 23.34375 
Q 5.859375 19.828125 5.859375 13.375 
Q 5.859375 6.25 10.25 2.34375 
Q 14.75 -1.765625 23.53125 -1.765625 
Q 29.984375 -1.765625 35.0625 0.484375 
Q 38.765625 2.15625 41.703125 4.984375 
Q 41.703125 1.953125 43.453125 0.6875 
Q 45.609375 -0.6875 51.171875 -0.6875 
Q 52.546875 -0.6875 53.328125 0.203125 
Q 54 0.984375 54 2.046875 
Q 53.90625 3.21875 53.21875 4 
Q 52.4375 4.78125 51.265625 4.78125 
Q 49.515625 4.78125 48.53125 5.765625 
Q 47.65625 6.640625 47.65625 8.296875 
L 47.65625 39.265625 
Q 47.65625 46.96875 42 50.6875 
Q 37.015625 53.90625 28.21875 53.90625 
z
" id="UNAVAILABLE-97"/>
      <path d="M 8.5 50.390625 
L 8.5 1.46875 
Q 8.5 0 9.375 -0.875 
Q 10.25 -1.65625 11.53125 -1.65625 
Q 12.703125 -1.65625 13.578125 -0.875 
Q 14.546875 0 14.546875 1.46875 
L 14.546875 39.546875 
Q 16.3125 43.359375 19.625 45.515625 
Q 23.34375 47.953125 28.125 47.953125 
Q 30.5625 47.953125 30.46875 50.984375 
Q 30.375 53.90625 28.21875 53.90625 
Q 23.53125 53.90625 19.828125 51.5625 
Q 17 49.8125 14.546875 46.390625 
L 14.546875 50.390625 
Q 14.546875 51.765625 13.578125 52.546875 
Q 12.703125 53.125 11.53125 53.125 
Q 10.25 53.125 9.375 52.4375 
Q 8.5 51.65625 8.5 50.390625 
z
" id="UNAVAILABLE-114"/>
     </defs>
     <g transform="translate(192.353125 251.754062)scale(0.1 -0.1)">
      <use xlink:href="#UNAVAILABLE-121"/>
      <use x="50" xlink:href="#UNAVAILABLE-101"/>
      <use x="106.738281" xlink:href="#UNAVAILABLE-97"/>
      <use x="162.988281" xlink:href="#UNAVAILABLE-114"/>
     </g>
    </g>
   </g>
   <g id="matplotlib.axis_2">
    <g id="ytick_1">
     <g id="line2d_8">
      <defs>
       <path d="M 0 0 
L -3.5 0 
" id="m3f9d6de533" style="stroke:#000000;stroke-width:0.8;"/>
      </defs>
      <g>
       <use style="stroke:#000000;stroke-width:0.8;" x="34.767188" xlink:href="#m3f9d6de533" y="192.216328"/>
      </g>
     </g>
     <g id="text_9">
      <!-- 0.06 -->
      <defs>
       <path d="M 16.703125 9.28125 
Q 14.15625 9.28125 12.703125 7.625 
Q 11.421875 6.0625 11.421875 3.71875 
Q 11.421875 1.5625 12.703125 0 
Q 14.15625 -1.765625 16.703125 -1.765625 
Q 19.140625 -1.765625 20.609375 0 
Q 21.96875 1.5625 21.96875 3.71875 
Q 21.96875 6.0625 20.609375 7.625 
Q 19.140625 9.28125 16.703125 9.28125 
z
" id="UNAVAILABLE-46"/>
      </defs>
      <g transform="translate(7.2 195.888203)scale(0.1 -0.1)">
       <use xlink:href="#UNAVAILABLE-48"/>
       <use x="57.421875" xlink:href="#UNAVAILABLE-46"/>
       <use x="90.820312" xlink:href="#UNAVAILABLE-48"/>
       <use x="148.242188" xlink:href="#UNAVAILABLE-54"/>
      </g>
     </g>
    </g>
    <g id="ytick_2">
     <g id="line2d_9">
      <g>
       <use style="stroke:#000000;stroke-width:0.8;" x="34.767188" xlink:href="#m3f9d6de533" y="153.235908"/>
      </g>
     </g>
     <g id="text_10">
      <!-- 0.08 -->
      <g transform="translate(7.2 156.907783)scale(0.1 -0.1)">
       <use xlink:href="#UNAVAILABLE-48"/>
       <use x="57.421875" xlink:href="#UNAVAILABLE-46"/>
       <use x="90.820312" xlink:href="#UNAVAILABLE-48"/>
       <use x="148.242188" xlink:href="#UNAVAILABLE-56"/>
      </g>
     </g>
    </g>
    <g id="ytick_3">
     <g id="line2d_10">
      <g>
       <use style="stroke:#000000;stroke-width:0.8;" x="34.767188" xlink:href="#m3f9d6de533" y="114.255488"/>
      </g>
     </g>
     <g id="text_11">
      <!-- 0.10 -->
      <g transform="translate(7.2 117.927363)scale(0.1 -0.1)">
       <use xlink:href="#UNAVAILABLE-48"/>
       <use x="57.421875" xlink:href="#UNAVAILABLE-46"/>
       <use x="90.820312" xlink:href="#UNAVAILABLE-49"/>
       <use x="148.242188" xlink:href="#UNAVAILABLE-48"/>
      </g>
     </g>
    </g>
    <g id="ytick_4">
     <g id="line2d_11">
      <g>
       <use style="stroke:#000000;stroke-width:0.8;" x="34.767188" xlink:href="#m3f9d6de533" y="75.275069"/>
      </g>
     </g>
     <g id="text_12">
      <!-- 0.12 -->
      <g transform="translate(7.2 78.946944)scale(0.1 -0.1)">
       <use xlink:href="#UNAVAILABLE-48"/>
       <use x="57.421875" xlink:href="#UNAVAILABLE-46"/>
       <use x="90.820312" xlink:href="#UNAVAILABLE-49"/>
       <use x="148.242188" xlink:href="#UNAVAILABLE-50"/>
      </g>
     </g>
    </g>
    <g id="ytick_5">
     <g id="line2d_12">
      <g>
       <use style="stroke:#000000;stroke-width:0.8;" x="34.767188" xlink:href="#m3f9d6de533" y="36.294649"/>
      </g>
     </g>
     <g id="text_13">
      <!-- 0.14 -->
      <g transform="translate(7.2 39.966524)scale(0.1 -0.1)">
       <use xlink:href="#UNAVAILABLE-48"/>
       <use x="57.421875" xlink:href="#UNAVAILABLE-46"/>
       <use x="90.820312" xlink:href="#UNAVAILABLE-49"/>
       <use x="148.242188" xlink:href="#UNAVAILABLE-52"/>
      </g>
     </g>
    </g>
   </g>
   <g id="line2d_13">
    <path clip-path="url(#pc34fe6e95e)" d="M 49.985369 117.41772 
L 75.349006 100.719302 
L 100.712642 90.449687 
L 126.076278 88.758174 
L 151.439915 74.2646 
L 176.803551 67.780419 
L 202.167188 75.324207 
L 227.530824 68.673934 
L 252.89446 65.688763 
L 278.258097 53.427227 
L 303.621733 55.708751 
L 328.985369 48.078313 
L 354.349006 45.136432 
" style="fill:none;stroke:#1f77b4;stroke-linecap:square;stroke-width:1.5;"/>
   </g>
   <g id="line2d_14">
    <path clip-path="url(#pc34fe6e95e)" d="M 49.985369 122.547846 
L 75.349006 108.393674 
L 100.712642 90.120043 
L 126.076278 78.788729 
L 151.439915 81.61289 
L 176.803551 72.013921 
L 202.167188 17.083636 
L 227.530824 37.070198 
L 252.89446 44.85664 
L 278.258097 51.229123 
L 303.621733 46.315469 
L 328.985369 51.140737 
L 354.349006 57.731012 
" style="fill:none;stroke:#ff7f0e;stroke-linecap:square;stroke-width:1.5;"/>
   </g>
   <g id="line2d_15">
    <path clip-path="url(#pc34fe6e95e)" d="M 49.985369 136.220494 
L 75.349006 157.978318 
L 100.712642 167.080962 
L 126.076278 165.710162 
L 151.439915 164.557111 
L 176.803551 169.452022 
L 202.167188 184.32286 
L 227.530824 177.154578 
L 252.89446 192.410651 
L 278.258097 198.594253 
L 303.621733 209.962273 
L 328.985369 213.979857 
L 354.349006 214.756364 
" style="fill:none;stroke:#2ca02c;stroke-linecap:square;stroke-width:1.5;"/>
   </g>
   <g id="patch_3">
    <path d="M 34.767188 224.64 
L 34.767188 7.2 
" style="fill:none;stroke:#000000;stroke-linecap:square;stroke-linejoin:miter;stroke-width:0.8;"/>
   </g>
   <g id="patch_4">
    <path d="M 369.567187 224.64 
L 369.567187 7.2 
" style="fill:none;stroke:#000000;stroke-linecap:square;stroke-linejoin:miter;stroke-width:0.8;"/>
   </g>
   <g id="patch_5">
    <path d="M 34.767188 224.64 
L 369.567188 224.64 
" style="fill:none;stroke:#000000;stroke-linecap:square;stroke-linejoin:miter;stroke-width:0.8;"/>
   </g>
   <g id="patch_6">
    <path d="M 34.767188 7.2 
L 369.567188 7.2 
" style="fill:none;stroke:#000000;stroke-linecap:square;stroke-linejoin:miter;stroke-width:0.8;"/>
   </g>
   <g id="legend_1">
    <g id="patch_7">
     <path d="M 41.767188 70.28125 
L 90.354688 70.28125 
Q 92.354688 70.28125 92.354688 68.28125 
L 92.354688 14.2 
Q 92.354688 12.2 90.354688 12.2 
L 41.767188 12.2 
Q 39.767188 12.2 39.767188 14.2 
L 39.767188 68.28125 
Q 39.767188 70.28125 41.767188 70.28125 
z
" style="fill:#ffffff;opacity:0.8;stroke:#cccccc;stroke-linejoin:miter;"/>
    </g>
    <g id="text_14">
     <!-- last_letter -->
     <defs>
      <path d="M 8.5 70.609375 
L 8.5 1.265625 
Q 8.5 -0.09375 9.375 -0.984375 
Q 10.25 -1.765625 11.53125 -1.765625 
Q 12.703125 -1.765625 13.578125 -0.984375 
Q 14.546875 -0.203125 14.546875 1.171875 
L 14.546875 70.515625 
Q 14.546875 71.96875 13.578125 72.75 
Q 12.703125 73.4375 11.53125 73.4375 
Q 10.25 73.4375 9.375 72.75 
Q 8.5 71.96875 8.5 70.609375 
z
" id="UNAVAILABLE-108"/>
      <path d="M 24.90625 53.90625 
Q 17 53.90625 12.109375 50.390625 
Q 6.9375 46.6875 6.9375 40.140625 
Q 6.9375 34.078125 11.234375 30.46875 
Q 15.140625 27.046875 23.828125 24.8125 
Q 33.40625 22.46875 36.921875 19.625 
Q 39.84375 17.390625 39.84375 13.375 
Q 39.84375 9.078125 36.421875 6.546875 
Q 32.8125 3.71875 26.46875 3.71875 
Q 18.84375 3.71875 15.4375 6.546875 
Q 12.203125 9.1875 12.203125 14.265625 
Q 12.109375 15.625 11.140625 16.3125 
Q 10.25 17 8.984375 16.890625 
Q 7.71875 16.890625 6.9375 16.109375 
Q 5.953125 15.234375 6.0625 13.875 
Q 6.34375 6.25 11.53125 2.25 
Q 16.703125 -1.765625 26.375 -1.765625 
Q 36.03125 -1.765625 41.21875 2.734375 
Q 46 6.734375 46 13.28125 
Q 46 19.828125 42 23.53125 
Q 37.796875 27.546875 27.546875 29.890625 
Q 19.140625 32.03125 16.015625 34.46875 
Q 13.09375 36.8125 13.09375 40.828125 
Q 13.09375 44.234375 16.40625 46.484375 
Q 19.734375 48.53125 24.703125 48.53125 
Q 31.25 48.53125 34.578125 46.09375 
Q 37.703125 43.84375 38.09375 39.546875 
Q 38.1875 38.1875 39.265625 37.40625 
Q 40.234375 36.71875 41.5 36.8125 
Q 42.875 37.015625 43.75 37.796875 
Q 44.734375 38.765625 44.625 40.140625 
Q 44.140625 46.09375 39.84375 49.703125 
Q 34.765625 53.90625 24.90625 53.90625 
z
" id="UNAVAILABLE-115"/>
      <path d="M 11.140625 65.828125 
L 11.140625 52.25 
L 5.859375 52.25 
Q 3.609375 52.25 3.609375 49.609375 
Q 3.609375 46.875 5.859375 46.875 
L 11.140625 46.875 
L 11.140625 7.71875 
Q 11.140625 3.90625 13.484375 1.265625 
Q 16.015625 -1.765625 20.515625 -1.765625 
L 25.09375 -1.765625 
Q 26.46875 -1.765625 27.34375 -0.875 
Q 28.125 -0.09375 28.125 0.984375 
Q 28.125 2.15625 27.34375 2.9375 
Q 26.46875 3.71875 25.09375 3.71875 
L 21.578125 3.71875 
Q 19.4375 3.71875 18.265625 5.171875 
Q 17.28125 6.34375 17.28125 8.109375 
L 17.28125 46.875 
L 25.296875 46.875 
Q 27.828125 46.875 27.828125 49.609375 
Q 27.828125 52.25 25.296875 52.25 
L 17.28125 52.25 
L 17.28125 65.828125 
Q 17.28125 67.28125 16.3125 68.0625 
Q 15.4375 68.75 14.15625 68.75 
Q 12.890625 68.75 12.015625 68.0625 
Q 11.140625 67.28125 11.140625 65.828125 
z
" id="UNAVAILABLE-116"/>
      <path d="M 50 -8.984375 
L 50 -3.515625 
L 0 -3.515625 
L 0 -8.984375 
z
" id="UNAVAILABLE-95"/>
     </defs>
     <g transform="translate(43.767188 23.54375)scale(0.1 -0.1)">
      <use xlink:href="#UNAVAILABLE-108"/>
      <use x="23.144531" xlink:href="#UNAVAILABLE-97"/>
      <use x="79.394531" xlink:href="#UNAVAILABLE-115"/>
      <use x="131.933594" xlink:href="#UNAVAILABLE-116"/>
      <use x="163.28125" xlink:href="#UNAVAILABLE-95"/>
      <use x="213.28125" xlink:href="#UNAVAILABLE-108"/>
      <use x="236.425781" xlink:href="#UNAVAILABLE-101"/>
      <use x="293.164062" xlink:href="#UNAVAILABLE-116"/>
      <use x="324.511719" xlink:href="#UNAVAILABLE-116"/>
      <use x="355.859375" xlink:href="#UNAVAILABLE-101"/>
      <use x="412.597656" xlink:href="#UNAVAILABLE-114"/>
     </g>
    </g>
    <g id="line2d_16">
     <path d="M 47.060938 33.814062 
L 67.060938 33.814062 
" style="fill:none;stroke:#1f77b4;stroke-linecap:square;stroke-width:1.5;"/>
    </g>
    <g id="line2d_17"/>
    <g id="text_15">
     <!-- 우 -->
     <defs>
      <path d="M 50 75.390625 
Q 33.109375 75.390625 24.125 70.125 
Q 15.921875 65.4375 15.921875 57.515625 
Q 15.921875 49.703125 24.125 44.921875 
Q 33.203125 39.546875 50 39.546875 
Q 66.703125 39.546875 75.78125 44.921875 
Q 84.078125 49.703125 84.078125 57.515625 
Q 84.078125 65.4375 75.78125 70.125 
Q 66.796875 75.390625 50 75.390625 
z
M 50 70.40625 
Q 63.96875 70.40625 71.484375 66.703125 
Q 78.421875 63.28125 78.421875 57.515625 
Q 78.421875 51.859375 71.484375 48.4375 
Q 64.0625 44.625 50 44.625 
Q 35.84375 44.625 28.421875 48.4375 
Q 21.578125 51.859375 21.578125 57.515625 
Q 21.578125 63.28125 28.421875 66.703125 
Q 35.9375 70.40625 50 70.40625 
z
M 88.09375 29.109375 
L 12.109375 29.109375 
Q 9.375 29.109375 9.28125 26.65625 
Q 9.1875 24.125 11.71875 24.125 
L 47.171875 24.125 
L 47.171875 -2.046875 
Q 47.171875 -3.421875 48.046875 -4.296875 
Q 48.828125 -4.984375 50 -4.984375 
Q 51.078125 -4.984375 51.859375 -4.203125 
Q 52.828125 -3.328125 52.828125 -1.953125 
L 52.828125 24.125 
L 88.28125 24.125 
Q 90.828125 24.125 90.828125 26.65625 
Q 90.71875 29.109375 88.09375 29.109375 
z
" id="UNAVAILABLE-50864"/>
     </defs>
     <g transform="translate(75.060938 37.314062)scale(0.1 -0.1)">
      <use xlink:href="#UNAVAILABLE-50864"/>
     </g>
    </g>
    <g id="line2d_18">
     <path d="M 47.060938 47.584375 
L 67.060938 47.584375 
" style="fill:none;stroke:#ff7f0e;stroke-linecap:square;stroke-width:1.5;"/>
    </g>
    <g id="line2d_19"/>
    <g id="text_16">
     <!-- 준 -->
     <defs>
      <path d="M 81.640625 74.90625 
L 18.65625 74.90625 
Q 15.921875 74.90625 15.921875 72.46875 
Q 15.828125 69.921875 18.5625 69.921875 
L 47.171875 69.921875 
Q 47.171875 62.3125 37.5 56.734375 
Q 28.328125 51.46875 15.53125 50.875 
Q 13.875 50.875 13.09375 50 
Q 12.40625 49.21875 12.703125 48.140625 
Q 12.890625 47.078125 13.765625 46.296875 
Q 14.84375 45.515625 16.40625 45.609375 
Q 28.21875 46.390625 37.984375 51.171875 
Q 46.96875 55.5625 50 61.140625 
Q 53.125 55.671875 62.203125 51.171875 
Q 72.265625 46.296875 83.890625 45.609375 
Q 85.25 45.515625 86.234375 46.390625 
Q 87.109375 47.078125 87.3125 48.140625 
Q 87.5 49.21875 86.921875 50 
Q 86.234375 50.875 84.859375 50.875 
Q 71.6875 51.265625 62.3125 56.734375 
Q 52.828125 62.203125 52.828125 69.921875 
L 81.640625 69.921875 
Q 84.078125 69.921875 84.078125 72.46875 
Q 84.078125 74.90625 81.640625 74.90625 
z
M 88.1875 36.8125 
L 12.109375 36.8125 
Q 9.28125 36.8125 9.1875 34.375 
Q 8.984375 31.84375 11.625 31.84375 
L 47.171875 31.84375 
L 47.171875 15.921875 
Q 47.171875 14.546875 48.046875 13.765625 
Q 48.828125 13.09375 50 13.09375 
Q 51.078125 13.09375 51.859375 13.875 
Q 52.828125 14.75 52.828125 16.21875 
L 52.828125 31.84375 
L 88.375 31.84375 
Q 90.828125 31.84375 90.828125 34.375 
Q 90.71875 36.8125 88.1875 36.8125 
z
M 22.859375 16.890625 
Q 22.859375 18.65625 21.875 19.625 
Q 21.09375 20.515625 19.921875 20.515625 
Q 18.65625 20.515625 17.875 19.625 
Q 17 18.65625 17 16.890625 
L 17 5.953125 
Q 17 2.15625 19.234375 -0.203125 
Q 21.484375 -2.640625 25.390625 -2.640625 
L 81.546875 -2.640625 
Q 84.078125 -2.640625 84.078125 -0.09375 
Q 84.078125 2.34375 81.546875 2.34375 
L 27.546875 2.34375 
Q 24.8125 2.34375 23.828125 3.21875 
Q 22.859375 4.203125 22.859375 6.84375 
z
" id="UNAVAILABLE-51456"/>
     </defs>
     <g transform="translate(75.060938 51.084375)scale(0.1 -0.1)">
      <use xlink:href="#UNAVAILABLE-51456"/>
     </g>
    </g>
    <g id="line2d_20">
     <path d="M 47.060938 61.354687 
L 67.060938 61.354687 
" style="fill:none;stroke:#2ca02c;stroke-linecap:square;stroke-width:1.5;"/>
    </g>
    <g id="line2d_21"/>
    <g id="text_17">
     <!-- 현 -->
     <defs>
      <path d="M 49.125 74.90625 
L 23.53125 74.90625 
Q 20.796875 74.90625 20.796875 72.46875 
Q 20.796875 69.921875 23.53125 69.921875 
L 49.3125 69.921875 
Q 51.953125 69.921875 51.859375 72.46875 
Q 51.859375 74.90625 49.125 74.90625 
z
M 59.46875 62.703125 
L 12.984375 62.703125 
Q 10.25 62.703125 10.25 60.25 
Q 10.25 57.8125 12.984375 57.8125 
L 59.671875 57.8125 
Q 60.9375 57.8125 61.71875 58.59375 
Q 62.40625 59.28125 62.40625 60.25 
Q 62.40625 61.328125 61.625 62.015625 
Q 60.84375 62.703125 59.46875 62.703125 
z
M 36.625 52.046875 
Q 25.59375 52.046875 19.34375 47.953125 
Q 13.578125 44.046875 13.578125 38.1875 
Q 13.578125 32.515625 19.34375 28.8125 
Q 25.59375 24.609375 36.625 24.609375 
Q 47.359375 24.609375 53.71875 28.8125 
Q 59.46875 32.515625 59.46875 38.1875 
Q 59.46875 44.046875 53.71875 47.953125 
Q 47.359375 52.046875 36.625 52.046875 
z
M 36.625 47.078125 
Q 44.828125 47.078125 49.421875 44.53125 
Q 53.71875 42.1875 53.71875 38.1875 
Q 53.71875 34.46875 49.421875 32.125 
Q 44.828125 29.59375 36.625 29.59375 
Q 28.328125 29.59375 23.640625 32.125 
Q 19.34375 34.46875 19.34375 38.1875 
Q 19.34375 42.09375 23.640625 44.53125 
Q 28.328125 47.078125 36.625 47.078125 
z
M 81.453125 20.125 
L 81.453125 74.125 
Q 81.453125 75.390625 80.46875 76.078125 
Q 79.6875 76.765625 78.515625 76.765625 
Q 77.25 76.765625 76.46875 76.078125 
Q 75.59375 75.296875 75.59375 74.03125 
L 75.59375 52.640625 
L 60.640625 52.640625 
Q 59.28125 52.640625 58.59375 51.859375 
Q 57.90625 51.171875 58.015625 50.09375 
Q 58.015625 49.125 58.796875 48.4375 
Q 59.671875 47.5625 61.234375 47.5625 
L 75.59375 47.5625 
L 75.59375 35.15625 
L 61.234375 35.15625 
Q 58.015625 35.15625 58.015625 32.71875 
Q 58.015625 30.171875 61.140625 30.171875 
L 75.59375 30.171875 
L 75.59375 20.125 
Q 75.59375 18.75 76.46875 17.875 
Q 77.25 17.1875 78.515625 17.1875 
Q 79.6875 17.1875 80.46875 17.875 
Q 81.453125 18.75 81.453125 20.125 
z
M 24.421875 18.359375 
Q 24.421875 19.734375 23.4375 20.515625 
Q 22.65625 21.296875 21.484375 21.296875 
Q 20.21875 21.296875 19.4375 20.515625 
Q 18.5625 19.734375 18.5625 18.359375 
L 18.5625 6.0625 
Q 18.5625 2.25 21.1875 -0.203125 
Q 23.828125 -2.640625 27.828125 -2.640625 
L 82.125 -2.640625 
Q 84.671875 -2.640625 84.671875 -0.09375 
Q 84.671875 2.34375 82.125 2.34375 
L 29.203125 2.34375 
Q 26.375 2.34375 25.390625 3.21875 
Q 24.421875 4.203125 24.421875 6.84375 
z
" id="UNAVAILABLE-54788"/>
     </defs>
     <g transform="translate(75.060938 64.854687)scale(0.1 -0.1)">
      <use xlink:href="#UNAVAILABLE-54788"/>
     </g>
    </g>
   </g>
  </g>
 </g>
 <defs>
  <clipPath id="pc34fe6e95e">
   <rect height="217.44" width="334.8" x="34.767188" y="7.2"/>
  </clipPath>
 </defs>
</svg>
