<?xml version="1.0" encoding="utf-8" standalone="no"?>
<!DOCTYPE svg PUBLIC "-//W3C//DTD SVG 1.1//EN"
  "http://www.w3.org/Graphics/SVG/1.1/DTD/svg11.dtd">
<!-- Created with matplotlib (https://matplotlib.org/) -->
<svg height="275.25125pt" version="1.1" viewBox="0 0 367.684375 275.25125" width="367.684375pt" xmlns="http://www.w3.org/2000/svg" xmlns:xlink="http://www.w3.org/1999/xlink">
 <defs>
  <style type="text/css">
*{stroke-linecap:butt;stroke-linejoin:round;}
  </style>
 </defs>
 <g id="figure_1">
  <g id="patch_1">
   <path d="M -0 275.25125 
L 367.684375 275.25125 
L 367.684375 0 
L -0 0 
z
" style="fill:none;"/>
  </g>
  <g id="axes_1">
   <g id="patch_2">
    <path d="M 25.684375 239.510625 
L 360.484375 239.510625 
L 360.484375 22.070625 
L 25.684375 22.070625 
z
" style="fill:#ffffff;"/>
   </g>
   <g id="matplotlib.axis_1">
    <g id="xtick_1">
     <g id="line2d_1">
      <defs>
       <path d="M 0 0 
L 0 3.5 
" id="m86ded17413" style="stroke:#000000;stroke-width:0.8;"/>
      </defs>
      <g>
       <use style="stroke:#000000;stroke-width:0.8;" x="40.902557" xlink:href="#m86ded17413" y="239.510625"/>
      </g>
     </g>
     <g id="text_1">
      <!-- 2008 -->
      <defs>
       <path d="M 28.90625 73.4375 
Q 18.953125 73.4375 13.09375 67.28125 
Q 7.90625 61.8125 7.90625 53.8125 
L 7.90625 51.265625 
Q 7.90625 49.609375 8.796875 48.640625 
Q 9.671875 47.75 10.9375 47.75 
Q 12.203125 47.75 13.09375 48.640625 
Q 14.0625 49.515625 14.0625 50.984375 
L 14.0625 53.8125 
Q 14.0625 59.671875 17.78125 63.578125 
Q 21.875 67.96875 28.90625 67.96875 
Q 35.9375 67.96875 40.140625 63.578125 
Q 43.84375 59.671875 43.84375 53.8125 
Q 43.84375 46.6875 39.453125 41.703125 
Q 36.03125 37.984375 26.265625 31.9375 
Q 16.015625 25.78125 11.234375 18.5625 
Q 5.953125 10.640625 6.0625 -0.09375 
L 48.734375 -0.09375 
Q 50 -0.09375 50.78125 0.78125 
Q 51.5625 1.5625 51.5625 2.640625 
Q 51.5625 3.8125 50.78125 4.59375 
Q 50 5.375 48.734375 5.375 
L 12.5 5.375 
Q 13.1875 12.40625 16.5 16.890625 
Q 20.3125 22.171875 30.671875 28.609375 
L 32.625 29.984375 
Q 42.1875 36.03125 45.21875 39.546875 
Q 50 45.015625 50 53.8125 
Q 50 61.8125 44.734375 67.28125 
Q 38.765625 73.4375 28.90625 73.4375 
z
" id="UNAVAILABLE-50"/>
       <path d="M 28.71875 73.4375 
Q 17.96875 73.4375 11.71875 61.8125 
Q 6.15625 51.265625 6.15625 35.84375 
Q 6.15625 20.515625 11.71875 9.96875 
Q 17.96875 -1.765625 28.71875 -1.765625 
Q 39.359375 -1.765625 45.609375 9.96875 
Q 51.265625 20.515625 51.265625 35.84375 
Q 51.265625 51.265625 45.609375 61.8125 
Q 39.359375 73.4375 28.71875 73.4375 
z
M 28.71875 67.96875 
Q 36.421875 67.96875 41.015625 58.015625 
Q 45.125 49.03125 45.125 35.75 
Q 45.125 22.65625 41.015625 13.671875 
Q 36.421875 3.71875 28.71875 3.71875 
Q 20.796875 3.71875 16.3125 13.671875 
Q 12.3125 22.65625 12.3125 35.75 
Q 12.3125 49.03125 16.3125 58.015625 
Q 20.796875 67.96875 28.71875 67.96875 
z
" id="UNAVAILABLE-48"/>
       <path d="M 50.296875 54.890625 
Q 50.296875 62.40625 44.828125 67.671875 
Q 38.765625 73.4375 28.8125 73.4375 
Q 18.84375 73.4375 12.796875 67.671875 
Q 7.421875 62.40625 7.421875 54.890625 
Q 7.421875 48.640625 10.75 44.234375 
Q 13.28125 40.828125 16.796875 39.359375 
Q 11.328125 36.421875 8.296875 31.640625 
Q 5.171875 26.5625 5.171875 20.125 
Q 5.171875 11.328125 11.140625 5.078125 
Q 17.78125 -1.765625 28.71875 -1.765625 
Q 39.75 -1.765625 46.390625 5.078125 
Q 52.4375 11.328125 52.4375 20.125 
Q 52.4375 26.5625 49.03125 31.84375 
Q 45.796875 36.8125 40.625 39.265625 
Q 44.234375 40.71875 46.875 44.140625 
Q 50.296875 48.640625 50.296875 54.890625 
z
M 28.8125 36.421875 
Q 37.015625 36.421875 42 31.34375 
Q 46.578125 26.765625 46.578125 20.015625 
Q 46.578125 13.375 42 8.796875 
Q 37.015625 3.71875 28.8125 3.71875 
Q 20.515625 3.71875 15.625 8.796875 
Q 11.140625 13.375 11.140625 20.015625 
Q 11.140625 26.765625 15.625 31.34375 
Q 20.515625 36.421875 28.8125 36.421875 
z
M 28.8125 67.96875 
Q 36.03125 67.96875 40.4375 63.96875 
Q 44.4375 60.25 44.4375 54.890625 
Q 44.4375 49.515625 40.4375 45.90625 
Q 36.03125 41.796875 28.8125 41.796875 
Q 21.578125 41.796875 17.28125 45.90625 
Q 13.375 49.515625 13.375 54.890625 
Q 13.375 60.25 17.28125 63.96875 
Q 21.578125 67.96875 28.8125 67.96875 
z
" id="UNAVAILABLE-56"/>
      </defs>
      <g transform="translate(29.418182 253.854375)scale(0.1 -0.1)">
       <use xlink:href="#UNAVAILABLE-50"/>
       <use x="57.421875" xlink:href="#UNAVAILABLE-48"/>
       <use x="114.84375" xlink:href="#UNAVAILABLE-48"/>
       <use x="172.265625" xlink:href="#UNAVAILABLE-56"/>
      </g>
     </g>
    </g>
    <g id="xtick_2">
     <g id="line2d_2">
      <g>
       <use style="stroke:#000000;stroke-width:0.8;" x="91.62983" xlink:href="#m86ded17413" y="239.510625"/>
      </g>
     </g>
     <g id="text_2">
      <!-- 2010 -->
      <defs>
       <path d="M 16.5 56.0625 
L 27.25 56.0625 
L 27.25 1.859375 
Q 27.25 0.203125 28.125 -0.875 
Q 29 -1.765625 30.28125 -1.859375 
Q 31.453125 -1.859375 32.328125 -0.875 
Q 33.296875 0.09375 33.296875 1.765625 
L 33.296875 71 
Q 33.296875 73.53125 30.765625 73.4375 
Q 28.21875 73.34375 28.125 71 
Q 27.828125 65.234375 24.515625 62.703125 
Q 21.6875 60.546875 16.21875 60.546875 
Q 13.96875 60.546875 14.0625 58.296875 
Q 14.15625 56.0625 16.5 56.0625 
z
" id="UNAVAILABLE-49"/>
      </defs>
      <g transform="translate(80.145455 253.854375)scale(0.1 -0.1)">
       <use xlink:href="#UNAVAILABLE-50"/>
       <use x="57.421875" xlink:href="#UNAVAILABLE-48"/>
       <use x="114.84375" xlink:href="#UNAVAILABLE-49"/>
       <use x="172.265625" xlink:href="#UNAVAILABLE-48"/>
      </g>
     </g>
    </g>
    <g id="xtick_3">
     <g id="line2d_3">
      <g>
       <use style="stroke:#000000;stroke-width:0.8;" x="142.357102" xlink:href="#m86ded17413" y="239.510625"/>
      </g>
     </g>
     <g id="text_3">
      <!-- 2012 -->
      <g transform="translate(130.872727 253.854375)scale(0.1 -0.1)">
       <use xlink:href="#UNAVAILABLE-50"/>
       <use x="57.421875" xlink:href="#UNAVAILABLE-48"/>
       <use x="114.84375" xlink:href="#UNAVAILABLE-49"/>
       <use x="172.265625" xlink:href="#UNAVAILABLE-50"/>
      </g>
     </g>
    </g>
    <g id="xtick_4">
     <g id="line2d_4">
      <g>
       <use style="stroke:#000000;stroke-width:0.8;" x="193.084375" xlink:href="#m86ded17413" y="239.510625"/>
      </g>
     </g>
     <g id="text_4">
      <!-- 2014 -->
      <defs>
       <path d="M 36.921875 62.3125 
L 36.921875 22.65625 
L 11.234375 22.65625 
z
M 35.75 70.796875 
L 5.375 24.3125 
Q 3.8125 21.875 4.296875 19.625 
Q 4.890625 17.28125 7.421875 17.28125 
L 36.921875 17.28125 
L 36.921875 1.265625 
Q 36.921875 -0.203125 37.796875 -0.984375 
Q 38.671875 -1.765625 39.9375 -1.765625 
Q 41.109375 -1.765625 42 -0.984375 
Q 42.96875 -0.09375 42.96875 1.265625 
L 42.96875 17.28125 
L 52.25 17.28125 
Q 53.609375 17.28125 54.390625 18.171875 
Q 55.171875 18.953125 55.171875 20.015625 
Q 55.171875 21.09375 54.5 21.875 
Q 53.71875 22.65625 52.546875 22.65625 
L 42.96875 22.65625 
L 42.96875 70.125 
Q 42.96875 73.25 40.234375 73.4375 
Q 37.5 73.53125 35.75 70.796875 
z
" id="UNAVAILABLE-52"/>
      </defs>
      <g transform="translate(181.6 253.854375)scale(0.1 -0.1)">
       <use xlink:href="#UNAVAILABLE-50"/>
       <use x="57.421875" xlink:href="#UNAVAILABLE-48"/>
       <use x="114.84375" xlink:href="#UNAVAILABLE-49"/>
       <use x="172.265625" xlink:href="#UNAVAILABLE-52"/>
      </g>
     </g>
    </g>
    <g id="xtick_5">
     <g id="line2d_5">
      <g>
       <use style="stroke:#000000;stroke-width:0.8;" x="243.811648" xlink:href="#m86ded17413" y="239.510625"/>
      </g>
     </g>
     <g id="text_5">
      <!-- 2016 -->
      <defs>
       <path d="M 12.203125 22.46875 
Q 12.203125 30.171875 17 35.25 
Q 21.875 40.328125 29.296875 40.328125 
Q 37.40625 40.328125 41.703125 34.96875 
Q 45.40625 30.171875 45.40625 22.5625 
Q 45.40625 14.0625 40.828125 8.890625 
Q 36.328125 3.71875 29 3.71875 
Q 21.578125 3.71875 16.890625 8.890625 
Q 12.203125 14.0625 12.203125 22.46875 
z
M 31.0625 73.4375 
Q 18.171875 73.4375 11.625 60.25 
Q 6.0625 48.734375 6.0625 29.5 
Q 6.0625 11.53125 13.375 3.8125 
Q 18.75 -1.765625 28.125 -1.765625 
Q 39.15625 -1.765625 45.21875 4.6875 
Q 51.46875 11.234375 51.46875 23.25 
Q 51.46875 34.28125 44.34375 40.625 
Q 38.375 45.796875 30.859375 45.796875 
Q 23.734375 45.796875 18.65625 42.96875 
Q 14.546875 40.625 12.203125 36.71875 
Q 12.890625 49.125 16.609375 57.234375 
Q 21.578125 67.96875 30.953125 67.96875 
Q 36.71875 67.96875 40.046875 64.75 
Q 42.875 62.015625 43.65625 57.234375 
Q 44.234375 54.296875 47.171875 54.78125 
Q 50.203125 55.375 49.90625 58.109375 
Q 48.921875 65.921875 43.359375 69.921875 
Q 38.484375 73.4375 31.0625 73.4375 
z
" id="UNAVAILABLE-54"/>
      </defs>
      <g transform="translate(232.327273 253.854375)scale(0.1 -0.1)">
       <use xlink:href="#UNAVAILABLE-50"/>
       <use x="57.421875" xlink:href="#UNAVAILABLE-48"/>
       <use x="114.84375" xlink:href="#UNAVAILABLE-49"/>
       <use x="172.265625" xlink:href="#UNAVAILABLE-54"/>
      </g>
     </g>
    </g>
    <g id="xtick_6">
     <g id="line2d_6">
      <g>
       <use style="stroke:#000000;stroke-width:0.8;" x="294.53892" xlink:href="#m86ded17413" y="239.510625"/>
      </g>
     </g>
     <g id="text_6">
      <!-- 2018 -->
      <g transform="translate(283.054545 253.854375)scale(0.1 -0.1)">
       <use xlink:href="#UNAVAILABLE-50"/>
       <use x="57.421875" xlink:href="#UNAVAILABLE-48"/>
       <use x="114.84375" xlink:href="#UNAVAILABLE-49"/>
       <use x="172.265625" xlink:href="#UNAVAILABLE-56"/>
      </g>
     </g>
    </g>
    <g id="xtick_7">
     <g id="line2d_7">
      <g>
       <use style="stroke:#000000;stroke-width:0.8;" x="345.266193" xlink:href="#m86ded17413" y="239.510625"/>
      </g>
     </g>
     <g id="text_7">
      <!-- 2020 -->
      <g transform="translate(333.781818 253.854375)scale(0.1 -0.1)">
       <use xlink:href="#UNAVAILABLE-50"/>
       <use x="57.421875" xlink:href="#UNAVAILABLE-48"/>
       <use x="114.84375" xlink:href="#UNAVAILABLE-50"/>
       <use x="172.265625" xlink:href="#UNAVAILABLE-48"/>
      </g>
     </g>
    </g>
    <g id="text_8">
     <!-- year -->
     <defs>
      <path d="M 2.4375 49.8125 
L 20.703125 3.71875 
L 17.28125 -3.515625 
Q 15.921875 -6.453125 14.84375 -7.515625 
Q 13.578125 -8.796875 11.421875 -8.796875 
L 7.03125 -8.796875 
Q 5.5625 -8.796875 4.78125 -9.578125 
Q 4.109375 -10.359375 4.109375 -11.421875 
Q 4.109375 -12.5 4.78125 -13.28125 
Q 5.5625 -14.15625 7.03125 -14.15625 
L 11.421875 -14.15625 
Q 15.4375 -14.15625 18.453125 -11.71875 
Q 21.578125 -9.28125 23.828125 -4.296875 
L 45.90625 50.484375 
Q 46.390625 51.65625 45.703125 52.640625 
Q 45.015625 53.515625 43.75 53.8125 
Q 42.484375 54.109375 41.40625 53.71875 
Q 40.046875 53.328125 39.65625 52.046875 
L 24.03125 11.625 
L 8.203125 52.34375 
Q 7.71875 53.609375 6.546875 53.90625 
Q 5.375 54.203125 4.203125 53.609375 
Q 3.03125 53.125 2.4375 52.15625 
Q 1.859375 51.078125 2.4375 49.8125 
z
" id="UNAVAILABLE-121"/>
      <path d="M 43.265625 14.75 
Q 40.921875 9.671875 37.890625 7.125 
Q 33.984375 3.71875 28.125 3.71875 
Q 20.703125 3.71875 16.3125 10.453125 
Q 12.5 16.109375 12.109375 24.421875 
L 50.484375 24.421875 
L 50.484375 25.984375 
Q 50.484375 37.40625 44.828125 45.3125 
Q 38.578125 53.90625 28.125 53.90625 
Q 17.671875 53.90625 11.53125 45.3125 
Q 5.953125 37.40625 5.953125 25.984375 
Q 5.953125 14.65625 11.53125 6.84375 
Q 17.671875 -1.765625 28.125 -1.765625 
Q 35.546875 -1.765625 41.015625 2.046875 
Q 46.390625 5.671875 49.21875 12.5 
Q 49.8125 13.96875 49.21875 15.234375 
Q 48.734375 16.3125 47.5625 16.703125 
Q 46.296875 17.1875 45.125 16.796875 
Q 43.84375 16.21875 43.265625 14.75 
z
M 12.3125 29.890625 
Q 12.890625 37.015625 16.5 42.1875 
Q 20.90625 48.53125 28.125 48.53125 
Q 35.359375 48.53125 39.84375 42.09375 
Q 43.453125 36.8125 44.046875 29.890625 
z
" id="UNAVAILABLE-101"/>
      <path d="M 41.609375 12.5 
Q 39.359375 8.5 35.0625 6.25 
Q 30.28125 3.71875 23.53125 3.71875 
Q 17.578125 3.71875 14.75 6.25 
Q 12.015625 8.59375 12.015625 13.375 
Q 12.015625 18.359375 14.9375 20.90625 
Q 17.96875 23.640625 25.296875 24.609375 
Q 32.625 25.59375 36.8125 26.859375 
Q 40.234375 27.9375 41.609375 29.109375 
z
M 28.21875 53.90625 
Q 20.015625 53.90625 15.046875 50.296875 
Q 9.96875 46.484375 8.796875 38.96875 
Q 8.5 37.5 9.375 36.625 
Q 10.15625 35.75 11.328125 35.640625 
Q 12.59375 35.546875 13.484375 36.234375 
Q 14.546875 36.921875 14.75 38.1875 
Q 15.234375 43.0625 18.171875 45.609375 
Q 21.484375 48.53125 28.125 48.53125 
Q 34.96875 48.53125 38.375 46 
Q 41.609375 43.5625 41.609375 38.765625 
Q 41.609375 34.578125 38.671875 33.015625 
Q 35.640625 31.34375 25.203125 29.890625 
Q 13.375 28.421875 8.890625 23.34375 
Q 5.859375 19.828125 5.859375 13.375 
Q 5.859375 6.25 10.25 2.34375 
Q 14.75 -1.765625 23.53125 -1.765625 
Q 29.984375 -1.765625 35.0625 0.484375 
Q 38.765625 2.15625 41.703125 4.984375 
Q 41.703125 1.953125 43.453125 0.6875 
Q 45.609375 -0.6875 51.171875 -0.6875 
Q 52.546875 -0.6875 53.328125 0.203125 
Q 54 0.984375 54 2.046875 
Q 53.90625 3.21875 53.21875 4 
Q 52.4375 4.78125 51.265625 4.78125 
Q 49.515625 4.78125 48.53125 5.765625 
Q 47.65625 6.640625 47.65625 8.296875 
L 47.65625 39.265625 
Q 47.65625 46.96875 42 50.6875 
Q 37.015625 53.90625 28.21875 53.90625 
z
" id="UNAVAILABLE-97"/>
      <path d="M 8.5 50.390625 
L 8.5 1.46875 
Q 8.5 0 9.375 -0.875 
Q 10.25 -1.65625 11.53125 -1.65625 
Q 12.703125 -1.65625 13.578125 -0.875 
Q 14.546875 0 14.546875 1.46875 
L 14.546875 39.546875 
Q 16.3125 43.359375 19.625 45.515625 
Q 23.34375 47.953125 28.125 47.953125 
Q 30.5625 47.953125 30.46875 50.984375 
Q 30.375 53.90625 28.21875 53.90625 
Q 23.53125 53.90625 19.828125 51.5625 
Q 17 49.8125 14.546875 46.390625 
L 14.546875 50.390625 
Q 14.546875 51.765625 13.578125 52.546875 
Q 12.703125 53.125 11.53125 53.125 
Q 10.25 53.125 9.375 52.4375 
Q 8.5 51.65625 8.5 50.390625 
z
" id="UNAVAILABLE-114"/>
     </defs>
     <g transform="translate(183.270312 266.624688)scale(0.1 -0.1)">
      <use xlink:href="#UNAVAILABLE-121"/>
      <use x="50" xlink:href="#UNAVAILABLE-101"/>
      <use x="106.738281" xlink:href="#UNAVAILABLE-97"/>
      <use x="162.988281" xlink:href="#UNAVAILABLE-114"/>
     </g>
    </g>
   </g>
   <g id="matplotlib.axis_2">
    <g id="ytick_1">
     <g id="line2d_8">
      <defs>
       <path d="M 0 0 
L -3.5 0 
" id="m042e8507a3" style="stroke:#000000;stroke-width:0.8;"/>
      </defs>
      <g>
       <use style="stroke:#000000;stroke-width:0.8;" x="25.684375" xlink:href="#m042e8507a3" y="222.024191"/>
      </g>
     </g>
     <g id="text_9">
      <!-- 65 -->
      <defs>
       <path d="M 44.828125 71.78125 
L 13.671875 71.78125 
L 8.59375 37.3125 
Q 8.015625 34.28125 10.359375 33.203125 
Q 12.703125 32.234375 14.65625 35.0625 
Q 16.609375 38.09375 19.734375 39.84375 
Q 23.53125 41.890625 28.125 41.890625 
Q 36.140625 41.890625 40.921875 36.03125 
Q 45.21875 30.671875 45.21875 22.75 
Q 45.21875 15.046875 40.625 9.578125 
Q 35.640625 3.71875 27.546875 3.71875 
Q 21 3.71875 16.890625 6.546875 
Q 12.984375 9.28125 12.015625 13.765625 
Q 11.625 15.328125 10.453125 15.921875 
Q 9.375 16.5 8.203125 16.21875 
Q 6.9375 15.921875 6.25 14.84375 
Q 5.5625 13.765625 5.953125 12.3125 
Q 7.328125 5.953125 13.1875 2.046875 
Q 19.046875 -1.765625 27.15625 -1.765625 
Q 39.546875 -1.765625 45.90625 5.859375 
Q 51.375 12.40625 51.375 22.75 
Q 51.375 32.90625 45.796875 39.75 
Q 39.75 47.359375 29.296875 47.359375 
Q 24.90625 47.359375 21.1875 46 
Q 17.671875 44.734375 15.046875 42.09375 
L 18.75 66.3125 
L 44.828125 66.3125 
Q 46.296875 66.3125 47.265625 67.1875 
Q 48.046875 67.96875 48.046875 69.046875 
Q 48.046875 70.21875 47.171875 71 
Q 46.296875 71.78125 44.828125 71.78125 
z
" id="UNAVAILABLE-53"/>
      </defs>
      <g transform="translate(7.2 225.696066)scale(0.1 -0.1)">
       <use xlink:href="#UNAVAILABLE-54"/>
       <use x="57.421875" xlink:href="#UNAVAILABLE-53"/>
      </g>
     </g>
    </g>
    <g id="ytick_2">
     <g id="line2d_9">
      <g>
       <use style="stroke:#000000;stroke-width:0.8;" x="25.684375" xlink:href="#m042e8507a3" y="184.010205"/>
      </g>
     </g>
     <g id="text_10">
      <!-- 70 -->
      <defs>
       <path d="M 9.671875 66.40625 
L 44.34375 66.40625 
Q 33.890625 53.515625 25.59375 32.90625 
Q 18.453125 15.046875 16.796875 2.34375 
Q 16.5 0.59375 17.390625 -0.59375 
Q 18.265625 -1.65625 19.625 -1.765625 
Q 21 -1.859375 22.078125 -0.984375 
Q 23.25 0.09375 23.53125 1.953125 
Q 26.078125 22.46875 36.140625 42.578125 
Q 43.65625 57.8125 51.171875 65.625 
Q 53.03125 67.671875 52.046875 69.734375 
Q 51.078125 71.78125 48.4375 71.78125 
L 9.671875 71.78125 
Q 6.9375 71.78125 6.9375 69.140625 
Q 6.9375 66.40625 9.671875 66.40625 
z
" id="UNAVAILABLE-55"/>
      </defs>
      <g transform="translate(7.2 187.68208)scale(0.1 -0.1)">
       <use xlink:href="#UNAVAILABLE-55"/>
       <use x="57.421875" xlink:href="#UNAVAILABLE-48"/>
      </g>
     </g>
    </g>
    <g id="ytick_3">
     <g id="line2d_10">
      <g>
       <use style="stroke:#000000;stroke-width:0.8;" x="25.684375" xlink:href="#m042e8507a3" y="145.996219"/>
      </g>
     </g>
     <g id="text_11">
      <!-- 75 -->
      <g transform="translate(7.2 149.668094)scale(0.1 -0.1)">
       <use xlink:href="#UNAVAILABLE-55"/>
       <use x="57.421875" xlink:href="#UNAVAILABLE-53"/>
      </g>
     </g>
    </g>
    <g id="ytick_4">
     <g id="line2d_11">
      <g>
       <use style="stroke:#000000;stroke-width:0.8;" x="25.684375" xlink:href="#m042e8507a3" y="107.982233"/>
      </g>
     </g>
     <g id="text_12">
      <!-- 80 -->
      <g transform="translate(7.2 111.654108)scale(0.1 -0.1)">
       <use xlink:href="#UNAVAILABLE-56"/>
       <use x="57.421875" xlink:href="#UNAVAILABLE-48"/>
      </g>
     </g>
    </g>
    <g id="ytick_5">
     <g id="line2d_12">
      <g>
       <use style="stroke:#000000;stroke-width:0.8;" x="25.684375" xlink:href="#m042e8507a3" y="69.968247"/>
      </g>
     </g>
     <g id="text_13">
      <!-- 85 -->
      <g transform="translate(7.2 73.640122)scale(0.1 -0.1)">
       <use xlink:href="#UNAVAILABLE-56"/>
       <use x="57.421875" xlink:href="#UNAVAILABLE-53"/>
      </g>
     </g>
    </g>
    <g id="ytick_6">
     <g id="line2d_13">
      <g>
       <use style="stroke:#000000;stroke-width:0.8;" x="25.684375" xlink:href="#m042e8507a3" y="31.954261"/>
      </g>
     </g>
     <g id="text_14">
      <!-- 90 -->
      <defs>
       <path d="M 45.40625 48.640625 
Q 45.40625 41.21875 40.53125 36.234375 
Q 35.640625 31.15625 28.328125 31.15625 
Q 20.125 31.15625 15.828125 36.625 
Q 12.203125 41.21875 12.203125 48.53125 
Q 12.203125 57.515625 16.703125 62.796875 
Q 21.09375 67.96875 28.609375 67.96875 
Q 36.625 67.96875 41.21875 62.203125 
Q 45.40625 56.9375 45.40625 48.640625 
z
M 26.46875 -1.765625 
Q 40.046875 -1.765625 45.796875 8.59375 
Q 51.46875 18.75 51.46875 42.578125 
Q 51.46875 60.453125 44.046875 67.96875 
Q 38.671875 73.4375 29.5 73.4375 
Q 18.359375 73.4375 12.3125 67 
Q 6.0625 60.359375 6.0625 47.859375 
Q 6.0625 36.328125 13.1875 30.46875 
Q 18.84375 25.78125 26.765625 25.78125 
Q 33.6875 25.78125 38.875 28.71875 
Q 42.96875 31.0625 45.40625 34.765625 
Q 44.734375 19.140625 40.921875 12.015625 
Q 36.53125 3.71875 26.65625 3.71875 
Q 20.796875 3.71875 17.484375 7.03125 
Q 14.65625 9.765625 13.96875 14.453125 
Q 13.28125 17.484375 10.359375 17 
Q 7.328125 16.40625 7.71875 13.578125 
Q 8.5 5.859375 14.0625 1.859375 
Q 18.953125 -1.765625 26.46875 -1.765625 
z
" id="UNAVAILABLE-57"/>
      </defs>
      <g transform="translate(7.2 35.626136)scale(0.1 -0.1)">
       <use xlink:href="#UNAVAILABLE-57"/>
       <use x="57.421875" xlink:href="#UNAVAILABLE-48"/>
      </g>
     </g>
    </g>
   </g>
   <g id="line2d_14">
    <path clip-path="url(#pddadf3d0c9)" d="M 40.902557 145.996219 
L 66.266193 145.996219 
L 91.62983 130.790625 
L 116.993466 123.187828 
L 142.357102 130.790625 
L 167.720739 145.996219 
L 193.084375 176.407408 
L 218.448011 168.804611 
L 243.811648 168.804611 
L 269.175284 176.407408 
L 294.53892 191.613003 
L 319.902557 199.2158 
L 345.266193 206.818597 
" style="fill:none;stroke:#1f77b4;stroke-linecap:square;stroke-width:1.5;"/>
   </g>
   <g id="line2d_15">
    <path clip-path="url(#pddadf3d0c9)" d="M 40.902557 31.954261 
L 66.266193 54.762653 
L 91.62983 62.36545 
L 116.993466 92.776639 
L 142.357102 100.379436 
L 167.720739 107.982233 
L 193.084375 161.201814 
L 218.448011 153.599017 
L 243.811648 161.201814 
L 269.175284 168.804611 
L 294.53892 191.613003 
L 319.902557 222.024191 
L 345.266193 229.626989 
" style="fill:none;stroke:#ff7f0e;stroke-linecap:square;stroke-width:1.5;"/>
   </g>
   <g id="patch_3">
    <path d="M 25.684375 239.510625 
L 25.684375 22.070625 
" style="fill:none;stroke:#000000;stroke-linecap:square;stroke-linejoin:miter;stroke-width:0.8;"/>
   </g>
   <g id="patch_4">
    <path d="M 360.484375 239.510625 
L 360.484375 22.070625 
" style="fill:none;stroke:#000000;stroke-linecap:square;stroke-linejoin:miter;stroke-width:0.8;"/>
   </g>
   <g id="patch_5">
    <path d="M 25.684375 239.510625 
L 360.484375 239.510625 
" style="fill:none;stroke:#000000;stroke-linecap:square;stroke-linejoin:miter;stroke-width:0.8;"/>
   </g>
   <g id="patch_6">
    <path d="M 25.684375 22.070625 
L 360.484375 22.070625 
" style="fill:none;stroke:#000000;stroke-linecap:square;stroke-linejoin:miter;stroke-width:0.8;"/>
   </g>
   <g id="text_15">
    <!-- Number of popular names in top 50% -->
    <defs>
     <path d="M 9.375 69.53125 
L 9.375 1.65625 
Q 9.375 0.09375 10.25 -0.875 
Q 11.140625 -1.765625 12.40625 -1.859375 
Q 13.671875 -1.859375 14.546875 -0.984375 
Q 15.53125 0 15.53125 1.65625 
L 15.53125 62.3125 
L 48.640625 7.71875 
L 54.109375 -0.296875 
Q 55.28125 -2.34375 57.90625 -1.5625 
Q 60.546875 -0.875 60.546875 2.4375 
L 60.546875 70.796875 
Q 60.546875 72.078125 59.578125 72.75 
Q 58.6875 73.4375 57.421875 73.4375 
Q 56.15625 73.4375 55.28125 72.859375 
Q 54.390625 72.078125 54.390625 70.796875 
L 54.390625 9.46875 
L 20.125 66.5 
L 16.796875 71.390625 
Q 15.234375 73.828125 12.3125 73.4375 
Q 9.375 72.953125 9.375 69.53125 
z
" id="UNAVAILABLE-78"/>
     <path d="M 48.4375 2.15625 
L 48.4375 50.984375 
Q 48.4375 52.640625 47.46875 53.515625 
Q 46.578125 54.390625 45.3125 54.390625 
Q 44.046875 54.390625 43.171875 53.515625 
Q 42.28125 52.640625 42.28125 50.984375 
L 42.28125 13.96875 
Q 38.671875 9.078125 34.375 6.546875 
Q 29.890625 3.71875 24.90625 3.71875 
Q 20.015625 3.71875 17.1875 6.84375 
Q 14.546875 9.671875 14.546875 13.671875 
L 14.546875 50.984375 
Q 14.546875 52.640625 13.578125 53.515625 
Q 12.703125 54.390625 11.53125 54.390625 
Q 10.25 54.390625 9.375 53.515625 
Q 8.5 52.640625 8.5 50.984375 
L 8.5 13.671875 
Q 8.5 7.515625 12.59375 3.125 
Q 17.1875 -1.765625 24.90625 -1.765625 
Q 30.46875 -1.765625 35.15625 0.78125 
Q 39.15625 2.828125 42.28125 6.453125 
L 42.28125 2.15625 
Q 42.28125 0.78125 43.171875 -0.09375 
Q 44.046875 -0.875 45.3125 -0.875 
Q 46.578125 -0.875 47.46875 -0.09375 
Q 48.4375 0.78125 48.4375 2.15625 
z
" id="UNAVAILABLE-117"/>
     <path d="M 8.5 49.8125 
L 8.5 1.265625 
Q 8.5 -0.09375 9.375 -0.984375 
Q 10.25 -1.765625 11.53125 -1.765625 
Q 12.703125 -1.765625 13.578125 -0.984375 
Q 14.546875 -0.09375 14.546875 1.265625 
L 14.546875 39.15625 
Q 17.78125 44.234375 21.390625 46.390625 
Q 25 48.53125 30.171875 48.53125 
Q 34.859375 48.53125 37.59375 45.796875 
Q 40.046875 43.265625 40.046875 39.0625 
L 40.046875 1.265625 
Q 40.046875 -0.09375 40.921875 -0.984375 
Q 41.796875 -1.765625 43.0625 -1.765625 
Q 44.234375 -1.765625 45.125 -0.984375 
Q 46.09375 -0.09375 46.09375 1.265625 
L 46.09375 38.28125 
Q 48.921875 43.75 52.4375 46.09375 
Q 55.953125 48.53125 61.53125 48.53125 
Q 66.40625 48.53125 69.046875 45.796875 
Q 71.484375 43.265625 71.484375 39.0625 
L 71.484375 1.265625 
Q 71.484375 -0.09375 72.359375 -0.984375 
Q 73.25 -1.765625 74.515625 -1.765625 
Q 75.6875 -1.765625 76.5625 -0.984375 
Q 77.546875 -0.09375 77.546875 1.265625 
L 77.546875 40.046875 
Q 77.546875 45.3125 73.53125 49.3125 
Q 68.953125 53.90625 61.328125 53.90625 
Q 55.765625 53.90625 51.265625 51.375 
Q 47.171875 49.125 44.625 45.125 
Q 42.875 48.828125 40.046875 50.984375 
Q 36.03125 53.90625 29.984375 53.90625 
Q 25.203125 53.90625 20.609375 51.375 
Q 16.890625 49.3125 14.546875 46.1875 
L 14.546875 49.8125 
Q 14.546875 51.46875 13.578125 52.34375 
Q 12.703125 53.21875 11.53125 53.21875 
Q 10.25 53.21875 9.375 52.34375 
Q 8.5 51.46875 8.5 49.8125 
z
" id="UNAVAILABLE-109"/>
     <path d="M 8.5 70.21875 
L 8.5 2.4375 
Q 8.5 0.875 9.46875 0 
Q 10.25 -0.6875 11.53125 -0.6875 
Q 12.703125 -0.59375 13.578125 0.203125 
Q 14.546875 1.078125 14.546875 2.4375 
L 14.546875 6.546875 
Q 16.609375 3.125 20.796875 0.875 
Q 25.59375 -1.765625 31.84375 -1.765625 
Q 42.671875 -1.765625 48.921875 6.84375 
Q 54.5 14.546875 54.5 25.984375 
Q 54.5 37.59375 48.921875 45.3125 
Q 42.671875 53.90625 31.84375 53.90625 
Q 25.984375 53.90625 21.6875 51.765625 
Q 17.484375 49.609375 14.546875 45.015625 
L 14.546875 70.40625 
Q 14.546875 71.875 13.578125 72.75 
Q 12.703125 73.4375 11.53125 73.4375 
Q 10.25 73.4375 9.375 72.65625 
Q 8.5 71.78125 8.5 70.21875 
z
M 31.84375 48.53125 
Q 39.75 48.53125 44.34375 41.609375 
Q 48.34375 35.453125 48.34375 26.078125 
Q 48.34375 16.796875 44.34375 10.640625 
Q 39.84375 3.71875 31.84375 3.71875 
Q 23.25 3.71875 18.65625 10.640625 
Q 14.546875 16.703125 14.546875 26.078125 
Q 14.546875 35.546875 18.65625 41.609375 
Q 23.25 48.53125 31.84375 48.53125 
z
" id="UNAVAILABLE-98"/>
     <path id="UNAVAILABLE-32"/>
     <path d="M 30.171875 53.71875 
Q 18.5625 53.71875 12.015625 45.125 
Q 6.25 37.5 6.25 25.875 
Q 6.25 14.359375 12.015625 6.734375 
Q 18.5625 -1.953125 30.171875 -1.953125 
Q 41.703125 -1.953125 48.25 6.734375 
Q 54.109375 14.359375 54.109375 25.875 
Q 54.109375 37.5 48.25 45.125 
Q 41.703125 53.71875 30.171875 53.71875 
z
M 30.171875 48.34375 
Q 38.765625 48.34375 43.5625 41.40625 
Q 47.953125 35.25 47.953125 25.875 
Q 47.953125 16.703125 43.5625 10.453125 
Q 38.765625 3.515625 30.171875 3.515625 
Q 21.484375 3.515625 16.609375 10.453125 
Q 12.40625 16.609375 12.40625 25.875 
Q 12.40625 35.25 16.609375 41.40625 
Q 21.484375 48.34375 30.171875 48.34375 
z
" id="UNAVAILABLE-111"/>
     <path d="M 13.28125 52.25 
L 8.40625 52.25 
Q 6.9375 52.25 6.0625 51.46875 
Q 5.28125 50.6875 5.28125 49.609375 
Q 5.28125 48.53125 6.0625 47.75 
Q 6.9375 46.875 8.40625 46.875 
L 13.28125 46.875 
L 13.28125 1.5625 
Q 13.28125 0 14.15625 -0.984375 
Q 15.046875 -1.765625 16.3125 -1.765625 
Q 17.484375 -1.765625 18.359375 -0.875 
Q 19.34375 0.09375 19.34375 1.5625 
L 19.34375 46.875 
L 26.46875 46.875 
Q 27.9375 46.875 28.8125 47.75 
Q 29.59375 48.53125 29.59375 49.609375 
Q 29.59375 50.6875 28.8125 51.46875 
Q 27.9375 52.25 26.46875 52.25 
L 19.34375 52.25 
L 19.34375 63.578125 
Q 19.34375 65.4375 20.3125 66.609375 
Q 21.484375 67.96875 23.640625 67.96875 
L 26.46875 67.96875 
Q 27.9375 67.96875 28.8125 68.84375 
Q 29.59375 69.625 29.59375 70.703125 
Q 29.59375 71.875 28.8125 72.65625 
Q 27.9375 73.4375 26.46875 73.4375 
L 22.5625 73.4375 
Q 18.0625 73.4375 15.53125 70.515625 
Q 13.28125 67.875 13.28125 63.96875 
z
" id="UNAVAILABLE-102"/>
     <path d="M 8.5 -10.546875 
Q 8.5 -12.203125 9.375 -13.28125 
Q 10.25 -14.15625 11.53125 -14.15625 
Q 12.703125 -14.265625 13.578125 -13.375 
Q 14.546875 -12.40625 14.546875 -10.84375 
L 14.546875 6.546875 
Q 16.609375 3.125 20.703125 0.875 
Q 25.484375 -1.765625 31.546875 -1.765625 
Q 42.671875 -1.765625 48.921875 6.9375 
Q 54.59375 14.65625 54.59375 26.171875 
Q 54.59375 37.703125 48.921875 45.3125 
Q 42.671875 53.90625 31.546875 53.90625 
Q 25.875 53.90625 21.6875 51.765625 
Q 17.484375 49.515625 14.546875 45.015625 
L 14.546875 49.8125 
Q 14.546875 51.265625 13.578125 52.15625 
Q 12.703125 52.9375 11.53125 52.9375 
Q 10.25 52.9375 9.375 52.15625 
Q 8.5 51.265625 8.5 49.8125 
z
M 31.546875 48.53125 
Q 39.75 48.53125 44.34375 41.609375 
Q 48.4375 35.453125 48.4375 26.078125 
Q 48.4375 16.796875 44.34375 10.640625 
Q 39.75 3.71875 31.546875 3.71875 
Q 23.140625 3.71875 18.5625 10.640625 
Q 14.546875 16.796875 14.546875 26.078125 
Q 14.546875 35.453125 18.5625 41.609375 
Q 23.140625 48.53125 31.546875 48.53125 
z
" id="UNAVAILABLE-112"/>
     <path d="M 8.5 70.609375 
L 8.5 1.265625 
Q 8.5 -0.09375 9.375 -0.984375 
Q 10.25 -1.765625 11.53125 -1.765625 
Q 12.703125 -1.765625 13.578125 -0.984375 
Q 14.546875 -0.203125 14.546875 1.171875 
L 14.546875 70.515625 
Q 14.546875 71.96875 13.578125 72.75 
Q 12.703125 73.4375 11.53125 73.4375 
Q 10.25 73.4375 9.375 72.75 
Q 8.5 71.96875 8.5 70.609375 
z
" id="UNAVAILABLE-108"/>
     <path d="M 8.5 50 
L 8.5 1.46875 
Q 8.5 -0.09375 9.375 -0.984375 
Q 10.25 -1.859375 11.53125 -1.859375 
Q 12.703125 -1.765625 13.578125 -0.984375 
Q 14.546875 0 14.546875 1.5625 
L 14.546875 36.328125 
Q 17.96875 42.578125 22.5625 45.609375 
Q 26.953125 48.53125 32.515625 48.53125 
Q 37.59375 48.53125 40.625 45.40625 
Q 43.359375 42.671875 43.359375 38.484375 
L 43.359375 1.46875 
Q 43.359375 0 44.234375 -0.984375 
Q 45.125 -1.765625 46.390625 -1.765625 
Q 47.5625 -1.765625 48.4375 -0.984375 
Q 49.421875 0 49.421875 1.46875 
L 49.421875 38.484375 
Q 49.421875 44.828125 45.125 49.125 
Q 40.4375 53.90625 32.515625 53.90625 
Q 26.375 53.90625 21.78125 51.265625 
Q 17.390625 48.734375 14.546875 43.953125 
L 14.546875 50 
Q 14.546875 51.46875 13.578125 52.34375 
Q 12.703125 53.125 11.53125 53.125 
Q 10.25 53.125 9.375 52.34375 
Q 8.5 51.46875 8.5 50 
z
" id="UNAVAILABLE-110"/>
     <path d="M 24.90625 53.90625 
Q 17 53.90625 12.109375 50.390625 
Q 6.9375 46.6875 6.9375 40.140625 
Q 6.9375 34.078125 11.234375 30.46875 
Q 15.140625 27.046875 23.828125 24.8125 
Q 33.40625 22.46875 36.921875 19.625 
Q 39.84375 17.390625 39.84375 13.375 
Q 39.84375 9.078125 36.421875 6.546875 
Q 32.8125 3.71875 26.46875 3.71875 
Q 18.84375 3.71875 15.4375 6.546875 
Q 12.203125 9.1875 12.203125 14.265625 
Q 12.109375 15.625 11.140625 16.3125 
Q 10.25 17 8.984375 16.890625 
Q 7.71875 16.890625 6.9375 16.109375 
Q 5.953125 15.234375 6.0625 13.875 
Q 6.34375 6.25 11.53125 2.25 
Q 16.703125 -1.765625 26.375 -1.765625 
Q 36.03125 -1.765625 41.21875 2.734375 
Q 46 6.734375 46 13.28125 
Q 46 19.828125 42 23.53125 
Q 37.796875 27.546875 27.546875 29.890625 
Q 19.140625 32.03125 16.015625 34.46875 
Q 13.09375 36.8125 13.09375 40.828125 
Q 13.09375 44.234375 16.40625 46.484375 
Q 19.734375 48.53125 24.703125 48.53125 
Q 31.25 48.53125 34.578125 46.09375 
Q 37.703125 43.84375 38.09375 39.546875 
Q 38.1875 38.1875 39.265625 37.40625 
Q 40.234375 36.71875 41.5 36.8125 
Q 42.875 37.015625 43.75 37.796875 
Q 44.734375 38.765625 44.625 40.140625 
Q 44.140625 46.09375 39.84375 49.703125 
Q 34.765625 53.90625 24.90625 53.90625 
z
" id="UNAVAILABLE-115"/>
     <path d="M 9.46875 51.171875 
L 9.46875 1.46875 
Q 9.46875 0 10.359375 -0.984375 
Q 11.234375 -1.765625 12.5 -1.765625 
Q 13.765625 -1.765625 14.65625 -0.875 
Q 15.625 0 15.625 1.46875 
L 15.625 51.171875 
Q 15.625 52.546875 14.65625 53.328125 
Q 13.765625 54 12.5 54 
Q 11.234375 54 10.359375 53.21875 
Q 9.46875 52.546875 9.46875 51.171875 
z
M 12.5 73.4375 
Q 10.15625 73.4375 8.890625 71.875 
Q 7.71875 70.40625 7.71875 68.265625 
Q 7.71875 66.21875 8.890625 64.84375 
Q 10.15625 63.28125 12.5 63.28125 
Q 14.75 63.28125 16.109375 64.84375 
Q 17.390625 66.3125 17.390625 68.265625 
Q 17.390625 70.40625 16.109375 71.875 
Q 14.75 73.4375 12.5 73.4375 
z
" id="UNAVAILABLE-105"/>
     <path d="M 11.140625 65.828125 
L 11.140625 52.25 
L 5.859375 52.25 
Q 3.609375 52.25 3.609375 49.609375 
Q 3.609375 46.875 5.859375 46.875 
L 11.140625 46.875 
L 11.140625 7.71875 
Q 11.140625 3.90625 13.484375 1.265625 
Q 16.015625 -1.765625 20.515625 -1.765625 
L 25.09375 -1.765625 
Q 26.46875 -1.765625 27.34375 -0.875 
Q 28.125 -0.09375 28.125 0.984375 
Q 28.125 2.15625 27.34375 2.9375 
Q 26.46875 3.71875 25.09375 3.71875 
L 21.578125 3.71875 
Q 19.4375 3.71875 18.265625 5.171875 
Q 17.28125 6.34375 17.28125 8.109375 
L 17.28125 46.875 
L 25.296875 46.875 
Q 27.828125 46.875 27.828125 49.609375 
Q 27.828125 52.25 25.296875 52.25 
L 17.28125 52.25 
L 17.28125 65.828125 
Q 17.28125 67.28125 16.3125 68.0625 
Q 15.4375 68.75 14.15625 68.75 
Q 12.890625 68.75 12.015625 68.0625 
Q 11.140625 67.28125 11.140625 65.828125 
z
" id="UNAVAILABLE-116"/>
     <path d="M 7.03125 53.328125 
Q 7.03125 60.359375 11.71875 65.140625 
Q 16.5 69.828125 23.53125 69.828125 
Q 30.46875 69.828125 35.25 65.140625 
Q 40.046875 60.359375 40.046875 53.328125 
Q 40.046875 46.390625 35.15625 41.609375 
Q 30.375 36.71875 23.53125 36.71875 
Q 16.609375 36.71875 11.8125 41.609375 
Q 7.03125 46.390625 7.03125 53.328125 
z
M 12.796875 53.21875 
Q 12.796875 48.828125 15.828125 45.703125 
Q 18.953125 42.484375 23.53125 42.484375 
Q 27.9375 42.484375 31.15625 45.703125 
Q 34.375 48.828125 34.375 53.21875 
Q 34.375 57.8125 31.15625 60.9375 
Q 28.03125 63.96875 23.53125 63.96875 
Q 18.84375 63.96875 15.828125 60.9375 
Q 12.796875 57.8125 12.796875 53.21875 
z
M 48.4375 18.5625 
Q 48.4375 25.59375 53.21875 30.28125 
Q 58.015625 34.96875 65.046875 34.96875 
Q 71.96875 34.96875 76.765625 30.28125 
Q 81.546875 25.59375 81.546875 18.5625 
Q 81.546875 11.625 76.765625 6.84375 
Q 71.96875 1.953125 65.046875 1.953125 
Q 58.109375 1.953125 53.21875 6.84375 
Q 48.4375 11.625 48.4375 18.5625 
z
M 54.296875 18.5625 
Q 54.296875 14.0625 57.421875 10.9375 
Q 60.546875 7.71875 65.046875 7.71875 
Q 69.53125 7.71875 72.65625 10.9375 
Q 75.78125 14.0625 75.78125 18.5625 
Q 75.78125 23.140625 72.65625 26.171875 
Q 69.53125 29.296875 65.046875 29.296875 
Q 60.453125 29.296875 57.328125 26.171875 
Q 54.296875 23.046875 54.296875 18.5625 
z
M 63.671875 71.78125 
L 20.21875 2.15625 
Q 18.75 0 20.609375 -1.171875 
Q 22.359375 -2.25 23.921875 -0.09375 
L 67.671875 69.921875 
Q 68.84375 71.96875 66.890625 72.953125 
Q 64.9375 73.921875 63.671875 71.78125 
z
" id="UNAVAILABLE-37"/>
    </defs>
    <g transform="translate(87.715 16.070625)scale(0.12 -0.12)">
     <use xlink:href="#UNAVAILABLE-78"/>
     <use x="69.921875" xlink:href="#UNAVAILABLE-117"/>
     <use x="126.953125" xlink:href="#UNAVAILABLE-109"/>
     <use x="213.085938" xlink:href="#UNAVAILABLE-98"/>
     <use x="273.632812" xlink:href="#UNAVAILABLE-101"/>
     <use x="330.371094" xlink:href="#UNAVAILABLE-114"/>
     <use x="363.671875" xlink:href="#UNAVAILABLE-32"/>
     <use x="396.972656" xlink:href="#UNAVAILABLE-111"/>
     <use x="457.519531" xlink:href="#UNAVAILABLE-102"/>
     <use x="491.699219" xlink:href="#UNAVAILABLE-32"/>
     <use x="525" xlink:href="#UNAVAILABLE-112"/>
     <use x="585.546875" xlink:href="#UNAVAILABLE-111"/>
     <use x="646.09375" xlink:href="#UNAVAILABLE-112"/>
     <use x="706.640625" xlink:href="#UNAVAILABLE-117"/>
     <use x="763.671875" xlink:href="#UNAVAILABLE-108"/>
     <use x="786.816406" xlink:href="#UNAVAILABLE-97"/>
     <use x="843.066406" xlink:href="#UNAVAILABLE-114"/>
     <use x="876.367188" xlink:href="#UNAVAILABLE-32"/>
     <use x="909.667969" xlink:href="#UNAVAILABLE-110"/>
     <use x="967.675781" xlink:href="#UNAVAILABLE-97"/>
     <use x="1023.925781" xlink:href="#UNAVAILABLE-109"/>
     <use x="1110.058594" xlink:href="#UNAVAILABLE-101"/>
     <use x="1166.796875" xlink:href="#UNAVAILABLE-115"/>
     <use x="1219.335938" xlink:href="#UNAVAILABLE-32"/>
     <use x="1252.636719" xlink:href="#UNAVAILABLE-105"/>
     <use x="1276.757812" xlink:href="#UNAVAILABLE-110"/>
     <use x="1334.765625" xlink:href="#UNAVAILABLE-32"/>
     <use x="1368.066406" xlink:href="#UNAVAILABLE-116"/>
     <use x="1399.414062" xlink:href="#UNAVAILABLE-111"/>
     <use x="1459.960938" xlink:href="#UNAVAILABLE-112"/>
     <use x="1520.507812" xlink:href="#UNAVAILABLE-32"/>
     <use x="1553.808594" xlink:href="#UNAVAILABLE-53"/>
     <use x="1611.230469" xlink:href="#UNAVAILABLE-48"/>
     <use x="1668.652344" xlink:href="#UNAVAILABLE-37"/>
    </g>
   </g>
   <g id="legend_1">
    <g id="patch_7">
     <path d="M 313.359375 71.381563 
L 353.484375 71.381563 
Q 355.484375 71.381563 355.484375 69.381563 
L 355.484375 29.070625 
Q 355.484375 27.070625 353.484375 27.070625 
L 313.359375 27.070625 
Q 311.359375 27.070625 311.359375 29.070625 
L 311.359375 69.381563 
Q 311.359375 71.381563 313.359375 71.381563 
z
" style="fill:#ffffff;opacity:0.8;stroke:#cccccc;stroke-linejoin:miter;"/>
    </g>
    <g id="text_16">
     <!-- gender -->
     <defs>
      <path d="M 45.703125 50.203125 
L 45.703125 45.015625 
Q 42.671875 49.515625 38.578125 51.765625 
Q 34.375 53.90625 28.8125 53.90625 
Q 17.671875 53.90625 11.328125 45.40625 
Q 5.765625 37.796875 5.765625 26.859375 
Q 5.765625 15.53125 11.328125 8.203125 
Q 17.578125 -0.09375 28.8125 -0.09375 
Q 34.765625 -0.09375 39.546875 2.546875 
Q 43.65625 4.890625 45.703125 8.296875 
L 45.703125 2.546875 
Q 45.703125 -2.046875 41.609375 -5.171875 
Q 37.109375 -8.6875 28.8125 -8.6875 
Q 22.171875 -8.6875 18.171875 -6.640625 
Q 14.453125 -4.78125 12.703125 -1.171875 
Q 12.015625 0 10.84375 0.203125 
Q 9.765625 0.484375 8.6875 -0.203125 
Q 7.515625 -0.78125 7.234375 -1.859375 
Q 6.734375 -3.03125 7.515625 -4.296875 
Q 10.15625 -9.1875 15.625 -11.625 
Q 20.90625 -14.0625 28.71875 -14.0625 
Q 39.84375 -14.0625 46.1875 -8.796875 
Q 51.859375 -4.203125 51.859375 2.640625 
L 51.859375 50.203125 
Q 51.859375 51.5625 50.875 52.34375 
Q 50 53.03125 48.734375 53.03125 
Q 47.46875 53.03125 46.578125 52.34375 
Q 45.703125 51.5625 45.703125 50.203125 
z
M 28.71875 48.53125 
Q 36.921875 48.53125 41.609375 41.703125 
Q 45.703125 35.640625 45.703125 26.953125 
Q 45.703125 17.78125 41.609375 11.921875 
Q 37.015625 5.375 28.71875 5.375 
Q 20.3125 5.375 15.828125 11.921875 
Q 11.8125 17.78125 11.8125 26.953125 
Q 11.8125 35.640625 15.828125 41.703125 
Q 20.515625 48.53125 28.71875 48.53125 
z
" id="UNAVAILABLE-103"/>
      <path d="M 52.25 70.015625 
Q 52.25 71.578125 51.265625 72.46875 
Q 50.390625 73.25 49.21875 73.25 
Q 47.953125 73.25 47.078125 72.5625 
Q 46.1875 71.6875 46.1875 70.21875 
L 46.1875 44.828125 
Q 43.171875 49.421875 38.96875 51.5625 
Q 34.859375 53.71875 29.296875 53.71875 
Q 18.0625 53.71875 11.8125 45.125 
Q 6.25 37.5 6.25 25.875 
Q 6.25 14.359375 11.8125 6.734375 
Q 18.0625 -1.953125 29.296875 -1.953125 
Q 35.15625 -1.953125 39.9375 0.6875 
Q 44.046875 3.03125 46.1875 6.453125 
L 46.1875 2.25 
Q 46.1875 0.875 47.078125 0 
Q 47.953125 -0.78125 49.125 -0.875 
Q 50.390625 -0.875 51.171875 -0.203125 
Q 52.15625 0.6875 52.25 2.25 
z
M 29.296875 48.34375 
Q 37.5 48.34375 42.09375 41.40625 
Q 46.1875 35.25 46.1875 25.875 
Q 46.1875 16.609375 42.09375 10.453125 
Q 37.5 3.515625 29.296875 3.515625 
Q 21 3.515625 16.40625 10.453125 
Q 12.40625 16.609375 12.40625 25.875 
Q 12.40625 35.25 16.40625 41.40625 
Q 21 48.34375 29.296875 48.34375 
z
" id="UNAVAILABLE-100"/>
     </defs>
     <g transform="translate(317.128125 38.414375)scale(0.1 -0.1)">
      <use xlink:href="#UNAVAILABLE-103"/>
      <use x="60.546875" xlink:href="#UNAVAILABLE-101"/>
      <use x="117.285156" xlink:href="#UNAVAILABLE-110"/>
      <use x="175.292969" xlink:href="#UNAVAILABLE-100"/>
      <use x="235.839844" xlink:href="#UNAVAILABLE-101"/>
      <use x="292.578125" xlink:href="#UNAVAILABLE-114"/>
     </g>
    </g>
    <g id="line2d_16">
     <path d="M 315.359375 48.684688 
L 335.359375 48.684688 
" style="fill:none;stroke:#1f77b4;stroke-linecap:square;stroke-width:1.5;"/>
    </g>
    <g id="line2d_17"/>
    <g id="text_17">
     <!-- F -->
     <defs>
      <path d="M 18.65625 71.78125 
Q 14.15625 71.78125 11.625 68.84375 
Q 9.375 66.21875 9.375 62.3125 
L 9.375 1.375 
Q 9.375 -0.09375 10.25 -0.984375 
Q 11.140625 -1.765625 12.40625 -1.765625 
Q 13.578125 -1.765625 14.453125 -0.984375 
Q 15.4375 -0.09375 15.4375 1.375 
L 15.4375 34.28125 
L 48.921875 34.28125 
Q 50.390625 34.28125 51.265625 35.15625 
Q 52.046875 35.9375 52.046875 37.015625 
Q 52.046875 38.09375 51.265625 38.875 
Q 50.390625 39.65625 48.921875 39.65625 
L 15.4375 39.65625 
L 15.4375 61.921875 
Q 15.4375 63.765625 16.40625 64.9375 
Q 17.578125 66.3125 19.734375 66.3125 
L 52.640625 66.3125 
Q 54.109375 66.3125 54.984375 67.1875 
Q 55.765625 67.96875 55.765625 69.046875 
Q 55.765625 70.21875 54.984375 71 
Q 54.109375 71.78125 52.640625 71.78125 
z
" id="UNAVAILABLE-70"/>
     </defs>
     <g transform="translate(343.359375 52.184688)scale(0.1 -0.1)">
      <use xlink:href="#UNAVAILABLE-70"/>
     </g>
    </g>
    <g id="line2d_18">
     <path d="M 315.359375 62.455 
L 335.359375 62.455 
" style="fill:none;stroke:#ff7f0e;stroke-linecap:square;stroke-width:1.5;"/>
    </g>
    <g id="line2d_19"/>
    <g id="text_18">
     <!-- M -->
     <defs>
      <path d="M 9.375 68.65625 
L 9.375 1.375 
Q 9.375 -0.09375 10.25 -0.984375 
Q 11.140625 -1.765625 12.40625 -1.765625 
Q 13.578125 -1.765625 14.453125 -0.984375 
Q 15.4375 -0.09375 15.4375 1.375 
L 15.4375 63.375 
L 36.234375 1.859375 
Q 37.796875 -1.765625 40.53125 -1.765625 
Q 43.359375 -1.765625 44.921875 1.859375 
L 65.71875 63.375 
L 65.71875 1.375 
Q 65.71875 -0.09375 66.609375 -0.984375 
Q 67.484375 -1.765625 68.75 -1.765625 
Q 70.015625 -1.765625 70.90625 -0.984375 
Q 71.875 -0.09375 71.875 1.375 
L 71.875 68.65625 
Q 71.875 70.796875 70.515625 72.078125 
Q 69.34375 73.25 67.578125 73.34375 
Q 65.828125 73.53125 64.265625 72.65625 
Q 62.703125 71.578125 62.109375 69.734375 
L 60.15625 63.96875 
L 40.625 7.234375 
L 21.296875 63.765625 
L 19.140625 70.015625 
Q 18.5625 71.6875 17 72.65625 
Q 15.53125 73.53125 13.671875 73.4375 
Q 11.8125 73.25 10.640625 72.078125 
Q 9.375 70.796875 9.375 68.65625 
z
" id="UNAVAILABLE-77"/>
     </defs>
     <g transform="translate(343.359375 65.955)scale(0.1 -0.1)">
      <use xlink:href="#UNAVAILABLE-77"/>
     </g>
    </g>
   </g>
  </g>
 </g>
 <defs>
  <clipPath id="pddadf3d0c9">
   <rect height="217.44" width="334.8" x="25.684375" y="22.070625"/>
  </clipPath>
 </defs>
</svg>
