<?xml version="1.0" encoding="utf-8" standalone="no"?>
<!DOCTYPE svg PUBLIC "-//W3C//DTD SVG 1.1//EN"
  "http://www.w3.org/Graphics/SVG/1.1/DTD/svg11.dtd">
<!-- Created with matplotlib (https://matplotlib.org/) -->
<svg height="275.204375pt" version="1.1" viewBox="0 0 376.767188 275.204375" width="376.767188pt" xmlns="http://www.w3.org/2000/svg" xmlns:xlink="http://www.w3.org/1999/xlink">
 <defs>
  <style type="text/css">
*{stroke-linecap:butt;stroke-linejoin:round;}
  </style>
 </defs>
 <g id="figure_1">
  <g id="patch_1">
   <path d="M 0 275.204375 
L 376.767188 275.204375 
L 376.767188 0 
L 0 0 
z
" style="fill:none;"/>
  </g>
  <g id="axes_1">
   <g id="patch_2">
    <path d="M 34.767188 239.46375 
L 369.567187 239.46375 
L 369.567187 22.02375 
L 34.767188 22.02375 
z
" style="fill:#ffffff;"/>
   </g>
   <g id="matplotlib.axis_1">
    <g id="xtick_1">
     <g id="line2d_1">
      <defs>
       <path d="M 0 0 
L 0 3.5 
" id="m3b8949bfe4" style="stroke:#000000;stroke-width:0.8;"/>
      </defs>
      <g>
       <use style="stroke:#000000;stroke-width:0.8;" x="49.985369" xlink:href="#m3b8949bfe4" y="239.46375"/>
      </g>
     </g>
     <g id="text_1">
      <!-- 2008 -->
      <defs>
       <path d="M 28.90625 73.4375 
Q 18.953125 73.4375 13.09375 67.28125 
Q 7.90625 61.8125 7.90625 53.8125 
L 7.90625 51.265625 
Q 7.90625 49.609375 8.796875 48.640625 
Q 9.671875 47.75 10.9375 47.75 
Q 12.203125 47.75 13.09375 48.640625 
Q 14.0625 49.515625 14.0625 50.984375 
L 14.0625 53.8125 
Q 14.0625 59.671875 17.78125 63.578125 
Q 21.875 67.96875 28.90625 67.96875 
Q 35.9375 67.96875 40.140625 63.578125 
Q 43.84375 59.671875 43.84375 53.8125 
Q 43.84375 46.6875 39.453125 41.703125 
Q 36.03125 37.984375 26.265625 31.9375 
Q 16.015625 25.78125 11.234375 18.5625 
Q 5.953125 10.640625 6.0625 -0.09375 
L 48.734375 -0.09375 
Q 50 -0.09375 50.78125 0.78125 
Q 51.5625 1.5625 51.5625 2.640625 
Q 51.5625 3.8125 50.78125 4.59375 
Q 50 5.375 48.734375 5.375 
L 12.5 5.375 
Q 13.1875 12.40625 16.5 16.890625 
Q 20.3125 22.171875 30.671875 28.609375 
L 32.625 29.984375 
Q 42.1875 36.03125 45.21875 39.546875 
Q 50 45.015625 50 53.8125 
Q 50 61.8125 44.734375 67.28125 
Q 38.765625 73.4375 28.90625 73.4375 
z
" id="UNAVAILABLE-50"/>
       <path d="M 28.71875 73.4375 
Q 17.96875 73.4375 11.71875 61.8125 
Q 6.15625 51.265625 6.15625 35.84375 
Q 6.15625 20.515625 11.71875 9.96875 
Q 17.96875 -1.765625 28.71875 -1.765625 
Q 39.359375 -1.765625 45.609375 9.96875 
Q 51.265625 20.515625 51.265625 35.84375 
Q 51.265625 51.265625 45.609375 61.8125 
Q 39.359375 73.4375 28.71875 73.4375 
z
M 28.71875 67.96875 
Q 36.421875 67.96875 41.015625 58.015625 
Q 45.125 49.03125 45.125 35.75 
Q 45.125 22.65625 41.015625 13.671875 
Q 36.421875 3.71875 28.71875 3.71875 
Q 20.796875 3.71875 16.3125 13.671875 
Q 12.3125 22.65625 12.3125 35.75 
Q 12.3125 49.03125 16.3125 58.015625 
Q 20.796875 67.96875 28.71875 67.96875 
z
" id="UNAVAILABLE-48"/>
       <path d="M 50.296875 54.890625 
Q 50.296875 62.40625 44.828125 67.671875 
Q 38.765625 73.4375 28.8125 73.4375 
Q 18.84375 73.4375 12.796875 67.671875 
Q 7.421875 62.40625 7.421875 54.890625 
Q 7.421875 48.640625 10.75 44.234375 
Q 13.28125 40.828125 16.796875 39.359375 
Q 11.328125 36.421875 8.296875 31.640625 
Q 5.171875 26.5625 5.171875 20.125 
Q 5.171875 11.328125 11.140625 5.078125 
Q 17.78125 -1.765625 28.71875 -1.765625 
Q 39.75 -1.765625 46.390625 5.078125 
Q 52.4375 11.328125 52.4375 20.125 
Q 52.4375 26.5625 49.03125 31.84375 
Q 45.796875 36.8125 40.625 39.265625 
Q 44.234375 40.71875 46.875 44.140625 
Q 50.296875 48.640625 50.296875 54.890625 
z
M 28.8125 36.421875 
Q 37.015625 36.421875 42 31.34375 
Q 46.578125 26.765625 46.578125 20.015625 
Q 46.578125 13.375 42 8.796875 
Q 37.015625 3.71875 28.8125 3.71875 
Q 20.515625 3.71875 15.625 8.796875 
Q 11.140625 13.375 11.140625 20.015625 
Q 11.140625 26.765625 15.625 31.34375 
Q 20.515625 36.421875 28.8125 36.421875 
z
M 28.8125 67.96875 
Q 36.03125 67.96875 40.4375 63.96875 
Q 44.4375 60.25 44.4375 54.890625 
Q 44.4375 49.515625 40.4375 45.90625 
Q 36.03125 41.796875 28.8125 41.796875 
Q 21.578125 41.796875 17.28125 45.90625 
Q 13.375 49.515625 13.375 54.890625 
Q 13.375 60.25 17.28125 63.96875 
Q 21.578125 67.96875 28.8125 67.96875 
z
" id="UNAVAILABLE-56"/>
      </defs>
      <g transform="translate(38.500994 253.8075)scale(0.1 -0.1)">
       <use xlink:href="#UNAVAILABLE-50"/>
       <use x="57.421875" xlink:href="#UNAVAILABLE-48"/>
       <use x="114.84375" xlink:href="#UNAVAILABLE-48"/>
       <use x="172.265625" xlink:href="#UNAVAILABLE-56"/>
      </g>
     </g>
    </g>
    <g id="xtick_2">
     <g id="line2d_2">
      <g>
       <use style="stroke:#000000;stroke-width:0.8;" x="75.349006" xlink:href="#m3b8949bfe4" y="239.46375"/>
      </g>
     </g>
     <g id="text_2">
      <!-- 2009 -->
      <defs>
       <path d="M 45.40625 48.640625 
Q 45.40625 41.21875 40.53125 36.234375 
Q 35.640625 31.15625 28.328125 31.15625 
Q 20.125 31.15625 15.828125 36.625 
Q 12.203125 41.21875 12.203125 48.53125 
Q 12.203125 57.515625 16.703125 62.796875 
Q 21.09375 67.96875 28.609375 67.96875 
Q 36.625 67.96875 41.21875 62.203125 
Q 45.40625 56.9375 45.40625 48.640625 
z
M 26.46875 -1.765625 
Q 40.046875 -1.765625 45.796875 8.59375 
Q 51.46875 18.75 51.46875 42.578125 
Q 51.46875 60.453125 44.046875 67.96875 
Q 38.671875 73.4375 29.5 73.4375 
Q 18.359375 73.4375 12.3125 67 
Q 6.0625 60.359375 6.0625 47.859375 
Q 6.0625 36.328125 13.1875 30.46875 
Q 18.84375 25.78125 26.765625 25.78125 
Q 33.6875 25.78125 38.875 28.71875 
Q 42.96875 31.0625 45.40625 34.765625 
Q 44.734375 19.140625 40.921875 12.015625 
Q 36.53125 3.71875 26.65625 3.71875 
Q 20.796875 3.71875 17.484375 7.03125 
Q 14.65625 9.765625 13.96875 14.453125 
Q 13.28125 17.484375 10.359375 17 
Q 7.328125 16.40625 7.71875 13.578125 
Q 8.5 5.859375 14.0625 1.859375 
Q 18.953125 -1.765625 26.46875 -1.765625 
z
" id="UNAVAILABLE-57"/>
      </defs>
      <g transform="translate(63.864631 253.8075)scale(0.1 -0.1)">
       <use xlink:href="#UNAVAILABLE-50"/>
       <use x="57.421875" xlink:href="#UNAVAILABLE-48"/>
       <use x="114.84375" xlink:href="#UNAVAILABLE-48"/>
       <use x="172.265625" xlink:href="#UNAVAILABLE-57"/>
      </g>
     </g>
    </g>
    <g id="xtick_3">
     <g id="line2d_3">
      <g>
       <use style="stroke:#000000;stroke-width:0.8;" x="100.712642" xlink:href="#m3b8949bfe4" y="239.46375"/>
      </g>
     </g>
     <g id="text_3">
      <!-- 2010 -->
      <defs>
       <path d="M 16.5 56.0625 
L 27.25 56.0625 
L 27.25 1.859375 
Q 27.25 0.203125 28.125 -0.875 
Q 29 -1.765625 30.28125 -1.859375 
Q 31.453125 -1.859375 32.328125 -0.875 
Q 33.296875 0.09375 33.296875 1.765625 
L 33.296875 71 
Q 33.296875 73.53125 30.765625 73.4375 
Q 28.21875 73.34375 28.125 71 
Q 27.828125 65.234375 24.515625 62.703125 
Q 21.6875 60.546875 16.21875 60.546875 
Q 13.96875 60.546875 14.0625 58.296875 
Q 14.15625 56.0625 16.5 56.0625 
z
" id="UNAVAILABLE-49"/>
      </defs>
      <g transform="translate(89.228267 253.8075)scale(0.1 -0.1)">
       <use xlink:href="#UNAVAILABLE-50"/>
       <use x="57.421875" xlink:href="#UNAVAILABLE-48"/>
       <use x="114.84375" xlink:href="#UNAVAILABLE-49"/>
       <use x="172.265625" xlink:href="#UNAVAILABLE-48"/>
      </g>
     </g>
    </g>
    <g id="xtick_4">
     <g id="line2d_4">
      <g>
       <use style="stroke:#000000;stroke-width:0.8;" x="126.076278" xlink:href="#m3b8949bfe4" y="239.46375"/>
      </g>
     </g>
     <g id="text_4">
      <!-- 2011 -->
      <g transform="translate(114.591903 253.8075)scale(0.1 -0.1)">
       <use xlink:href="#UNAVAILABLE-50"/>
       <use x="57.421875" xlink:href="#UNAVAILABLE-48"/>
       <use x="114.84375" xlink:href="#UNAVAILABLE-49"/>
       <use x="172.265625" xlink:href="#UNAVAILABLE-49"/>
      </g>
     </g>
    </g>
    <g id="xtick_5">
     <g id="line2d_5">
      <g>
       <use style="stroke:#000000;stroke-width:0.8;" x="151.439915" xlink:href="#m3b8949bfe4" y="239.46375"/>
      </g>
     </g>
     <g id="text_5">
      <!-- 2012 -->
      <g transform="translate(139.95554 253.8075)scale(0.1 -0.1)">
       <use xlink:href="#UNAVAILABLE-50"/>
       <use x="57.421875" xlink:href="#UNAVAILABLE-48"/>
       <use x="114.84375" xlink:href="#UNAVAILABLE-49"/>
       <use x="172.265625" xlink:href="#UNAVAILABLE-50"/>
      </g>
     </g>
    </g>
    <g id="xtick_6">
     <g id="line2d_6">
      <g>
       <use style="stroke:#000000;stroke-width:0.8;" x="176.803551" xlink:href="#m3b8949bfe4" y="239.46375"/>
      </g>
     </g>
     <g id="text_6">
      <!-- 2013 -->
      <defs>
       <path d="M 28.125 73.4375 
Q 18.265625 73.4375 12.5 67.484375 
Q 7.328125 62.109375 7.328125 54.203125 
Q 7.328125 52.734375 8.203125 51.765625 
Q 8.984375 50.984375 10.25 50.984375 
Q 11.421875 50.984375 12.203125 51.765625 
Q 13.1875 52.734375 13.1875 54.203125 
Q 13.1875 59.859375 16.796875 63.765625 
Q 20.90625 67.96875 28.03125 67.96875 
Q 34.96875 67.96875 39.0625 63.765625 
Q 42.875 59.859375 42.875 54.203125 
Q 42.875 48.734375 39.0625 44.921875 
Q 35.0625 40.828125 28.03125 40.828125 
L 25.296875 40.828125 
Q 22.5625 40.828125 22.5625 38.1875 
Q 22.5625 35.453125 25.296875 35.453125 
L 28.71875 35.453125 
Q 36.625 35.453125 41.3125 30.671875 
Q 45.515625 26.265625 45.515625 19.625 
Q 45.515625 13.28125 41.3125 8.796875 
Q 36.625 3.71875 28.71875 3.71875 
Q 20.796875 3.71875 16.109375 8.796875 
Q 12.015625 13.28125 12.015625 19.625 
L 12.015625 21.78125 
Q 12.015625 23.25 11.03125 24.03125 
Q 10.15625 24.703125 8.984375 24.703125 
Q 7.71875 24.703125 6.84375 24.03125 
Q 5.953125 23.25 5.953125 21.78125 
L 5.953125 19.734375 
Q 5.953125 11.03125 11.625 4.984375 
Q 17.875 -1.765625 28.71875 -1.765625 
Q 39.265625 -1.765625 45.609375 4.984375 
Q 51.46875 11.140625 51.46875 19.734375 
Q 51.46875 26.953125 47.265625 32.421875 
Q 44.046875 36.53125 39.75 38.375 
Q 42.875 39.75 45.515625 43.265625 
Q 49.125 47.953125 49.125 54.203125 
Q 49.125 62.015625 43.84375 67.484375 
Q 37.984375 73.4375 28.125 73.4375 
z
" id="UNAVAILABLE-51"/>
      </defs>
      <g transform="translate(165.319176 253.8075)scale(0.1 -0.1)">
       <use xlink:href="#UNAVAILABLE-50"/>
       <use x="57.421875" xlink:href="#UNAVAILABLE-48"/>
       <use x="114.84375" xlink:href="#UNAVAILABLE-49"/>
       <use x="172.265625" xlink:href="#UNAVAILABLE-51"/>
      </g>
     </g>
    </g>
    <g id="xtick_7">
     <g id="line2d_7">
      <g>
       <use style="stroke:#000000;stroke-width:0.8;" x="202.167188" xlink:href="#m3b8949bfe4" y="239.46375"/>
      </g>
     </g>
     <g id="text_7">
      <!-- 2014 -->
      <defs>
       <path d="M 36.921875 62.3125 
L 36.921875 22.65625 
L 11.234375 22.65625 
z
M 35.75 70.796875 
L 5.375 24.3125 
Q 3.8125 21.875 4.296875 19.625 
Q 4.890625 17.28125 7.421875 17.28125 
L 36.921875 17.28125 
L 36.921875 1.265625 
Q 36.921875 -0.203125 37.796875 -0.984375 
Q 38.671875 -1.765625 39.9375 -1.765625 
Q 41.109375 -1.765625 42 -0.984375 
Q 42.96875 -0.09375 42.96875 1.265625 
L 42.96875 17.28125 
L 52.25 17.28125 
Q 53.609375 17.28125 54.390625 18.171875 
Q 55.171875 18.953125 55.171875 20.015625 
Q 55.171875 21.09375 54.5 21.875 
Q 53.71875 22.65625 52.546875 22.65625 
L 42.96875 22.65625 
L 42.96875 70.125 
Q 42.96875 73.25 40.234375 73.4375 
Q 37.5 73.53125 35.75 70.796875 
z
" id="UNAVAILABLE-52"/>
      </defs>
      <g transform="translate(190.682813 253.8075)scale(0.1 -0.1)">
       <use xlink:href="#UNAVAILABLE-50"/>
       <use x="57.421875" xlink:href="#UNAVAILABLE-48"/>
       <use x="114.84375" xlink:href="#UNAVAILABLE-49"/>
       <use x="172.265625" xlink:href="#UNAVAILABLE-52"/>
      </g>
     </g>
    </g>
    <g id="xtick_8">
     <g id="line2d_8">
      <g>
       <use style="stroke:#000000;stroke-width:0.8;" x="227.530824" xlink:href="#m3b8949bfe4" y="239.46375"/>
      </g>
     </g>
     <g id="text_8">
      <!-- 2015 -->
      <defs>
       <path d="M 44.828125 71.78125 
L 13.671875 71.78125 
L 8.59375 37.3125 
Q 8.015625 34.28125 10.359375 33.203125 
Q 12.703125 32.234375 14.65625 35.0625 
Q 16.609375 38.09375 19.734375 39.84375 
Q 23.53125 41.890625 28.125 41.890625 
Q 36.140625 41.890625 40.921875 36.03125 
Q 45.21875 30.671875 45.21875 22.75 
Q 45.21875 15.046875 40.625 9.578125 
Q 35.640625 3.71875 27.546875 3.71875 
Q 21 3.71875 16.890625 6.546875 
Q 12.984375 9.28125 12.015625 13.765625 
Q 11.625 15.328125 10.453125 15.921875 
Q 9.375 16.5 8.203125 16.21875 
Q 6.9375 15.921875 6.25 14.84375 
Q 5.5625 13.765625 5.953125 12.3125 
Q 7.328125 5.953125 13.1875 2.046875 
Q 19.046875 -1.765625 27.15625 -1.765625 
Q 39.546875 -1.765625 45.90625 5.859375 
Q 51.375 12.40625 51.375 22.75 
Q 51.375 32.90625 45.796875 39.75 
Q 39.75 47.359375 29.296875 47.359375 
Q 24.90625 47.359375 21.1875 46 
Q 17.671875 44.734375 15.046875 42.09375 
L 18.75 66.3125 
L 44.828125 66.3125 
Q 46.296875 66.3125 47.265625 67.1875 
Q 48.046875 67.96875 48.046875 69.046875 
Q 48.046875 70.21875 47.171875 71 
Q 46.296875 71.78125 44.828125 71.78125 
z
" id="UNAVAILABLE-53"/>
      </defs>
      <g transform="translate(216.046449 253.8075)scale(0.1 -0.1)">
       <use xlink:href="#UNAVAILABLE-50"/>
       <use x="57.421875" xlink:href="#UNAVAILABLE-48"/>
       <use x="114.84375" xlink:href="#UNAVAILABLE-49"/>
       <use x="172.265625" xlink:href="#UNAVAILABLE-53"/>
      </g>
     </g>
    </g>
    <g id="xtick_9">
     <g id="line2d_9">
      <g>
       <use style="stroke:#000000;stroke-width:0.8;" x="252.89446" xlink:href="#m3b8949bfe4" y="239.46375"/>
      </g>
     </g>
     <g id="text_9">
      <!-- 2016 -->
      <defs>
       <path d="M 12.203125 22.46875 
Q 12.203125 30.171875 17 35.25 
Q 21.875 40.328125 29.296875 40.328125 
Q 37.40625 40.328125 41.703125 34.96875 
Q 45.40625 30.171875 45.40625 22.5625 
Q 45.40625 14.0625 40.828125 8.890625 
Q 36.328125 3.71875 29 3.71875 
Q 21.578125 3.71875 16.890625 8.890625 
Q 12.203125 14.0625 12.203125 22.46875 
z
M 31.0625 73.4375 
Q 18.171875 73.4375 11.625 60.25 
Q 6.0625 48.734375 6.0625 29.5 
Q 6.0625 11.53125 13.375 3.8125 
Q 18.75 -1.765625 28.125 -1.765625 
Q 39.15625 -1.765625 45.21875 4.6875 
Q 51.46875 11.234375 51.46875 23.25 
Q 51.46875 34.28125 44.34375 40.625 
Q 38.375 45.796875 30.859375 45.796875 
Q 23.734375 45.796875 18.65625 42.96875 
Q 14.546875 40.625 12.203125 36.71875 
Q 12.890625 49.125 16.609375 57.234375 
Q 21.578125 67.96875 30.953125 67.96875 
Q 36.71875 67.96875 40.046875 64.75 
Q 42.875 62.015625 43.65625 57.234375 
Q 44.234375 54.296875 47.171875 54.78125 
Q 50.203125 55.375 49.90625 58.109375 
Q 48.921875 65.921875 43.359375 69.921875 
Q 38.484375 73.4375 31.0625 73.4375 
z
" id="UNAVAILABLE-54"/>
      </defs>
      <g transform="translate(241.410085 253.8075)scale(0.1 -0.1)">
       <use xlink:href="#UNAVAILABLE-50"/>
       <use x="57.421875" xlink:href="#UNAVAILABLE-48"/>
       <use x="114.84375" xlink:href="#UNAVAILABLE-49"/>
       <use x="172.265625" xlink:href="#UNAVAILABLE-54"/>
      </g>
     </g>
    </g>
    <g id="xtick_10">
     <g id="line2d_10">
      <g>
       <use style="stroke:#000000;stroke-width:0.8;" x="278.258097" xlink:href="#m3b8949bfe4" y="239.46375"/>
      </g>
     </g>
     <g id="text_10">
      <!-- 2017 -->
      <defs>
       <path d="M 9.671875 66.40625 
L 44.34375 66.40625 
Q 33.890625 53.515625 25.59375 32.90625 
Q 18.453125 15.046875 16.796875 2.34375 
Q 16.5 0.59375 17.390625 -0.59375 
Q 18.265625 -1.65625 19.625 -1.765625 
Q 21 -1.859375 22.078125 -0.984375 
Q 23.25 0.09375 23.53125 1.953125 
Q 26.078125 22.46875 36.140625 42.578125 
Q 43.65625 57.8125 51.171875 65.625 
Q 53.03125 67.671875 52.046875 69.734375 
Q 51.078125 71.78125 48.4375 71.78125 
L 9.671875 71.78125 
Q 6.9375 71.78125 6.9375 69.140625 
Q 6.9375 66.40625 9.671875 66.40625 
z
" id="UNAVAILABLE-55"/>
      </defs>
      <g transform="translate(266.773722 253.8075)scale(0.1 -0.1)">
       <use xlink:href="#UNAVAILABLE-50"/>
       <use x="57.421875" xlink:href="#UNAVAILABLE-48"/>
       <use x="114.84375" xlink:href="#UNAVAILABLE-49"/>
       <use x="172.265625" xlink:href="#UNAVAILABLE-55"/>
      </g>
     </g>
    </g>
    <g id="xtick_11">
     <g id="line2d_11">
      <g>
       <use style="stroke:#000000;stroke-width:0.8;" x="303.621733" xlink:href="#m3b8949bfe4" y="239.46375"/>
      </g>
     </g>
     <g id="text_11">
      <!-- 2018 -->
      <g transform="translate(292.137358 253.8075)scale(0.1 -0.1)">
       <use xlink:href="#UNAVAILABLE-50"/>
       <use x="57.421875" xlink:href="#UNAVAILABLE-48"/>
       <use x="114.84375" xlink:href="#UNAVAILABLE-49"/>
       <use x="172.265625" xlink:href="#UNAVAILABLE-56"/>
      </g>
     </g>
    </g>
    <g id="xtick_12">
     <g id="line2d_12">
      <g>
       <use style="stroke:#000000;stroke-width:0.8;" x="328.985369" xlink:href="#m3b8949bfe4" y="239.46375"/>
      </g>
     </g>
     <g id="text_12">
      <!-- 2019 -->
      <g transform="translate(317.500994 253.8075)scale(0.1 -0.1)">
       <use xlink:href="#UNAVAILABLE-50"/>
       <use x="57.421875" xlink:href="#UNAVAILABLE-48"/>
       <use x="114.84375" xlink:href="#UNAVAILABLE-49"/>
       <use x="172.265625" xlink:href="#UNAVAILABLE-57"/>
      </g>
     </g>
    </g>
    <g id="xtick_13">
     <g id="line2d_13">
      <g>
       <use style="stroke:#000000;stroke-width:0.8;" x="354.349006" xlink:href="#m3b8949bfe4" y="239.46375"/>
      </g>
     </g>
     <g id="text_13">
      <!-- 2020 -->
      <g transform="translate(342.864631 253.8075)scale(0.1 -0.1)">
       <use xlink:href="#UNAVAILABLE-50"/>
       <use x="57.421875" xlink:href="#UNAVAILABLE-48"/>
       <use x="114.84375" xlink:href="#UNAVAILABLE-50"/>
       <use x="172.265625" xlink:href="#UNAVAILABLE-48"/>
      </g>
     </g>
    </g>
    <g id="text_14">
     <!-- year -->
     <defs>
      <path d="M 2.4375 49.8125 
L 20.703125 3.71875 
L 17.28125 -3.515625 
Q 15.921875 -6.453125 14.84375 -7.515625 
Q 13.578125 -8.796875 11.421875 -8.796875 
L 7.03125 -8.796875 
Q 5.5625 -8.796875 4.78125 -9.578125 
Q 4.109375 -10.359375 4.109375 -11.421875 
Q 4.109375 -12.5 4.78125 -13.28125 
Q 5.5625 -14.15625 7.03125 -14.15625 
L 11.421875 -14.15625 
Q 15.4375 -14.15625 18.453125 -11.71875 
Q 21.578125 -9.28125 23.828125 -4.296875 
L 45.90625 50.484375 
Q 46.390625 51.65625 45.703125 52.640625 
Q 45.015625 53.515625 43.75 53.8125 
Q 42.484375 54.109375 41.40625 53.71875 
Q 40.046875 53.328125 39.65625 52.046875 
L 24.03125 11.625 
L 8.203125 52.34375 
Q 7.71875 53.609375 6.546875 53.90625 
Q 5.375 54.203125 4.203125 53.609375 
Q 3.03125 53.125 2.4375 52.15625 
Q 1.859375 51.078125 2.4375 49.8125 
z
" id="UNAVAILABLE-121"/>
      <path d="M 43.265625 14.75 
Q 40.921875 9.671875 37.890625 7.125 
Q 33.984375 3.71875 28.125 3.71875 
Q 20.703125 3.71875 16.3125 10.453125 
Q 12.5 16.109375 12.109375 24.421875 
L 50.484375 24.421875 
L 50.484375 25.984375 
Q 50.484375 37.40625 44.828125 45.3125 
Q 38.578125 53.90625 28.125 53.90625 
Q 17.671875 53.90625 11.53125 45.3125 
Q 5.953125 37.40625 5.953125 25.984375 
Q 5.953125 14.65625 11.53125 6.84375 
Q 17.671875 -1.765625 28.125 -1.765625 
Q 35.546875 -1.765625 41.015625 2.046875 
Q 46.390625 5.671875 49.21875 12.5 
Q 49.8125 13.96875 49.21875 15.234375 
Q 48.734375 16.3125 47.5625 16.703125 
Q 46.296875 17.1875 45.125 16.796875 
Q 43.84375 16.21875 43.265625 14.75 
z
M 12.3125 29.890625 
Q 12.890625 37.015625 16.5 42.1875 
Q 20.90625 48.53125 28.125 48.53125 
Q 35.359375 48.53125 39.84375 42.09375 
Q 43.453125 36.8125 44.046875 29.890625 
z
" id="UNAVAILABLE-101"/>
      <path d="M 41.609375 12.5 
Q 39.359375 8.5 35.0625 6.25 
Q 30.28125 3.71875 23.53125 3.71875 
Q 17.578125 3.71875 14.75 6.25 
Q 12.015625 8.59375 12.015625 13.375 
Q 12.015625 18.359375 14.9375 20.90625 
Q 17.96875 23.640625 25.296875 24.609375 
Q 32.625 25.59375 36.8125 26.859375 
Q 40.234375 27.9375 41.609375 29.109375 
z
M 28.21875 53.90625 
Q 20.015625 53.90625 15.046875 50.296875 
Q 9.96875 46.484375 8.796875 38.96875 
Q 8.5 37.5 9.375 36.625 
Q 10.15625 35.75 11.328125 35.640625 
Q 12.59375 35.546875 13.484375 36.234375 
Q 14.546875 36.921875 14.75 38.1875 
Q 15.234375 43.0625 18.171875 45.609375 
Q 21.484375 48.53125 28.125 48.53125 
Q 34.96875 48.53125 38.375 46 
Q 41.609375 43.5625 41.609375 38.765625 
Q 41.609375 34.578125 38.671875 33.015625 
Q 35.640625 31.34375 25.203125 29.890625 
Q 13.375 28.421875 8.890625 23.34375 
Q 5.859375 19.828125 5.859375 13.375 
Q 5.859375 6.25 10.25 2.34375 
Q 14.75 -1.765625 23.53125 -1.765625 
Q 29.984375 -1.765625 35.0625 0.484375 
Q 38.765625 2.15625 41.703125 4.984375 
Q 41.703125 1.953125 43.453125 0.6875 
Q 45.609375 -0.6875 51.171875 -0.6875 
Q 52.546875 -0.6875 53.328125 0.203125 
Q 54 0.984375 54 2.046875 
Q 53.90625 3.21875 53.21875 4 
Q 52.4375 4.78125 51.265625 4.78125 
Q 49.515625 4.78125 48.53125 5.765625 
Q 47.65625 6.640625 47.65625 8.296875 
L 47.65625 39.265625 
Q 47.65625 46.96875 42 50.6875 
Q 37.015625 53.90625 28.21875 53.90625 
z
" id="UNAVAILABLE-97"/>
      <path d="M 8.5 50.390625 
L 8.5 1.46875 
Q 8.5 0 9.375 -0.875 
Q 10.25 -1.65625 11.53125 -1.65625 
Q 12.703125 -1.65625 13.578125 -0.875 
Q 14.546875 0 14.546875 1.46875 
L 14.546875 39.546875 
Q 16.3125 43.359375 19.625 45.515625 
Q 23.34375 47.953125 28.125 47.953125 
Q 30.5625 47.953125 30.46875 50.984375 
Q 30.375 53.90625 28.21875 53.90625 
Q 23.53125 53.90625 19.828125 51.5625 
Q 17 49.8125 14.546875 46.390625 
L 14.546875 50.390625 
Q 14.546875 51.765625 13.578125 52.546875 
Q 12.703125 53.125 11.53125 53.125 
Q 10.25 53.125 9.375 52.4375 
Q 8.5 51.65625 8.5 50.390625 
z
" id="UNAVAILABLE-114"/>
     </defs>
     <g transform="translate(192.353125 266.577813)scale(0.1 -0.1)">
      <use xlink:href="#UNAVAILABLE-121"/>
      <use x="50" xlink:href="#UNAVAILABLE-101"/>
      <use x="106.738281" xlink:href="#UNAVAILABLE-97"/>
      <use x="162.988281" xlink:href="#UNAVAILABLE-114"/>
     </g>
    </g>
   </g>
   <g id="matplotlib.axis_2">
    <g id="ytick_1">
     <g id="line2d_14">
      <defs>
       <path d="M 0 0 
L -3.5 0 
" id="m948ee7f880" style="stroke:#000000;stroke-width:0.8;"/>
      </defs>
      <g>
       <use style="stroke:#000000;stroke-width:0.8;" x="34.767188" xlink:href="#m948ee7f880" y="239.46375"/>
      </g>
     </g>
     <g id="text_15">
      <!-- 0.50 -->
      <defs>
       <path d="M 16.703125 9.28125 
Q 14.15625 9.28125 12.703125 7.625 
Q 11.421875 6.0625 11.421875 3.71875 
Q 11.421875 1.5625 12.703125 0 
Q 14.15625 -1.765625 16.703125 -1.765625 
Q 19.140625 -1.765625 20.609375 0 
Q 21.96875 1.5625 21.96875 3.71875 
Q 21.96875 6.0625 20.609375 7.625 
Q 19.140625 9.28125 16.703125 9.28125 
z
" id="UNAVAILABLE-46"/>
      </defs>
      <g transform="translate(7.2 243.135625)scale(0.1 -0.1)">
       <use xlink:href="#UNAVAILABLE-48"/>
       <use x="57.421875" xlink:href="#UNAVAILABLE-46"/>
       <use x="90.820312" xlink:href="#UNAVAILABLE-53"/>
       <use x="148.242188" xlink:href="#UNAVAILABLE-48"/>
      </g>
     </g>
    </g>
    <g id="ytick_2">
     <g id="line2d_15">
      <g>
       <use style="stroke:#000000;stroke-width:0.8;" x="34.767188" xlink:href="#m948ee7f880" y="185.10375"/>
      </g>
     </g>
     <g id="text_16">
      <!-- 0.55 -->
      <g transform="translate(7.2 188.775625)scale(0.1 -0.1)">
       <use xlink:href="#UNAVAILABLE-48"/>
       <use x="57.421875" xlink:href="#UNAVAILABLE-46"/>
       <use x="90.820312" xlink:href="#UNAVAILABLE-53"/>
       <use x="148.242188" xlink:href="#UNAVAILABLE-53"/>
      </g>
     </g>
    </g>
    <g id="ytick_3">
     <g id="line2d_16">
      <g>
       <use style="stroke:#000000;stroke-width:0.8;" x="34.767188" xlink:href="#m948ee7f880" y="130.74375"/>
      </g>
     </g>
     <g id="text_17">
      <!-- 0.60 -->
      <g transform="translate(7.2 134.415625)scale(0.1 -0.1)">
       <use xlink:href="#UNAVAILABLE-48"/>
       <use x="57.421875" xlink:href="#UNAVAILABLE-46"/>
       <use x="90.820312" xlink:href="#UNAVAILABLE-54"/>
       <use x="148.242188" xlink:href="#UNAVAILABLE-48"/>
      </g>
     </g>
    </g>
    <g id="ytick_4">
     <g id="line2d_17">
      <g>
       <use style="stroke:#000000;stroke-width:0.8;" x="34.767188" xlink:href="#m948ee7f880" y="76.38375"/>
      </g>
     </g>
     <g id="text_18">
      <!-- 0.65 -->
      <g transform="translate(7.2 80.055625)scale(0.1 -0.1)">
       <use xlink:href="#UNAVAILABLE-48"/>
       <use x="57.421875" xlink:href="#UNAVAILABLE-46"/>
       <use x="90.820312" xlink:href="#UNAVAILABLE-54"/>
       <use x="148.242188" xlink:href="#UNAVAILABLE-53"/>
      </g>
     </g>
    </g>
    <g id="ytick_5">
     <g id="line2d_18">
      <g>
       <use style="stroke:#000000;stroke-width:0.8;" x="34.767188" xlink:href="#m948ee7f880" y="22.02375"/>
      </g>
     </g>
     <g id="text_19">
      <!-- 0.70 -->
      <g transform="translate(7.2 25.695625)scale(0.1 -0.1)">
       <use xlink:href="#UNAVAILABLE-48"/>
       <use x="57.421875" xlink:href="#UNAVAILABLE-46"/>
       <use x="90.820312" xlink:href="#UNAVAILABLE-55"/>
       <use x="148.242188" xlink:href="#UNAVAILABLE-48"/>
      </g>
     </g>
    </g>
   </g>
   <g id="line2d_19">
    <path clip-path="url(#p55a2c17aca)" d="M 49.985369 153.57653 
L 75.349006 152.723818 
L 100.712642 161.549656 
L 126.076278 162.630889 
L 151.439915 157.981301 
L 176.803551 149.806191 
L 202.167188 135.203217 
L 227.530824 137.57075 
L 252.89446 142.722236 
L 278.258097 137.326293 
L 303.621733 131.797812 
L 328.985369 130.753509 
L 354.349006 125.858994 
" style="fill:none;stroke:#1f77b4;stroke-linecap:square;stroke-width:1.5;"/>
   </g>
   <g id="line2d_20">
    <path clip-path="url(#p55a2c17aca)" d="M 49.985369 209.081724 
L 75.349006 198.135026 
L 100.712642 196.315931 
L 126.076278 183.487034 
L 151.439915 182.062916 
L 176.803551 177.715503 
L 202.167188 156.385024 
L 227.530824 154.551031 
L 252.89446 156.958543 
L 278.258097 150.204921 
L 303.621733 137.493869 
L 328.985369 127.000763 
L 354.349006 118.063281 
" style="fill:none;stroke:#ff7f0e;stroke-linecap:square;stroke-width:1.5;"/>
   </g>
   <g id="patch_3">
    <path d="M 34.767188 239.46375 
L 34.767188 22.02375 
" style="fill:none;stroke:#000000;stroke-linecap:square;stroke-linejoin:miter;stroke-width:0.8;"/>
   </g>
   <g id="patch_4">
    <path d="M 369.567187 239.46375 
L 369.567187 22.02375 
" style="fill:none;stroke:#000000;stroke-linecap:square;stroke-linejoin:miter;stroke-width:0.8;"/>
   </g>
   <g id="patch_5">
    <path d="M 34.767188 239.46375 
L 369.567188 239.46375 
" style="fill:none;stroke:#000000;stroke-linecap:square;stroke-linejoin:miter;stroke-width:0.8;"/>
   </g>
   <g id="patch_6">
    <path d="M 34.767188 22.02375 
L 369.567188 22.02375 
" style="fill:none;stroke:#000000;stroke-linecap:square;stroke-linejoin:miter;stroke-width:0.8;"/>
   </g>
   <g id="text_20">
    <!-- Sum of table100.prop by year and sex -->
    <defs>
     <path d="M 31.734375 73.4375 
Q 20.3125 73.4375 13.765625 68.75 
Q 7.328125 63.96875 7.328125 55.46875 
Q 7.328125 46.6875 13.671875 41.796875 
Q 19.046875 37.796875 31.0625 34.96875 
Q 43.5625 32.125 47.75 28.03125 
Q 51.265625 24.609375 51.265625 17.390625 
Q 51.265625 10.75 44.53125 6.9375 
Q 38.96875 3.71875 31.9375 3.71875 
Q 22.5625 3.71875 17.78125 7.421875 
Q 12.40625 11.421875 11.71875 20.21875 
Q 11.53125 21.875 10.546875 22.75 
Q 9.671875 23.53125 8.40625 23.4375 
Q 7.234375 23.34375 6.453125 22.5625 
Q 5.46875 21.578125 5.671875 20.015625 
Q 6.640625 8.6875 13.671875 3.328125 
Q 20.125 -1.765625 32.125 -1.765625 
Q 42.78125 -1.765625 49.8125 3.421875 
Q 57.421875 8.890625 57.421875 18.0625 
Q 57.421875 27.4375 51.859375 32.515625 
Q 46.09375 37.796875 32.125 40.625 
Q 21.484375 42.78125 17.390625 46.296875 
Q 13.484375 49.609375 13.484375 55.671875 
Q 13.484375 61.71875 18.453125 64.9375 
Q 23.140625 67.96875 31.34375 67.96875 
Q 38.96875 67.96875 43.171875 64.84375 
Q 47.359375 61.625 48.53125 54.6875 
Q 48.734375 53.125 49.8125 52.34375 
Q 50.875 51.5625 52.15625 51.65625 
Q 53.515625 51.859375 54.203125 52.9375 
Q 55.078125 54.109375 54.78125 55.953125 
Q 53.609375 63.1875 49.125 67.578125 
Q 43.0625 73.4375 31.734375 73.4375 
z
" id="UNAVAILABLE-83"/>
     <path d="M 48.4375 2.15625 
L 48.4375 50.984375 
Q 48.4375 52.640625 47.46875 53.515625 
Q 46.578125 54.390625 45.3125 54.390625 
Q 44.046875 54.390625 43.171875 53.515625 
Q 42.28125 52.640625 42.28125 50.984375 
L 42.28125 13.96875 
Q 38.671875 9.078125 34.375 6.546875 
Q 29.890625 3.71875 24.90625 3.71875 
Q 20.015625 3.71875 17.1875 6.84375 
Q 14.546875 9.671875 14.546875 13.671875 
L 14.546875 50.984375 
Q 14.546875 52.640625 13.578125 53.515625 
Q 12.703125 54.390625 11.53125 54.390625 
Q 10.25 54.390625 9.375 53.515625 
Q 8.5 52.640625 8.5 50.984375 
L 8.5 13.671875 
Q 8.5 7.515625 12.59375 3.125 
Q 17.1875 -1.765625 24.90625 -1.765625 
Q 30.46875 -1.765625 35.15625 0.78125 
Q 39.15625 2.828125 42.28125 6.453125 
L 42.28125 2.15625 
Q 42.28125 0.78125 43.171875 -0.09375 
Q 44.046875 -0.875 45.3125 -0.875 
Q 46.578125 -0.875 47.46875 -0.09375 
Q 48.4375 0.78125 48.4375 2.15625 
z
" id="UNAVAILABLE-117"/>
     <path d="M 8.5 49.8125 
L 8.5 1.265625 
Q 8.5 -0.09375 9.375 -0.984375 
Q 10.25 -1.765625 11.53125 -1.765625 
Q 12.703125 -1.765625 13.578125 -0.984375 
Q 14.546875 -0.09375 14.546875 1.265625 
L 14.546875 39.15625 
Q 17.78125 44.234375 21.390625 46.390625 
Q 25 48.53125 30.171875 48.53125 
Q 34.859375 48.53125 37.59375 45.796875 
Q 40.046875 43.265625 40.046875 39.0625 
L 40.046875 1.265625 
Q 40.046875 -0.09375 40.921875 -0.984375 
Q 41.796875 -1.765625 43.0625 -1.765625 
Q 44.234375 -1.765625 45.125 -0.984375 
Q 46.09375 -0.09375 46.09375 1.265625 
L 46.09375 38.28125 
Q 48.921875 43.75 52.4375 46.09375 
Q 55.953125 48.53125 61.53125 48.53125 
Q 66.40625 48.53125 69.046875 45.796875 
Q 71.484375 43.265625 71.484375 39.0625 
L 71.484375 1.265625 
Q 71.484375 -0.09375 72.359375 -0.984375 
Q 73.25 -1.765625 74.515625 -1.765625 
Q 75.6875 -1.765625 76.5625 -0.984375 
Q 77.546875 -0.09375 77.546875 1.265625 
L 77.546875 40.046875 
Q 77.546875 45.3125 73.53125 49.3125 
Q 68.953125 53.90625 61.328125 53.90625 
Q 55.765625 53.90625 51.265625 51.375 
Q 47.171875 49.125 44.625 45.125 
Q 42.875 48.828125 40.046875 50.984375 
Q 36.03125 53.90625 29.984375 53.90625 
Q 25.203125 53.90625 20.609375 51.375 
Q 16.890625 49.3125 14.546875 46.1875 
L 14.546875 49.8125 
Q 14.546875 51.46875 13.578125 52.34375 
Q 12.703125 53.21875 11.53125 53.21875 
Q 10.25 53.21875 9.375 52.34375 
Q 8.5 51.46875 8.5 49.8125 
z
" id="UNAVAILABLE-109"/>
     <path id="UNAVAILABLE-32"/>
     <path d="M 30.171875 53.71875 
Q 18.5625 53.71875 12.015625 45.125 
Q 6.25 37.5 6.25 25.875 
Q 6.25 14.359375 12.015625 6.734375 
Q 18.5625 -1.953125 30.171875 -1.953125 
Q 41.703125 -1.953125 48.25 6.734375 
Q 54.109375 14.359375 54.109375 25.875 
Q 54.109375 37.5 48.25 45.125 
Q 41.703125 53.71875 30.171875 53.71875 
z
M 30.171875 48.34375 
Q 38.765625 48.34375 43.5625 41.40625 
Q 47.953125 35.25 47.953125 25.875 
Q 47.953125 16.703125 43.5625 10.453125 
Q 38.765625 3.515625 30.171875 3.515625 
Q 21.484375 3.515625 16.609375 10.453125 
Q 12.40625 16.609375 12.40625 25.875 
Q 12.40625 35.25 16.609375 41.40625 
Q 21.484375 48.34375 30.171875 48.34375 
z
" id="UNAVAILABLE-111"/>
     <path d="M 13.28125 52.25 
L 8.40625 52.25 
Q 6.9375 52.25 6.0625 51.46875 
Q 5.28125 50.6875 5.28125 49.609375 
Q 5.28125 48.53125 6.0625 47.75 
Q 6.9375 46.875 8.40625 46.875 
L 13.28125 46.875 
L 13.28125 1.5625 
Q 13.28125 0 14.15625 -0.984375 
Q 15.046875 -1.765625 16.3125 -1.765625 
Q 17.484375 -1.765625 18.359375 -0.875 
Q 19.34375 0.09375 19.34375 1.5625 
L 19.34375 46.875 
L 26.46875 46.875 
Q 27.9375 46.875 28.8125 47.75 
Q 29.59375 48.53125 29.59375 49.609375 
Q 29.59375 50.6875 28.8125 51.46875 
Q 27.9375 52.25 26.46875 52.25 
L 19.34375 52.25 
L 19.34375 63.578125 
Q 19.34375 65.4375 20.3125 66.609375 
Q 21.484375 67.96875 23.640625 67.96875 
L 26.46875 67.96875 
Q 27.9375 67.96875 28.8125 68.84375 
Q 29.59375 69.625 29.59375 70.703125 
Q 29.59375 71.875 28.8125 72.65625 
Q 27.9375 73.4375 26.46875 73.4375 
L 22.5625 73.4375 
Q 18.0625 73.4375 15.53125 70.515625 
Q 13.28125 67.875 13.28125 63.96875 
z
" id="UNAVAILABLE-102"/>
     <path d="M 11.140625 65.828125 
L 11.140625 52.25 
L 5.859375 52.25 
Q 3.609375 52.25 3.609375 49.609375 
Q 3.609375 46.875 5.859375 46.875 
L 11.140625 46.875 
L 11.140625 7.71875 
Q 11.140625 3.90625 13.484375 1.265625 
Q 16.015625 -1.765625 20.515625 -1.765625 
L 25.09375 -1.765625 
Q 26.46875 -1.765625 27.34375 -0.875 
Q 28.125 -0.09375 28.125 0.984375 
Q 28.125 2.15625 27.34375 2.9375 
Q 26.46875 3.71875 25.09375 3.71875 
L 21.578125 3.71875 
Q 19.4375 3.71875 18.265625 5.171875 
Q 17.28125 6.34375 17.28125 8.109375 
L 17.28125 46.875 
L 25.296875 46.875 
Q 27.828125 46.875 27.828125 49.609375 
Q 27.828125 52.25 25.296875 52.25 
L 17.28125 52.25 
L 17.28125 65.828125 
Q 17.28125 67.28125 16.3125 68.0625 
Q 15.4375 68.75 14.15625 68.75 
Q 12.890625 68.75 12.015625 68.0625 
Q 11.140625 67.28125 11.140625 65.828125 
z
" id="UNAVAILABLE-116"/>
     <path d="M 8.5 70.21875 
L 8.5 2.4375 
Q 8.5 0.875 9.46875 0 
Q 10.25 -0.6875 11.53125 -0.6875 
Q 12.703125 -0.59375 13.578125 0.203125 
Q 14.546875 1.078125 14.546875 2.4375 
L 14.546875 6.546875 
Q 16.609375 3.125 20.796875 0.875 
Q 25.59375 -1.765625 31.84375 -1.765625 
Q 42.671875 -1.765625 48.921875 6.84375 
Q 54.5 14.546875 54.5 25.984375 
Q 54.5 37.59375 48.921875 45.3125 
Q 42.671875 53.90625 31.84375 53.90625 
Q 25.984375 53.90625 21.6875 51.765625 
Q 17.484375 49.609375 14.546875 45.015625 
L 14.546875 70.40625 
Q 14.546875 71.875 13.578125 72.75 
Q 12.703125 73.4375 11.53125 73.4375 
Q 10.25 73.4375 9.375 72.65625 
Q 8.5 71.78125 8.5 70.21875 
z
M 31.84375 48.53125 
Q 39.75 48.53125 44.34375 41.609375 
Q 48.34375 35.453125 48.34375 26.078125 
Q 48.34375 16.796875 44.34375 10.640625 
Q 39.84375 3.71875 31.84375 3.71875 
Q 23.25 3.71875 18.65625 10.640625 
Q 14.546875 16.703125 14.546875 26.078125 
Q 14.546875 35.546875 18.65625 41.609375 
Q 23.25 48.53125 31.84375 48.53125 
z
" id="UNAVAILABLE-98"/>
     <path d="M 8.5 70.609375 
L 8.5 1.265625 
Q 8.5 -0.09375 9.375 -0.984375 
Q 10.25 -1.765625 11.53125 -1.765625 
Q 12.703125 -1.765625 13.578125 -0.984375 
Q 14.546875 -0.203125 14.546875 1.171875 
L 14.546875 70.515625 
Q 14.546875 71.96875 13.578125 72.75 
Q 12.703125 73.4375 11.53125 73.4375 
Q 10.25 73.4375 9.375 72.75 
Q 8.5 71.96875 8.5 70.609375 
z
" id="UNAVAILABLE-108"/>
     <path d="M 8.5 -10.546875 
Q 8.5 -12.203125 9.375 -13.28125 
Q 10.25 -14.15625 11.53125 -14.15625 
Q 12.703125 -14.265625 13.578125 -13.375 
Q 14.546875 -12.40625 14.546875 -10.84375 
L 14.546875 6.546875 
Q 16.609375 3.125 20.703125 0.875 
Q 25.484375 -1.765625 31.546875 -1.765625 
Q 42.671875 -1.765625 48.921875 6.9375 
Q 54.59375 14.65625 54.59375 26.171875 
Q 54.59375 37.703125 48.921875 45.3125 
Q 42.671875 53.90625 31.546875 53.90625 
Q 25.875 53.90625 21.6875 51.765625 
Q 17.484375 49.515625 14.546875 45.015625 
L 14.546875 49.8125 
Q 14.546875 51.265625 13.578125 52.15625 
Q 12.703125 52.9375 11.53125 52.9375 
Q 10.25 52.9375 9.375 52.15625 
Q 8.5 51.265625 8.5 49.8125 
z
M 31.546875 48.53125 
Q 39.75 48.53125 44.34375 41.609375 
Q 48.4375 35.453125 48.4375 26.078125 
Q 48.4375 16.796875 44.34375 10.640625 
Q 39.75 3.71875 31.546875 3.71875 
Q 23.140625 3.71875 18.5625 10.640625 
Q 14.546875 16.796875 14.546875 26.078125 
Q 14.546875 35.453125 18.5625 41.609375 
Q 23.140625 48.53125 31.546875 48.53125 
z
" id="UNAVAILABLE-112"/>
     <path d="M 8.5 50 
L 8.5 1.46875 
Q 8.5 -0.09375 9.375 -0.984375 
Q 10.25 -1.859375 11.53125 -1.859375 
Q 12.703125 -1.765625 13.578125 -0.984375 
Q 14.546875 0 14.546875 1.5625 
L 14.546875 36.328125 
Q 17.96875 42.578125 22.5625 45.609375 
Q 26.953125 48.53125 32.515625 48.53125 
Q 37.59375 48.53125 40.625 45.40625 
Q 43.359375 42.671875 43.359375 38.484375 
L 43.359375 1.46875 
Q 43.359375 0 44.234375 -0.984375 
Q 45.125 -1.765625 46.390625 -1.765625 
Q 47.5625 -1.765625 48.4375 -0.984375 
Q 49.421875 0 49.421875 1.46875 
L 49.421875 38.484375 
Q 49.421875 44.828125 45.125 49.125 
Q 40.4375 53.90625 32.515625 53.90625 
Q 26.375 53.90625 21.78125 51.265625 
Q 17.390625 48.734375 14.546875 43.953125 
L 14.546875 50 
Q 14.546875 51.46875 13.578125 52.34375 
Q 12.703125 53.125 11.53125 53.125 
Q 10.25 53.125 9.375 52.34375 
Q 8.5 51.46875 8.5 50 
z
" id="UNAVAILABLE-110"/>
     <path d="M 52.25 70.015625 
Q 52.25 71.578125 51.265625 72.46875 
Q 50.390625 73.25 49.21875 73.25 
Q 47.953125 73.25 47.078125 72.5625 
Q 46.1875 71.6875 46.1875 70.21875 
L 46.1875 44.828125 
Q 43.171875 49.421875 38.96875 51.5625 
Q 34.859375 53.71875 29.296875 53.71875 
Q 18.0625 53.71875 11.8125 45.125 
Q 6.25 37.5 6.25 25.875 
Q 6.25 14.359375 11.8125 6.734375 
Q 18.0625 -1.953125 29.296875 -1.953125 
Q 35.15625 -1.953125 39.9375 0.6875 
Q 44.046875 3.03125 46.1875 6.453125 
L 46.1875 2.25 
Q 46.1875 0.875 47.078125 0 
Q 47.953125 -0.78125 49.125 -0.875 
Q 50.390625 -0.875 51.171875 -0.203125 
Q 52.15625 0.6875 52.25 2.25 
z
M 29.296875 48.34375 
Q 37.5 48.34375 42.09375 41.40625 
Q 46.1875 35.25 46.1875 25.875 
Q 46.1875 16.609375 42.09375 10.453125 
Q 37.5 3.515625 29.296875 3.515625 
Q 21 3.515625 16.40625 10.453125 
Q 12.40625 16.609375 12.40625 25.875 
Q 12.40625 35.25 16.40625 41.40625 
Q 21 48.34375 29.296875 48.34375 
z
" id="UNAVAILABLE-100"/>
     <path d="M 24.90625 53.90625 
Q 17 53.90625 12.109375 50.390625 
Q 6.9375 46.6875 6.9375 40.140625 
Q 6.9375 34.078125 11.234375 30.46875 
Q 15.140625 27.046875 23.828125 24.8125 
Q 33.40625 22.46875 36.921875 19.625 
Q 39.84375 17.390625 39.84375 13.375 
Q 39.84375 9.078125 36.421875 6.546875 
Q 32.8125 3.71875 26.46875 3.71875 
Q 18.84375 3.71875 15.4375 6.546875 
Q 12.203125 9.1875 12.203125 14.265625 
Q 12.109375 15.625 11.140625 16.3125 
Q 10.25 17 8.984375 16.890625 
Q 7.71875 16.890625 6.9375 16.109375 
Q 5.953125 15.234375 6.0625 13.875 
Q 6.34375 6.25 11.53125 2.25 
Q 16.703125 -1.765625 26.375 -1.765625 
Q 36.03125 -1.765625 41.21875 2.734375 
Q 46 6.734375 46 13.28125 
Q 46 19.828125 42 23.53125 
Q 37.796875 27.546875 27.546875 29.890625 
Q 19.140625 32.03125 16.015625 34.46875 
Q 13.09375 36.8125 13.09375 40.828125 
Q 13.09375 44.234375 16.40625 46.484375 
Q 19.734375 48.53125 24.703125 48.53125 
Q 31.25 48.53125 34.578125 46.09375 
Q 37.703125 43.84375 38.09375 39.546875 
Q 38.1875 38.1875 39.265625 37.40625 
Q 40.234375 36.71875 41.5 36.8125 
Q 42.875 37.015625 43.75 37.796875 
Q 44.734375 38.765625 44.625 40.140625 
Q 44.140625 46.09375 39.84375 49.703125 
Q 34.765625 53.90625 24.90625 53.90625 
z
" id="UNAVAILABLE-115"/>
     <path d="M 4 49.8125 
L 20.21875 27.734375 
L 3.125 3.03125 
Q 2.25 1.765625 2.546875 0.484375 
Q 2.828125 -0.6875 4 -1.375 
Q 5.078125 -1.953125 6.34375 -1.65625 
Q 7.71875 -1.375 8.6875 0 
L 23.828125 22.75 
L 38.765625 -0.09375 
Q 39.65625 -1.46875 41.015625 -1.765625 
Q 42.28125 -1.953125 43.359375 -1.375 
Q 44.4375 -0.6875 44.734375 0.390625 
Q 45.125 1.65625 44.4375 2.828125 
L 27.546875 27.640625 
L 43.265625 49.609375 
Q 43.953125 50.59375 43.5625 51.765625 
Q 43.265625 52.734375 42.09375 53.328125 
Q 41.015625 54 39.84375 53.90625 
Q 38.578125 53.71875 37.796875 52.640625 
L 23.828125 32.625 
L 9.578125 52.640625 
Q 8.6875 53.71875 7.421875 53.90625 
Q 6.15625 54 5.078125 53.421875 
Q 4 52.828125 3.609375 51.859375 
Q 3.21875 50.78125 4 49.8125 
z
" id="UNAVAILABLE-120"/>
    </defs>
    <g transform="translate(94.73625 16.02375)scale(0.12 -0.12)">
     <use xlink:href="#UNAVAILABLE-83"/>
     <use x="63.28125" xlink:href="#UNAVAILABLE-117"/>
     <use x="120.3125" xlink:href="#UNAVAILABLE-109"/>
     <use x="206.445312" xlink:href="#UNAVAILABLE-32"/>
     <use x="239.746094" xlink:href="#UNAVAILABLE-111"/>
     <use x="300.292969" xlink:href="#UNAVAILABLE-102"/>
     <use x="334.472656" xlink:href="#UNAVAILABLE-32"/>
     <use x="367.773438" xlink:href="#UNAVAILABLE-116"/>
     <use x="399.121094" xlink:href="#UNAVAILABLE-97"/>
     <use x="455.371094" xlink:href="#UNAVAILABLE-98"/>
     <use x="515.917969" xlink:href="#UNAVAILABLE-108"/>
     <use x="539.0625" xlink:href="#UNAVAILABLE-101"/>
     <use x="595.800781" xlink:href="#UNAVAILABLE-49"/>
     <use x="653.222656" xlink:href="#UNAVAILABLE-48"/>
     <use x="710.644531" xlink:href="#UNAVAILABLE-48"/>
     <use x="768.066406" xlink:href="#UNAVAILABLE-46"/>
     <use x="801.464844" xlink:href="#UNAVAILABLE-112"/>
     <use x="862.011719" xlink:href="#UNAVAILABLE-114"/>
     <use x="895.3125" xlink:href="#UNAVAILABLE-111"/>
     <use x="955.859375" xlink:href="#UNAVAILABLE-112"/>
     <use x="1016.40625" xlink:href="#UNAVAILABLE-32"/>
     <use x="1049.707031" xlink:href="#UNAVAILABLE-98"/>
     <use x="1110.253906" xlink:href="#UNAVAILABLE-121"/>
     <use x="1160.253906" xlink:href="#UNAVAILABLE-32"/>
     <use x="1193.554688" xlink:href="#UNAVAILABLE-121"/>
     <use x="1243.554688" xlink:href="#UNAVAILABLE-101"/>
     <use x="1300.292969" xlink:href="#UNAVAILABLE-97"/>
     <use x="1356.542969" xlink:href="#UNAVAILABLE-114"/>
     <use x="1389.84375" xlink:href="#UNAVAILABLE-32"/>
     <use x="1423.144531" xlink:href="#UNAVAILABLE-97"/>
     <use x="1479.394531" xlink:href="#UNAVAILABLE-110"/>
     <use x="1537.402344" xlink:href="#UNAVAILABLE-100"/>
     <use x="1597.949219" xlink:href="#UNAVAILABLE-32"/>
     <use x="1631.25" xlink:href="#UNAVAILABLE-115"/>
     <use x="1683.789062" xlink:href="#UNAVAILABLE-101"/>
     <use x="1740.527344" xlink:href="#UNAVAILABLE-120"/>
    </g>
   </g>
   <g id="legend_1">
    <g id="patch_7">
     <path d="M 322.442187 71.334688 
L 362.567187 71.334688 
Q 364.567187 71.334688 364.567187 69.334688 
L 364.567187 29.02375 
Q 364.567187 27.02375 362.567187 27.02375 
L 322.442187 27.02375 
Q 320.442187 27.02375 320.442187 29.02375 
L 320.442187 69.334688 
Q 320.442187 71.334688 322.442187 71.334688 
z
" style="fill:#ffffff;opacity:0.8;stroke:#cccccc;stroke-linejoin:miter;"/>
    </g>
    <g id="text_21">
     <!-- gender -->
     <defs>
      <path d="M 45.703125 50.203125 
L 45.703125 45.015625 
Q 42.671875 49.515625 38.578125 51.765625 
Q 34.375 53.90625 28.8125 53.90625 
Q 17.671875 53.90625 11.328125 45.40625 
Q 5.765625 37.796875 5.765625 26.859375 
Q 5.765625 15.53125 11.328125 8.203125 
Q 17.578125 -0.09375 28.8125 -0.09375 
Q 34.765625 -0.09375 39.546875 2.546875 
Q 43.65625 4.890625 45.703125 8.296875 
L 45.703125 2.546875 
Q 45.703125 -2.046875 41.609375 -5.171875 
Q 37.109375 -8.6875 28.8125 -8.6875 
Q 22.171875 -8.6875 18.171875 -6.640625 
Q 14.453125 -4.78125 12.703125 -1.171875 
Q 12.015625 0 10.84375 0.203125 
Q 9.765625 0.484375 8.6875 -0.203125 
Q 7.515625 -0.78125 7.234375 -1.859375 
Q 6.734375 -3.03125 7.515625 -4.296875 
Q 10.15625 -9.1875 15.625 -11.625 
Q 20.90625 -14.0625 28.71875 -14.0625 
Q 39.84375 -14.0625 46.1875 -8.796875 
Q 51.859375 -4.203125 51.859375 2.640625 
L 51.859375 50.203125 
Q 51.859375 51.5625 50.875 52.34375 
Q 50 53.03125 48.734375 53.03125 
Q 47.46875 53.03125 46.578125 52.34375 
Q 45.703125 51.5625 45.703125 50.203125 
z
M 28.71875 48.53125 
Q 36.921875 48.53125 41.609375 41.703125 
Q 45.703125 35.640625 45.703125 26.953125 
Q 45.703125 17.78125 41.609375 11.921875 
Q 37.015625 5.375 28.71875 5.375 
Q 20.3125 5.375 15.828125 11.921875 
Q 11.8125 17.78125 11.8125 26.953125 
Q 11.8125 35.640625 15.828125 41.703125 
Q 20.515625 48.53125 28.71875 48.53125 
z
" id="UNAVAILABLE-103"/>
     </defs>
     <g transform="translate(326.210937 38.3675)scale(0.1 -0.1)">
      <use xlink:href="#UNAVAILABLE-103"/>
      <use x="60.546875" xlink:href="#UNAVAILABLE-101"/>
      <use x="117.285156" xlink:href="#UNAVAILABLE-110"/>
      <use x="175.292969" xlink:href="#UNAVAILABLE-100"/>
      <use x="235.839844" xlink:href="#UNAVAILABLE-101"/>
      <use x="292.578125" xlink:href="#UNAVAILABLE-114"/>
     </g>
    </g>
    <g id="line2d_21">
     <path d="M 324.442187 48.637813 
L 344.442187 48.637813 
" style="fill:none;stroke:#1f77b4;stroke-linecap:square;stroke-width:1.5;"/>
    </g>
    <g id="line2d_22"/>
    <g id="text_22">
     <!-- F -->
     <defs>
      <path d="M 18.65625 71.78125 
Q 14.15625 71.78125 11.625 68.84375 
Q 9.375 66.21875 9.375 62.3125 
L 9.375 1.375 
Q 9.375 -0.09375 10.25 -0.984375 
Q 11.140625 -1.765625 12.40625 -1.765625 
Q 13.578125 -1.765625 14.453125 -0.984375 
Q 15.4375 -0.09375 15.4375 1.375 
L 15.4375 34.28125 
L 48.921875 34.28125 
Q 50.390625 34.28125 51.265625 35.15625 
Q 52.046875 35.9375 52.046875 37.015625 
Q 52.046875 38.09375 51.265625 38.875 
Q 50.390625 39.65625 48.921875 39.65625 
L 15.4375 39.65625 
L 15.4375 61.921875 
Q 15.4375 63.765625 16.40625 64.9375 
Q 17.578125 66.3125 19.734375 66.3125 
L 52.640625 66.3125 
Q 54.109375 66.3125 54.984375 67.1875 
Q 55.765625 67.96875 55.765625 69.046875 
Q 55.765625 70.21875 54.984375 71 
Q 54.109375 71.78125 52.640625 71.78125 
z
" id="UNAVAILABLE-70"/>
     </defs>
     <g transform="translate(352.442187 52.137813)scale(0.1 -0.1)">
      <use xlink:href="#UNAVAILABLE-70"/>
     </g>
    </g>
    <g id="line2d_23">
     <path d="M 324.442187 62.408125 
L 344.442187 62.408125 
" style="fill:none;stroke:#ff7f0e;stroke-linecap:square;stroke-width:1.5;"/>
    </g>
    <g id="line2d_24"/>
    <g id="text_23">
     <!-- M -->
     <defs>
      <path d="M 9.375 68.65625 
L 9.375 1.375 
Q 9.375 -0.09375 10.25 -0.984375 
Q 11.140625 -1.765625 12.40625 -1.765625 
Q 13.578125 -1.765625 14.453125 -0.984375 
Q 15.4375 -0.09375 15.4375 1.375 
L 15.4375 63.375 
L 36.234375 1.859375 
Q 37.796875 -1.765625 40.53125 -1.765625 
Q 43.359375 -1.765625 44.921875 1.859375 
L 65.71875 63.375 
L 65.71875 1.375 
Q 65.71875 -0.09375 66.609375 -0.984375 
Q 67.484375 -1.765625 68.75 -1.765625 
Q 70.015625 -1.765625 70.90625 -0.984375 
Q 71.875 -0.09375 71.875 1.375 
L 71.875 68.65625 
Q 71.875 70.796875 70.515625 72.078125 
Q 69.34375 73.25 67.578125 73.34375 
Q 65.828125 73.53125 64.265625 72.65625 
Q 62.703125 71.578125 62.109375 69.734375 
L 60.15625 63.96875 
L 40.625 7.234375 
L 21.296875 63.765625 
L 19.140625 70.015625 
Q 18.5625 71.6875 17 72.65625 
Q 15.53125 73.53125 13.671875 73.4375 
Q 11.8125 73.25 10.640625 72.078125 
Q 9.375 70.796875 9.375 68.65625 
z
" id="UNAVAILABLE-77"/>
     </defs>
     <g transform="translate(352.442187 65.908125)scale(0.1 -0.1)">
      <use xlink:href="#UNAVAILABLE-77"/>
     </g>
    </g>
   </g>
  </g>
 </g>
 <defs>
  <clipPath id="p55a2c17aca">
   <rect height="217.44" width="334.8" x="34.767188" y="22.02375"/>
  </clipPath>
 </defs>
</svg>
