<?xml version="1.0" encoding="utf-8" standalone="no"?>
<!DOCTYPE svg PUBLIC "-//W3C//DTD SVG 1.1//EN"
  "http://www.w3.org/Graphics/SVG/1.1/DTD/svg11.dtd">
<!-- Created with matplotlib (https://matplotlib.org/) -->
<svg height="614.850001pt" version="1.1" viewBox="0 0 713.96875 614.850001" width="713.96875pt" xmlns="http://www.w3.org/2000/svg" xmlns:xlink="http://www.w3.org/1999/xlink">
 <defs>
  <style type="text/css">
*{stroke-linecap:butt;stroke-linejoin:round;}
  </style>
 </defs>
 <g id="figure_1">
  <g id="patch_1">
   <path d="M 0 614.850001 
L 713.96875 614.850001 
L 713.96875 0 
L 0 0 
z
" style="fill:none;"/>
  </g>
  <g id="axes_1">
   <g id="patch_2">
    <path d="M 37.16875 185.634783 
L 706.76875 185.634783 
L 706.76875 79.2 
L 37.16875 79.2 
z
" style="fill:#ffffff;"/>
   </g>
   <g id="matplotlib.axis_1">
    <g id="xtick_1">
     <g id="line2d_1">
      <defs>
       <path d="M 0 0 
L 0 3.5 
" id="mc48488627e" style="stroke:#000000;stroke-width:0.8;"/>
      </defs>
      <g>
       <use style="stroke:#000000;stroke-width:0.8;" x="67.605114" xlink:href="#mc48488627e" y="185.634783"/>
      </g>
     </g>
    </g>
    <g id="xtick_2">
     <g id="line2d_2">
      <g>
       <use style="stroke:#000000;stroke-width:0.8;" x="169.059659" xlink:href="#mc48488627e" y="185.634783"/>
      </g>
     </g>
    </g>
    <g id="xtick_3">
     <g id="line2d_3">
      <g>
       <use style="stroke:#000000;stroke-width:0.8;" x="270.514205" xlink:href="#mc48488627e" y="185.634783"/>
      </g>
     </g>
    </g>
    <g id="xtick_4">
     <g id="line2d_4">
      <g>
       <use style="stroke:#000000;stroke-width:0.8;" x="371.96875" xlink:href="#mc48488627e" y="185.634783"/>
      </g>
     </g>
    </g>
    <g id="xtick_5">
     <g id="line2d_5">
      <g>
       <use style="stroke:#000000;stroke-width:0.8;" x="473.423295" xlink:href="#mc48488627e" y="185.634783"/>
      </g>
     </g>
    </g>
    <g id="xtick_6">
     <g id="line2d_6">
      <g>
       <use style="stroke:#000000;stroke-width:0.8;" x="574.877841" xlink:href="#mc48488627e" y="185.634783"/>
      </g>
     </g>
    </g>
    <g id="xtick_7">
     <g id="line2d_7">
      <g>
       <use style="stroke:#000000;stroke-width:0.8;" x="676.332386" xlink:href="#mc48488627e" y="185.634783"/>
      </g>
     </g>
    </g>
   </g>
   <g id="matplotlib.axis_2">
    <g id="ytick_1">
     <g id="line2d_8">
      <defs>
       <path d="M 0 0 
L -3.5 0 
" id="mc363550191" style="stroke:#000000;stroke-width:0.8;"/>
      </defs>
      <g>
       <use style="stroke:#000000;stroke-width:0.8;" x="37.16875" xlink:href="#mc363550191" y="169.516021"/>
      </g>
     </g>
     <g id="text_1">
      <!-- 1000 -->
      <defs>
       <path d="M 16.5 56.0625 
L 27.25 56.0625 
L 27.25 1.859375 
Q 27.25 0.203125 28.125 -0.875 
Q 29 -1.765625 30.28125 -1.859375 
Q 31.453125 -1.859375 32.328125 -0.875 
Q 33.296875 0.09375 33.296875 1.765625 
L 33.296875 71 
Q 33.296875 73.53125 30.765625 73.4375 
Q 28.21875 73.34375 28.125 71 
Q 27.828125 65.234375 24.515625 62.703125 
Q 21.6875 60.546875 16.21875 60.546875 
Q 13.96875 60.546875 14.0625 58.296875 
Q 14.15625 56.0625 16.5 56.0625 
z
" id="UNAVAILABLE-49"/>
       <path d="M 28.71875 73.4375 
Q 17.96875 73.4375 11.71875 61.8125 
Q 6.15625 51.265625 6.15625 35.84375 
Q 6.15625 20.515625 11.71875 9.96875 
Q 17.96875 -1.765625 28.71875 -1.765625 
Q 39.359375 -1.765625 45.609375 9.96875 
Q 51.265625 20.515625 51.265625 35.84375 
Q 51.265625 51.265625 45.609375 61.8125 
Q 39.359375 73.4375 28.71875 73.4375 
z
M 28.71875 67.96875 
Q 36.421875 67.96875 41.015625 58.015625 
Q 45.125 49.03125 45.125 35.75 
Q 45.125 22.65625 41.015625 13.671875 
Q 36.421875 3.71875 28.71875 3.71875 
Q 20.796875 3.71875 16.3125 13.671875 
Q 12.3125 22.65625 12.3125 35.75 
Q 12.3125 49.03125 16.3125 58.015625 
Q 20.796875 67.96875 28.71875 67.96875 
z
" id="UNAVAILABLE-48"/>
      </defs>
      <g transform="translate(7.2 173.187896)scale(0.1 -0.1)">
       <use xlink:href="#UNAVAILABLE-49"/>
       <use x="57.421875" xlink:href="#UNAVAILABLE-48"/>
       <use x="114.84375" xlink:href="#UNAVAILABLE-48"/>
       <use x="172.265625" xlink:href="#UNAVAILABLE-48"/>
      </g>
     </g>
    </g>
    <g id="ytick_2">
     <g id="line2d_9">
      <g>
       <use style="stroke:#000000;stroke-width:0.8;" x="37.16875" xlink:href="#mc363550191" y="142.26767"/>
      </g>
     </g>
     <g id="text_2">
      <!-- 2000 -->
      <defs>
       <path d="M 28.90625 73.4375 
Q 18.953125 73.4375 13.09375 67.28125 
Q 7.90625 61.8125 7.90625 53.8125 
L 7.90625 51.265625 
Q 7.90625 49.609375 8.796875 48.640625 
Q 9.671875 47.75 10.9375 47.75 
Q 12.203125 47.75 13.09375 48.640625 
Q 14.0625 49.515625 14.0625 50.984375 
L 14.0625 53.8125 
Q 14.0625 59.671875 17.78125 63.578125 
Q 21.875 67.96875 28.90625 67.96875 
Q 35.9375 67.96875 40.140625 63.578125 
Q 43.84375 59.671875 43.84375 53.8125 
Q 43.84375 46.6875 39.453125 41.703125 
Q 36.03125 37.984375 26.265625 31.9375 
Q 16.015625 25.78125 11.234375 18.5625 
Q 5.953125 10.640625 6.0625 -0.09375 
L 48.734375 -0.09375 
Q 50 -0.09375 50.78125 0.78125 
Q 51.5625 1.5625 51.5625 2.640625 
Q 51.5625 3.8125 50.78125 4.59375 
Q 50 5.375 48.734375 5.375 
L 12.5 5.375 
Q 13.1875 12.40625 16.5 16.890625 
Q 20.3125 22.171875 30.671875 28.609375 
L 32.625 29.984375 
Q 42.1875 36.03125 45.21875 39.546875 
Q 50 45.015625 50 53.8125 
Q 50 61.8125 44.734375 67.28125 
Q 38.765625 73.4375 28.90625 73.4375 
z
" id="UNAVAILABLE-50"/>
      </defs>
      <g transform="translate(7.2 145.939545)scale(0.1 -0.1)">
       <use xlink:href="#UNAVAILABLE-50"/>
       <use x="57.421875" xlink:href="#UNAVAILABLE-48"/>
       <use x="114.84375" xlink:href="#UNAVAILABLE-48"/>
       <use x="172.265625" xlink:href="#UNAVAILABLE-48"/>
      </g>
     </g>
    </g>
    <g id="ytick_3">
     <g id="line2d_10">
      <g>
       <use style="stroke:#000000;stroke-width:0.8;" x="37.16875" xlink:href="#mc363550191" y="115.019319"/>
      </g>
     </g>
     <g id="text_3">
      <!-- 3000 -->
      <defs>
       <path d="M 28.125 73.4375 
Q 18.265625 73.4375 12.5 67.484375 
Q 7.328125 62.109375 7.328125 54.203125 
Q 7.328125 52.734375 8.203125 51.765625 
Q 8.984375 50.984375 10.25 50.984375 
Q 11.421875 50.984375 12.203125 51.765625 
Q 13.1875 52.734375 13.1875 54.203125 
Q 13.1875 59.859375 16.796875 63.765625 
Q 20.90625 67.96875 28.03125 67.96875 
Q 34.96875 67.96875 39.0625 63.765625 
Q 42.875 59.859375 42.875 54.203125 
Q 42.875 48.734375 39.0625 44.921875 
Q 35.0625 40.828125 28.03125 40.828125 
L 25.296875 40.828125 
Q 22.5625 40.828125 22.5625 38.1875 
Q 22.5625 35.453125 25.296875 35.453125 
L 28.71875 35.453125 
Q 36.625 35.453125 41.3125 30.671875 
Q 45.515625 26.265625 45.515625 19.625 
Q 45.515625 13.28125 41.3125 8.796875 
Q 36.625 3.71875 28.71875 3.71875 
Q 20.796875 3.71875 16.109375 8.796875 
Q 12.015625 13.28125 12.015625 19.625 
L 12.015625 21.78125 
Q 12.015625 23.25 11.03125 24.03125 
Q 10.15625 24.703125 8.984375 24.703125 
Q 7.71875 24.703125 6.84375 24.03125 
Q 5.953125 23.25 5.953125 21.78125 
L 5.953125 19.734375 
Q 5.953125 11.03125 11.625 4.984375 
Q 17.875 -1.765625 28.71875 -1.765625 
Q 39.265625 -1.765625 45.609375 4.984375 
Q 51.46875 11.140625 51.46875 19.734375 
Q 51.46875 26.953125 47.265625 32.421875 
Q 44.046875 36.53125 39.75 38.375 
Q 42.875 39.75 45.515625 43.265625 
Q 49.125 47.953125 49.125 54.203125 
Q 49.125 62.015625 43.84375 67.484375 
Q 37.984375 73.4375 28.125 73.4375 
z
" id="UNAVAILABLE-51"/>
      </defs>
      <g transform="translate(7.2 118.691194)scale(0.1 -0.1)">
       <use xlink:href="#UNAVAILABLE-51"/>
       <use x="57.421875" xlink:href="#UNAVAILABLE-48"/>
       <use x="114.84375" xlink:href="#UNAVAILABLE-48"/>
       <use x="172.265625" xlink:href="#UNAVAILABLE-48"/>
      </g>
     </g>
    </g>
    <g id="ytick_4">
     <g id="line2d_11">
      <g>
       <use style="stroke:#000000;stroke-width:0.8;" x="37.16875" xlink:href="#mc363550191" y="87.770969"/>
      </g>
     </g>
     <g id="text_4">
      <!-- 4000 -->
      <defs>
       <path d="M 36.921875 62.3125 
L 36.921875 22.65625 
L 11.234375 22.65625 
z
M 35.75 70.796875 
L 5.375 24.3125 
Q 3.8125 21.875 4.296875 19.625 
Q 4.890625 17.28125 7.421875 17.28125 
L 36.921875 17.28125 
L 36.921875 1.265625 
Q 36.921875 -0.203125 37.796875 -0.984375 
Q 38.671875 -1.765625 39.9375 -1.765625 
Q 41.109375 -1.765625 42 -0.984375 
Q 42.96875 -0.09375 42.96875 1.265625 
L 42.96875 17.28125 
L 52.25 17.28125 
Q 53.609375 17.28125 54.390625 18.171875 
Q 55.171875 18.953125 55.171875 20.015625 
Q 55.171875 21.09375 54.5 21.875 
Q 53.71875 22.65625 52.546875 22.65625 
L 42.96875 22.65625 
L 42.96875 70.125 
Q 42.96875 73.25 40.234375 73.4375 
Q 37.5 73.53125 35.75 70.796875 
z
" id="UNAVAILABLE-52"/>
      </defs>
      <g transform="translate(7.2 91.442844)scale(0.1 -0.1)">
       <use xlink:href="#UNAVAILABLE-52"/>
       <use x="57.421875" xlink:href="#UNAVAILABLE-48"/>
       <use x="114.84375" xlink:href="#UNAVAILABLE-48"/>
       <use x="172.265625" xlink:href="#UNAVAILABLE-48"/>
      </g>
     </g>
    </g>
   </g>
   <g id="line2d_12">
    <path clip-path="url(#pc459368750)" d="M 67.605114 124.774229 
L 118.332386 112.212739 
L 169.059659 98.643061 
L 219.786932 87.062512 
L 270.514205 96.190709 
L 321.241477 121.313688 
L 371.96875 84.037945 
L 422.696023 92.648423 
L 473.423295 116.136502 
L 524.150568 135.564576 
L 574.877841 141.668206 
L 625.605114 151.85909 
L 676.332386 180.796838 
" style="fill:none;stroke:#1f77b4;stroke-linecap:square;stroke-width:1.5;"/>
   </g>
   <g id="patch_3">
    <path d="M 37.16875 185.634783 
L 37.16875 79.2 
" style="fill:none;stroke:#000000;stroke-linecap:square;stroke-linejoin:miter;stroke-width:0.8;"/>
   </g>
   <g id="patch_4">
    <path d="M 706.76875 185.634783 
L 706.76875 79.2 
" style="fill:none;stroke:#000000;stroke-linecap:square;stroke-linejoin:miter;stroke-width:0.8;"/>
   </g>
   <g id="patch_5">
    <path d="M 37.16875 185.634783 
L 706.76875 185.634783 
" style="fill:none;stroke:#000000;stroke-linecap:square;stroke-linejoin:miter;stroke-width:0.8;"/>
   </g>
   <g id="patch_6">
    <path d="M 37.16875 79.2 
L 706.76875 79.2 
" style="fill:none;stroke:#000000;stroke-linecap:square;stroke-linejoin:miter;stroke-width:0.8;"/>
   </g>
   <g id="legend_1">
    <g id="patch_7">
     <path d="M 647.76875 100.970312 
L 699.76875 100.970312 
Q 701.76875 100.970312 701.76875 98.970312 
L 701.76875 86.2 
Q 701.76875 84.2 699.76875 84.2 
L 647.76875 84.2 
Q 645.76875 84.2 645.76875 86.2 
L 645.76875 98.970312 
Q 645.76875 100.970312 647.76875 100.970312 
z
" style="fill:#ffffff;opacity:0.8;stroke:#cccccc;stroke-linejoin:miter;"/>
    </g>
    <g id="line2d_13">
     <path d="M 649.76875 92.04375 
L 669.76875 92.04375 
" style="fill:none;stroke:#1f77b4;stroke-linecap:square;stroke-width:1.5;"/>
    </g>
    <g id="line2d_14"/>
    <g id="text_5">
     <!-- 민준 -->
     <defs>
      <path d="M 48.921875 64.546875 
L 48.921875 38.96875 
Q 48.921875 36.8125 47.859375 35.9375 
Q 46.875 35.25 44.53125 35.25 
L 23.640625 35.25 
Q 21.1875 35.25 20.3125 36.03125 
Q 19.34375 36.8125 19.34375 38.96875 
L 19.34375 64.15625 
Q 19.34375 66.703125 20.21875 67.671875 
Q 21.1875 68.75 23.53125 68.75 
L 44.34375 68.75 
Q 46.875 68.75 47.953125 67.671875 
Q 48.921875 66.703125 48.921875 64.546875 
z
M 45.40625 73.734375 
L 22.265625 73.734375 
Q 18.265625 73.734375 15.828125 71.1875 
Q 13.578125 68.84375 13.578125 65.328125 
L 13.578125 38.28125 
Q 13.578125 34.765625 15.71875 32.515625 
Q 17.96875 30.28125 21.578125 30.28125 
L 45.703125 30.28125 
Q 49.703125 30.28125 52.15625 32.421875 
Q 54.59375 34.578125 54.59375 38.375 
L 54.59375 66.015625 
Q 54.59375 69.34375 52.046875 71.484375 
Q 49.515625 73.734375 45.40625 73.734375 
z
M 81.453125 20.21875 
L 81.453125 74.125 
Q 81.453125 75.390625 80.46875 76.078125 
Q 79.6875 76.765625 78.515625 76.765625 
Q 77.25 76.765625 76.46875 76.078125 
Q 75.59375 75.296875 75.59375 74.03125 
L 75.59375 20.21875 
Q 75.59375 18.75 76.46875 17.875 
Q 77.25 17.09375 78.515625 17.09375 
Q 79.6875 17.09375 80.46875 17.875 
Q 81.453125 18.75 81.453125 20.21875 
z
M 24.515625 19.046875 
Q 24.515625 20.609375 23.53125 21.484375 
Q 22.75 22.265625 21.578125 22.265625 
Q 20.3125 22.265625 19.53125 21.484375 
Q 18.65625 20.609375 18.65625 19.046875 
L 18.65625 6.0625 
Q 18.65625 1.765625 21.390625 -0.484375 
Q 23.921875 -2.640625 28.328125 -2.640625 
L 81.9375 -2.640625 
Q 84.375 -2.640625 84.375 -0.09375 
Q 84.375 2.34375 81.9375 2.34375 
L 29.296875 2.34375 
Q 26.46875 2.34375 25.484375 3.21875 
Q 24.515625 4.203125 24.515625 6.84375 
z
" id="UNAVAILABLE-48124"/>
      <path d="M 81.640625 74.90625 
L 18.65625 74.90625 
Q 15.921875 74.90625 15.921875 72.46875 
Q 15.828125 69.921875 18.5625 69.921875 
L 47.171875 69.921875 
Q 47.171875 62.3125 37.5 56.734375 
Q 28.328125 51.46875 15.53125 50.875 
Q 13.875 50.875 13.09375 50 
Q 12.40625 49.21875 12.703125 48.140625 
Q 12.890625 47.078125 13.765625 46.296875 
Q 14.84375 45.515625 16.40625 45.609375 
Q 28.21875 46.390625 37.984375 51.171875 
Q 46.96875 55.5625 50 61.140625 
Q 53.125 55.671875 62.203125 51.171875 
Q 72.265625 46.296875 83.890625 45.609375 
Q 85.25 45.515625 86.234375 46.390625 
Q 87.109375 47.078125 87.3125 48.140625 
Q 87.5 49.21875 86.921875 50 
Q 86.234375 50.875 84.859375 50.875 
Q 71.6875 51.265625 62.3125 56.734375 
Q 52.828125 62.203125 52.828125 69.921875 
L 81.640625 69.921875 
Q 84.078125 69.921875 84.078125 72.46875 
Q 84.078125 74.90625 81.640625 74.90625 
z
M 88.1875 36.8125 
L 12.109375 36.8125 
Q 9.28125 36.8125 9.1875 34.375 
Q 8.984375 31.84375 11.625 31.84375 
L 47.171875 31.84375 
L 47.171875 15.921875 
Q 47.171875 14.546875 48.046875 13.765625 
Q 48.828125 13.09375 50 13.09375 
Q 51.078125 13.09375 51.859375 13.875 
Q 52.828125 14.75 52.828125 16.21875 
L 52.828125 31.84375 
L 88.375 31.84375 
Q 90.828125 31.84375 90.828125 34.375 
Q 90.71875 36.8125 88.1875 36.8125 
z
M 22.859375 16.890625 
Q 22.859375 18.65625 21.875 19.625 
Q 21.09375 20.515625 19.921875 20.515625 
Q 18.65625 20.515625 17.875 19.625 
Q 17 18.65625 17 16.890625 
L 17 5.953125 
Q 17 2.15625 19.234375 -0.203125 
Q 21.484375 -2.640625 25.390625 -2.640625 
L 81.546875 -2.640625 
Q 84.078125 -2.640625 84.078125 -0.09375 
Q 84.078125 2.34375 81.546875 2.34375 
L 27.546875 2.34375 
Q 24.8125 2.34375 23.828125 3.21875 
Q 22.859375 4.203125 22.859375 6.84375 
z
" id="UNAVAILABLE-51456"/>
     </defs>
     <g transform="translate(677.76875 95.54375)scale(0.1 -0.1)">
      <use xlink:href="#UNAVAILABLE-48124"/>
      <use x="100" xlink:href="#UNAVAILABLE-51456"/>
     </g>
    </g>
   </g>
  </g>
  <g id="axes_2">
   <g id="patch_8">
    <path d="M 37.16875 313.356522 
L 706.76875 313.356522 
L 706.76875 206.921739 
L 37.16875 206.921739 
z
" style="fill:#ffffff;"/>
   </g>
   <g id="matplotlib.axis_3">
    <g id="xtick_8">
     <g id="line2d_15">
      <g>
       <use style="stroke:#000000;stroke-width:0.8;" x="67.605114" xlink:href="#mc48488627e" y="313.356522"/>
      </g>
     </g>
    </g>
    <g id="xtick_9">
     <g id="line2d_16">
      <g>
       <use style="stroke:#000000;stroke-width:0.8;" x="169.059659" xlink:href="#mc48488627e" y="313.356522"/>
      </g>
     </g>
    </g>
    <g id="xtick_10">
     <g id="line2d_17">
      <g>
       <use style="stroke:#000000;stroke-width:0.8;" x="270.514205" xlink:href="#mc48488627e" y="313.356522"/>
      </g>
     </g>
    </g>
    <g id="xtick_11">
     <g id="line2d_18">
      <g>
       <use style="stroke:#000000;stroke-width:0.8;" x="371.96875" xlink:href="#mc48488627e" y="313.356522"/>
      </g>
     </g>
    </g>
    <g id="xtick_12">
     <g id="line2d_19">
      <g>
       <use style="stroke:#000000;stroke-width:0.8;" x="473.423295" xlink:href="#mc48488627e" y="313.356522"/>
      </g>
     </g>
    </g>
    <g id="xtick_13">
     <g id="line2d_20">
      <g>
       <use style="stroke:#000000;stroke-width:0.8;" x="574.877841" xlink:href="#mc48488627e" y="313.356522"/>
      </g>
     </g>
    </g>
    <g id="xtick_14">
     <g id="line2d_21">
      <g>
       <use style="stroke:#000000;stroke-width:0.8;" x="676.332386" xlink:href="#mc48488627e" y="313.356522"/>
      </g>
     </g>
    </g>
   </g>
   <g id="matplotlib.axis_4">
    <g id="ytick_5">
     <g id="line2d_22">
      <g>
       <use style="stroke:#000000;stroke-width:0.8;" x="37.16875" xlink:href="#mc363550191" y="289.44682"/>
      </g>
     </g>
     <g id="text_6">
      <!-- 1000 -->
      <g transform="translate(7.2 293.118695)scale(0.1 -0.1)">
       <use xlink:href="#UNAVAILABLE-49"/>
       <use x="57.421875" xlink:href="#UNAVAILABLE-48"/>
       <use x="114.84375" xlink:href="#UNAVAILABLE-48"/>
       <use x="172.265625" xlink:href="#UNAVAILABLE-48"/>
      </g>
     </g>
    </g>
    <g id="ytick_6">
     <g id="line2d_23">
      <g>
       <use style="stroke:#000000;stroke-width:0.8;" x="37.16875" xlink:href="#mc363550191" y="251.606033"/>
      </g>
     </g>
     <g id="text_7">
      <!-- 2000 -->
      <g transform="translate(7.2 255.277908)scale(0.1 -0.1)">
       <use xlink:href="#UNAVAILABLE-50"/>
       <use x="57.421875" xlink:href="#UNAVAILABLE-48"/>
       <use x="114.84375" xlink:href="#UNAVAILABLE-48"/>
       <use x="172.265625" xlink:href="#UNAVAILABLE-48"/>
      </g>
     </g>
    </g>
    <g id="ytick_7">
     <g id="line2d_24">
      <g>
       <use style="stroke:#000000;stroke-width:0.8;" x="37.16875" xlink:href="#mc363550191" y="213.765246"/>
      </g>
     </g>
     <g id="text_8">
      <!-- 3000 -->
      <g transform="translate(7.2 217.437121)scale(0.1 -0.1)">
       <use xlink:href="#UNAVAILABLE-51"/>
       <use x="57.421875" xlink:href="#UNAVAILABLE-48"/>
       <use x="114.84375" xlink:href="#UNAVAILABLE-48"/>
       <use x="172.265625" xlink:href="#UNAVAILABLE-48"/>
      </g>
     </g>
    </g>
   </g>
   <g id="line2d_25">
    <path clip-path="url(#pb7480f138f)" d="M 118.332386 308.518577 
L 169.059659 301.631554 
L 219.786932 283.392294 
L 270.514205 281.500255 
L 321.241477 272.267103 
L 371.96875 214.635584 
L 422.696023 211.759684 
L 473.423295 217.776369 
L 524.150568 224.247144 
L 574.877841 227.879859 
L 625.605114 239.91323 
L 676.332386 294.820212 
" style="fill:none;stroke:#ff7f0e;stroke-linecap:square;stroke-width:1.5;"/>
   </g>
   <g id="patch_9">
    <path d="M 37.16875 313.356522 
L 37.16875 206.921739 
" style="fill:none;stroke:#000000;stroke-linecap:square;stroke-linejoin:miter;stroke-width:0.8;"/>
   </g>
   <g id="patch_10">
    <path d="M 706.76875 313.356522 
L 706.76875 206.921739 
" style="fill:none;stroke:#000000;stroke-linecap:square;stroke-linejoin:miter;stroke-width:0.8;"/>
   </g>
   <g id="patch_11">
    <path d="M 37.16875 313.356522 
L 706.76875 313.356522 
" style="fill:none;stroke:#000000;stroke-linecap:square;stroke-linejoin:miter;stroke-width:0.8;"/>
   </g>
   <g id="patch_12">
    <path d="M 37.16875 206.921739 
L 706.76875 206.921739 
" style="fill:none;stroke:#000000;stroke-linecap:square;stroke-linejoin:miter;stroke-width:0.8;"/>
   </g>
   <g id="legend_2">
    <g id="patch_13">
     <path d="M 647.76875 228.692052 
L 699.76875 228.692052 
Q 701.76875 228.692052 701.76875 226.692052 
L 701.76875 213.921739 
Q 701.76875 211.921739 699.76875 211.921739 
L 647.76875 211.921739 
Q 645.76875 211.921739 645.76875 213.921739 
L 645.76875 226.692052 
Q 645.76875 228.692052 647.76875 228.692052 
z
" style="fill:#ffffff;opacity:0.8;stroke:#cccccc;stroke-linejoin:miter;"/>
    </g>
    <g id="line2d_26">
     <path d="M 649.76875 219.765489 
L 669.76875 219.765489 
" style="fill:none;stroke:#ff7f0e;stroke-linecap:square;stroke-width:1.5;"/>
    </g>
    <g id="line2d_27"/>
    <g id="text_9">
     <!-- 하준 -->
     <defs>
      <path d="M 49.125 74.90625 
L 23.53125 74.90625 
Q 20.796875 74.90625 20.796875 72.46875 
Q 20.796875 69.921875 23.53125 69.921875 
L 49.3125 69.921875 
Q 51.953125 69.921875 51.859375 72.46875 
Q 51.859375 74.90625 49.125 74.90625 
z
M 59.46875 61.140625 
L 12.984375 61.140625 
Q 10.25 61.140625 10.25 58.6875 
Q 10.25 56.25 12.984375 56.25 
L 59.671875 56.25 
Q 60.9375 56.25 61.71875 57.03125 
Q 62.40625 57.71875 62.40625 58.6875 
Q 62.40625 59.765625 61.625 60.453125 
Q 60.84375 61.140625 59.46875 61.140625 
z
M 36.625 48.640625 
Q 25.6875 48.640625 19.34375 41.40625 
Q 13.578125 34.859375 13.578125 25.390625 
Q 13.578125 16.015625 19.34375 9.375 
Q 25.6875 2.046875 36.625 2.046875 
Q 47.265625 2.046875 53.71875 9.375 
Q 59.46875 16.015625 59.46875 25.390625 
Q 59.46875 34.765625 53.71875 41.40625 
Q 47.265625 48.640625 36.625 48.640625 
z
M 36.625 43.65625 
Q 44.625 43.65625 49.421875 37.984375 
Q 53.71875 32.90625 53.71875 25.390625 
Q 53.71875 17.96875 49.421875 12.890625 
Q 44.625 7.125 36.625 7.125 
Q 28.421875 7.125 23.640625 12.890625 
Q 19.34375 17.96875 19.34375 25.390625 
Q 19.34375 32.90625 23.640625 37.984375 
Q 28.421875 43.65625 36.625 43.65625 
z
M 78.609375 38.28125 
L 78.609375 74.03125 
Q 78.609375 75.296875 77.640625 76.078125 
Q 76.859375 76.65625 75.6875 76.65625 
Q 74.515625 76.65625 73.734375 76.078125 
Q 72.859375 75.296875 72.859375 74.03125 
L 72.859375 -2.15625 
Q 72.859375 -3.421875 73.734375 -4.203125 
Q 74.515625 -4.984375 75.6875 -4.984375 
Q 76.859375 -4.984375 77.640625 -4.203125 
Q 78.609375 -3.421875 78.609375 -2.15625 
L 78.609375 33.5 
L 89.453125 33.5 
Q 91.796875 33.5 91.796875 35.9375 
Q 91.796875 38.28125 89.453125 38.28125 
z
" id="UNAVAILABLE-54616"/>
     </defs>
     <g transform="translate(677.76875 223.265489)scale(0.1 -0.1)">
      <use xlink:href="#UNAVAILABLE-54616"/>
      <use x="100" xlink:href="#UNAVAILABLE-51456"/>
     </g>
    </g>
   </g>
  </g>
  <g id="axes_3">
   <g id="patch_14">
    <path d="M 37.16875 441.078261 
L 706.76875 441.078261 
L 706.76875 334.643478 
L 37.16875 334.643478 
z
" style="fill:#ffffff;"/>
   </g>
   <g id="matplotlib.axis_5">
    <g id="xtick_15">
     <g id="line2d_28">
      <g>
       <use style="stroke:#000000;stroke-width:0.8;" x="67.605114" xlink:href="#mc48488627e" y="441.078261"/>
      </g>
     </g>
    </g>
    <g id="xtick_16">
     <g id="line2d_29">
      <g>
       <use style="stroke:#000000;stroke-width:0.8;" x="169.059659" xlink:href="#mc48488627e" y="441.078261"/>
      </g>
     </g>
    </g>
    <g id="xtick_17">
     <g id="line2d_30">
      <g>
       <use style="stroke:#000000;stroke-width:0.8;" x="270.514205" xlink:href="#mc48488627e" y="441.078261"/>
      </g>
     </g>
    </g>
    <g id="xtick_18">
     <g id="line2d_31">
      <g>
       <use style="stroke:#000000;stroke-width:0.8;" x="371.96875" xlink:href="#mc48488627e" y="441.078261"/>
      </g>
     </g>
    </g>
    <g id="xtick_19">
     <g id="line2d_32">
      <g>
       <use style="stroke:#000000;stroke-width:0.8;" x="473.423295" xlink:href="#mc48488627e" y="441.078261"/>
      </g>
     </g>
    </g>
    <g id="xtick_20">
     <g id="line2d_33">
      <g>
       <use style="stroke:#000000;stroke-width:0.8;" x="574.877841" xlink:href="#mc48488627e" y="441.078261"/>
      </g>
     </g>
    </g>
    <g id="xtick_21">
     <g id="line2d_34">
      <g>
       <use style="stroke:#000000;stroke-width:0.8;" x="676.332386" xlink:href="#mc48488627e" y="441.078261"/>
      </g>
     </g>
    </g>
   </g>
   <g id="matplotlib.axis_6">
    <g id="ytick_8">
     <g id="line2d_35">
      <g>
       <use style="stroke:#000000;stroke-width:0.8;" x="37.16875" xlink:href="#mc363550191" y="420.505332"/>
      </g>
     </g>
     <g id="text_10">
      <!-- 1000 -->
      <g transform="translate(7.2 424.177207)scale(0.1 -0.1)">
       <use xlink:href="#UNAVAILABLE-49"/>
       <use x="57.421875" xlink:href="#UNAVAILABLE-48"/>
       <use x="114.84375" xlink:href="#UNAVAILABLE-48"/>
       <use x="172.265625" xlink:href="#UNAVAILABLE-48"/>
      </g>
     </g>
    </g>
    <g id="ytick_9">
     <g id="line2d_36">
      <g>
       <use style="stroke:#000000;stroke-width:0.8;" x="37.16875" xlink:href="#mc363550191" y="388.327449"/>
      </g>
     </g>
     <g id="text_11">
      <!-- 2000 -->
      <g transform="translate(7.2 391.999324)scale(0.1 -0.1)">
       <use xlink:href="#UNAVAILABLE-50"/>
       <use x="57.421875" xlink:href="#UNAVAILABLE-48"/>
       <use x="114.84375" xlink:href="#UNAVAILABLE-48"/>
       <use x="172.265625" xlink:href="#UNAVAILABLE-48"/>
      </g>
     </g>
    </g>
    <g id="ytick_10">
     <g id="line2d_37">
      <g>
       <use style="stroke:#000000;stroke-width:0.8;" x="37.16875" xlink:href="#mc363550191" y="356.149566"/>
      </g>
     </g>
     <g id="text_12">
      <!-- 3000 -->
      <g transform="translate(7.2 359.821441)scale(0.1 -0.1)">
       <use xlink:href="#UNAVAILABLE-51"/>
       <use x="57.421875" xlink:href="#UNAVAILABLE-48"/>
       <use x="114.84375" xlink:href="#UNAVAILABLE-48"/>
       <use x="172.265625" xlink:href="#UNAVAILABLE-48"/>
      </g>
     </g>
    </g>
   </g>
   <g id="line2d_38">
    <path clip-path="url(#p17e4cce38f)" d="M 67.605114 347.139759 
L 118.332386 339.610134 
L 169.059659 339.481423 
L 219.786932 352.577821 
L 270.514205 348.105095 
L 321.241477 351.869908 
L 371.96875 345.402153 
L 422.696023 355.666898 
L 473.423295 370.597435 
L 524.150568 385.914108 
L 574.877841 395.277872 
L 625.605114 407.441111 
L 676.332386 436.240316 
" style="fill:none;stroke:#2ca02c;stroke-linecap:square;stroke-width:1.5;"/>
   </g>
   <g id="patch_15">
    <path d="M 37.16875 441.078261 
L 37.16875 334.643478 
" style="fill:none;stroke:#000000;stroke-linecap:square;stroke-linejoin:miter;stroke-width:0.8;"/>
   </g>
   <g id="patch_16">
    <path d="M 706.76875 441.078261 
L 706.76875 334.643478 
" style="fill:none;stroke:#000000;stroke-linecap:square;stroke-linejoin:miter;stroke-width:0.8;"/>
   </g>
   <g id="patch_17">
    <path d="M 37.16875 441.078261 
L 706.76875 441.078261 
" style="fill:none;stroke:#000000;stroke-linecap:square;stroke-linejoin:miter;stroke-width:0.8;"/>
   </g>
   <g id="patch_18">
    <path d="M 37.16875 334.643478 
L 706.76875 334.643478 
" style="fill:none;stroke:#000000;stroke-linecap:square;stroke-linejoin:miter;stroke-width:0.8;"/>
   </g>
   <g id="legend_3">
    <g id="patch_19">
     <path d="M 647.76875 356.413791 
L 699.76875 356.413791 
Q 701.76875 356.413791 701.76875 354.413791 
L 701.76875 341.643478 
Q 701.76875 339.643478 699.76875 339.643478 
L 647.76875 339.643478 
Q 645.76875 339.643478 645.76875 341.643478 
L 645.76875 354.413791 
Q 645.76875 356.413791 647.76875 356.413791 
z
" style="fill:#ffffff;opacity:0.8;stroke:#cccccc;stroke-linejoin:miter;"/>
    </g>
    <g id="line2d_39">
     <path d="M 649.76875 347.487228 
L 669.76875 347.487228 
" style="fill:none;stroke:#2ca02c;stroke-linecap:square;stroke-width:1.5;"/>
    </g>
    <g id="line2d_40"/>
    <g id="text_13">
     <!-- 서연 -->
     <defs>
      <path d="M 33.796875 71.6875 
Q 33.796875 56.34375 27.734375 38.671875 
Q 21.390625 20.21875 11.234375 7.515625 
Q 10.15625 6.34375 10.15625 5.078125 
Q 10.25 4 11.03125 3.328125 
Q 11.8125 2.640625 12.890625 2.640625 
Q 14.0625 2.734375 14.9375 3.71875 
Q 21.78125 12.796875 26.859375 22.65625 
Q 30.765625 30.5625 33.5 38.671875 
Q 39.359375 31.34375 45.609375 21.6875 
Q 51.5625 12.40625 55.375 4.78125 
Q 55.953125 3.515625 57.234375 3.125 
Q 58.40625 2.828125 59.46875 3.328125 
Q 60.640625 3.90625 60.9375 5.078125 
Q 61.421875 6.34375 60.640625 7.71875 
Q 55.953125 16.3125 49.3125 25.875 
Q 43.0625 35.0625 35.359375 44.53125 
Q 37.3125 52.046875 38.375 58.984375 
Q 39.546875 66.109375 39.546875 71.6875 
Q 39.546875 73.046875 38.578125 73.828125 
Q 37.796875 74.609375 36.625 74.609375 
Q 35.453125 74.609375 34.671875 73.828125 
Q 33.796875 73.046875 33.796875 71.6875 
z
M 81.453125 -1.859375 
L 81.453125 73.734375 
Q 81.453125 75.203125 80.46875 75.984375 
Q 79.6875 76.65625 78.515625 76.65625 
Q 77.25 76.65625 76.46875 75.984375 
Q 75.59375 75.203125 75.59375 73.734375 
L 75.59375 42.28125 
L 49.421875 42.28125 
Q 47.953125 42.28125 47.078125 41.609375 
Q 46.296875 40.921875 46.296875 39.84375 
Q 46.296875 38.875 47.171875 38.1875 
Q 48.046875 37.40625 49.609375 37.40625 
L 75.59375 37.40625 
L 75.59375 -1.859375 
Q 75.59375 -3.328125 76.46875 -4.203125 
Q 77.25 -5.078125 78.515625 -5.078125 
Q 79.6875 -5.078125 80.46875 -4.203125 
Q 81.453125 -3.328125 81.453125 -1.859375 
z
" id="UNAVAILABLE-49436"/>
      <path d="M 34.859375 74.21875 
Q 24.21875 74.21875 17.96875 66.890625 
Q 12.40625 60.359375 12.40625 50.78125 
Q 12.40625 41.3125 17.96875 34.671875 
Q 24.21875 27.34375 34.859375 27.34375 
Q 45.3125 27.34375 51.46875 34.671875 
Q 57.03125 41.21875 57.03125 50.78125 
Q 57.03125 60.359375 51.46875 66.890625 
Q 45.3125 74.21875 34.859375 74.21875 
z
M 34.859375 69.234375 
Q 42.78125 69.234375 47.265625 63.484375 
Q 51.375 58.40625 51.375 50.78125 
Q 51.375 43.171875 47.265625 38.09375 
Q 42.78125 32.328125 34.859375 32.328125 
Q 26.765625 32.328125 22.265625 38.09375 
Q 18.265625 43.171875 18.265625 50.78125 
Q 18.265625 58.40625 22.265625 63.484375 
Q 26.859375 69.234375 34.859375 69.234375 
z
M 81.453125 20.21875 
L 81.453125 74.125 
Q 81.453125 75.390625 80.46875 76.078125 
Q 79.6875 76.765625 78.515625 76.765625 
Q 77.25 76.765625 76.46875 76.078125 
Q 75.59375 75.296875 75.59375 74.03125 
L 75.59375 61.53125 
L 58.890625 61.53125 
Q 57.421875 61.53125 56.640625 60.84375 
Q 55.953125 60.0625 55.953125 59.078125 
Q 56.0625 58.109375 56.84375 57.328125 
Q 57.8125 56.546875 59.375 56.546875 
L 75.59375 56.546875 
L 75.59375 43.75 
L 59.078125 43.75 
Q 57.625 43.75 56.734375 43.0625 
Q 56.0625 42.390625 56.0625 41.3125 
Q 56.0625 40.328125 56.84375 39.65625 
Q 57.71875 38.875 59.1875 38.875 
L 75.59375 38.875 
L 75.59375 20.21875 
Q 75.59375 18.75 76.46875 17.875 
Q 77.25 17.09375 78.515625 17.09375 
Q 79.6875 17.09375 80.46875 17.875 
Q 81.453125 18.75 81.453125 20.21875 
z
M 24.515625 19.046875 
Q 24.515625 20.609375 23.53125 21.484375 
Q 22.75 22.265625 21.578125 22.265625 
Q 20.3125 22.265625 19.53125 21.484375 
Q 18.65625 20.609375 18.65625 19.046875 
L 18.65625 6.0625 
Q 18.65625 1.765625 21.390625 -0.484375 
Q 23.921875 -2.640625 28.328125 -2.640625 
L 81.9375 -2.640625 
Q 84.375 -2.640625 84.375 -0.09375 
Q 84.375 2.34375 81.9375 2.34375 
L 29.296875 2.34375 
Q 26.46875 2.34375 25.484375 3.21875 
Q 24.515625 4.203125 24.515625 6.84375 
z
" id="UNAVAILABLE-50672"/>
     </defs>
     <g transform="translate(677.76875 350.987228)scale(0.1 -0.1)">
      <use xlink:href="#UNAVAILABLE-49436"/>
      <use x="100" xlink:href="#UNAVAILABLE-50672"/>
     </g>
    </g>
   </g>
  </g>
  <g id="axes_4">
   <g id="patch_20">
    <path d="M 37.16875 568.8 
L 706.76875 568.8 
L 706.76875 462.365217 
L 37.16875 462.365217 
z
" style="fill:#ffffff;"/>
   </g>
   <g id="matplotlib.axis_7">
    <g id="xtick_22">
     <g id="line2d_41">
      <g>
       <use style="stroke:#000000;stroke-width:0.8;" x="67.605114" xlink:href="#mc48488627e" y="568.8"/>
      </g>
     </g>
     <g id="text_14">
      <!-- 2008 -->
      <defs>
       <path d="M 50.296875 54.890625 
Q 50.296875 62.40625 44.828125 67.671875 
Q 38.765625 73.4375 28.8125 73.4375 
Q 18.84375 73.4375 12.796875 67.671875 
Q 7.421875 62.40625 7.421875 54.890625 
Q 7.421875 48.640625 10.75 44.234375 
Q 13.28125 40.828125 16.796875 39.359375 
Q 11.328125 36.421875 8.296875 31.640625 
Q 5.171875 26.5625 5.171875 20.125 
Q 5.171875 11.328125 11.140625 5.078125 
Q 17.78125 -1.765625 28.71875 -1.765625 
Q 39.75 -1.765625 46.390625 5.078125 
Q 52.4375 11.328125 52.4375 20.125 
Q 52.4375 26.5625 49.03125 31.84375 
Q 45.796875 36.8125 40.625 39.265625 
Q 44.234375 40.71875 46.875 44.140625 
Q 50.296875 48.640625 50.296875 54.890625 
z
M 28.8125 36.421875 
Q 37.015625 36.421875 42 31.34375 
Q 46.578125 26.765625 46.578125 20.015625 
Q 46.578125 13.375 42 8.796875 
Q 37.015625 3.71875 28.8125 3.71875 
Q 20.515625 3.71875 15.625 8.796875 
Q 11.140625 13.375 11.140625 20.015625 
Q 11.140625 26.765625 15.625 31.34375 
Q 20.515625 36.421875 28.8125 36.421875 
z
M 28.8125 67.96875 
Q 36.03125 67.96875 40.4375 63.96875 
Q 44.4375 60.25 44.4375 54.890625 
Q 44.4375 49.515625 40.4375 45.90625 
Q 36.03125 41.796875 28.8125 41.796875 
Q 21.578125 41.796875 17.28125 45.90625 
Q 13.375 49.515625 13.375 54.890625 
Q 13.375 60.25 17.28125 63.96875 
Q 21.578125 67.96875 28.8125 67.96875 
z
" id="UNAVAILABLE-56"/>
      </defs>
      <g transform="translate(47.000311 593.644249)rotate(-30)scale(0.1 -0.1)">
       <use xlink:href="#UNAVAILABLE-50"/>
       <use x="57.421875" xlink:href="#UNAVAILABLE-48"/>
       <use x="114.84375" xlink:href="#UNAVAILABLE-48"/>
       <use x="172.265625" xlink:href="#UNAVAILABLE-56"/>
      </g>
     </g>
    </g>
    <g id="xtick_23">
     <g id="line2d_42">
      <g>
       <use style="stroke:#000000;stroke-width:0.8;" x="169.059659" xlink:href="#mc48488627e" y="568.8"/>
      </g>
     </g>
     <g id="text_15">
      <!-- 2010 -->
      <g transform="translate(148.454857 593.644249)rotate(-30)scale(0.1 -0.1)">
       <use xlink:href="#UNAVAILABLE-50"/>
       <use x="57.421875" xlink:href="#UNAVAILABLE-48"/>
       <use x="114.84375" xlink:href="#UNAVAILABLE-49"/>
       <use x="172.265625" xlink:href="#UNAVAILABLE-48"/>
      </g>
     </g>
    </g>
    <g id="xtick_24">
     <g id="line2d_43">
      <g>
       <use style="stroke:#000000;stroke-width:0.8;" x="270.514205" xlink:href="#mc48488627e" y="568.8"/>
      </g>
     </g>
     <g id="text_16">
      <!-- 2012 -->
      <g transform="translate(249.909402 593.644249)rotate(-30)scale(0.1 -0.1)">
       <use xlink:href="#UNAVAILABLE-50"/>
       <use x="57.421875" xlink:href="#UNAVAILABLE-48"/>
       <use x="114.84375" xlink:href="#UNAVAILABLE-49"/>
       <use x="172.265625" xlink:href="#UNAVAILABLE-50"/>
      </g>
     </g>
    </g>
    <g id="xtick_25">
     <g id="line2d_44">
      <g>
       <use style="stroke:#000000;stroke-width:0.8;" x="371.96875" xlink:href="#mc48488627e" y="568.8"/>
      </g>
     </g>
     <g id="text_17">
      <!-- 2014 -->
      <g transform="translate(351.363948 593.644249)rotate(-30)scale(0.1 -0.1)">
       <use xlink:href="#UNAVAILABLE-50"/>
       <use x="57.421875" xlink:href="#UNAVAILABLE-48"/>
       <use x="114.84375" xlink:href="#UNAVAILABLE-49"/>
       <use x="172.265625" xlink:href="#UNAVAILABLE-52"/>
      </g>
     </g>
    </g>
    <g id="xtick_26">
     <g id="line2d_45">
      <g>
       <use style="stroke:#000000;stroke-width:0.8;" x="473.423295" xlink:href="#mc48488627e" y="568.8"/>
      </g>
     </g>
     <g id="text_18">
      <!-- 2016 -->
      <defs>
       <path d="M 12.203125 22.46875 
Q 12.203125 30.171875 17 35.25 
Q 21.875 40.328125 29.296875 40.328125 
Q 37.40625 40.328125 41.703125 34.96875 
Q 45.40625 30.171875 45.40625 22.5625 
Q 45.40625 14.0625 40.828125 8.890625 
Q 36.328125 3.71875 29 3.71875 
Q 21.578125 3.71875 16.890625 8.890625 
Q 12.203125 14.0625 12.203125 22.46875 
z
M 31.0625 73.4375 
Q 18.171875 73.4375 11.625 60.25 
Q 6.0625 48.734375 6.0625 29.5 
Q 6.0625 11.53125 13.375 3.8125 
Q 18.75 -1.765625 28.125 -1.765625 
Q 39.15625 -1.765625 45.21875 4.6875 
Q 51.46875 11.234375 51.46875 23.25 
Q 51.46875 34.28125 44.34375 40.625 
Q 38.375 45.796875 30.859375 45.796875 
Q 23.734375 45.796875 18.65625 42.96875 
Q 14.546875 40.625 12.203125 36.71875 
Q 12.890625 49.125 16.609375 57.234375 
Q 21.578125 67.96875 30.953125 67.96875 
Q 36.71875 67.96875 40.046875 64.75 
Q 42.875 62.015625 43.65625 57.234375 
Q 44.234375 54.296875 47.171875 54.78125 
Q 50.203125 55.375 49.90625 58.109375 
Q 48.921875 65.921875 43.359375 69.921875 
Q 38.484375 73.4375 31.0625 73.4375 
z
" id="UNAVAILABLE-54"/>
      </defs>
      <g transform="translate(452.818493 593.644249)rotate(-30)scale(0.1 -0.1)">
       <use xlink:href="#UNAVAILABLE-50"/>
       <use x="57.421875" xlink:href="#UNAVAILABLE-48"/>
       <use x="114.84375" xlink:href="#UNAVAILABLE-49"/>
       <use x="172.265625" xlink:href="#UNAVAILABLE-54"/>
      </g>
     </g>
    </g>
    <g id="xtick_27">
     <g id="line2d_46">
      <g>
       <use style="stroke:#000000;stroke-width:0.8;" x="574.877841" xlink:href="#mc48488627e" y="568.8"/>
      </g>
     </g>
     <g id="text_19">
      <!-- 2018 -->
      <g transform="translate(554.273039 593.644249)rotate(-30)scale(0.1 -0.1)">
       <use xlink:href="#UNAVAILABLE-50"/>
       <use x="57.421875" xlink:href="#UNAVAILABLE-48"/>
       <use x="114.84375" xlink:href="#UNAVAILABLE-49"/>
       <use x="172.265625" xlink:href="#UNAVAILABLE-56"/>
      </g>
     </g>
    </g>
    <g id="xtick_28">
     <g id="line2d_47">
      <g>
       <use style="stroke:#000000;stroke-width:0.8;" x="676.332386" xlink:href="#mc48488627e" y="568.8"/>
      </g>
     </g>
     <g id="text_20">
      <!-- 2020 -->
      <g transform="translate(655.727584 593.644249)rotate(-30)scale(0.1 -0.1)">
       <use xlink:href="#UNAVAILABLE-50"/>
       <use x="57.421875" xlink:href="#UNAVAILABLE-48"/>
       <use x="114.84375" xlink:href="#UNAVAILABLE-50"/>
       <use x="172.265625" xlink:href="#UNAVAILABLE-48"/>
      </g>
     </g>
    </g>
    <g id="text_21">
     <!-- year -->
     <defs>
      <path d="M 2.4375 49.8125 
L 20.703125 3.71875 
L 17.28125 -3.515625 
Q 15.921875 -6.453125 14.84375 -7.515625 
Q 13.578125 -8.796875 11.421875 -8.796875 
L 7.03125 -8.796875 
Q 5.5625 -8.796875 4.78125 -9.578125 
Q 4.109375 -10.359375 4.109375 -11.421875 
Q 4.109375 -12.5 4.78125 -13.28125 
Q 5.5625 -14.15625 7.03125 -14.15625 
L 11.421875 -14.15625 
Q 15.4375 -14.15625 18.453125 -11.71875 
Q 21.578125 -9.28125 23.828125 -4.296875 
L 45.90625 50.484375 
Q 46.390625 51.65625 45.703125 52.640625 
Q 45.015625 53.515625 43.75 53.8125 
Q 42.484375 54.109375 41.40625 53.71875 
Q 40.046875 53.328125 39.65625 52.046875 
L 24.03125 11.625 
L 8.203125 52.34375 
Q 7.71875 53.609375 6.546875 53.90625 
Q 5.375 54.203125 4.203125 53.609375 
Q 3.03125 53.125 2.4375 52.15625 
Q 1.859375 51.078125 2.4375 49.8125 
z
" id="UNAVAILABLE-121"/>
      <path d="M 43.265625 14.75 
Q 40.921875 9.671875 37.890625 7.125 
Q 33.984375 3.71875 28.125 3.71875 
Q 20.703125 3.71875 16.3125 10.453125 
Q 12.5 16.109375 12.109375 24.421875 
L 50.484375 24.421875 
L 50.484375 25.984375 
Q 50.484375 37.40625 44.828125 45.3125 
Q 38.578125 53.90625 28.125 53.90625 
Q 17.671875 53.90625 11.53125 45.3125 
Q 5.953125 37.40625 5.953125 25.984375 
Q 5.953125 14.65625 11.53125 6.84375 
Q 17.671875 -1.765625 28.125 -1.765625 
Q 35.546875 -1.765625 41.015625 2.046875 
Q 46.390625 5.671875 49.21875 12.5 
Q 49.8125 13.96875 49.21875 15.234375 
Q 48.734375 16.3125 47.5625 16.703125 
Q 46.296875 17.1875 45.125 16.796875 
Q 43.84375 16.21875 43.265625 14.75 
z
M 12.3125 29.890625 
Q 12.890625 37.015625 16.5 42.1875 
Q 20.90625 48.53125 28.125 48.53125 
Q 35.359375 48.53125 39.84375 42.09375 
Q 43.453125 36.8125 44.046875 29.890625 
z
" id="UNAVAILABLE-101"/>
      <path d="M 41.609375 12.5 
Q 39.359375 8.5 35.0625 6.25 
Q 30.28125 3.71875 23.53125 3.71875 
Q 17.578125 3.71875 14.75 6.25 
Q 12.015625 8.59375 12.015625 13.375 
Q 12.015625 18.359375 14.9375 20.90625 
Q 17.96875 23.640625 25.296875 24.609375 
Q 32.625 25.59375 36.8125 26.859375 
Q 40.234375 27.9375 41.609375 29.109375 
z
M 28.21875 53.90625 
Q 20.015625 53.90625 15.046875 50.296875 
Q 9.96875 46.484375 8.796875 38.96875 
Q 8.5 37.5 9.375 36.625 
Q 10.15625 35.75 11.328125 35.640625 
Q 12.59375 35.546875 13.484375 36.234375 
Q 14.546875 36.921875 14.75 38.1875 
Q 15.234375 43.0625 18.171875 45.609375 
Q 21.484375 48.53125 28.125 48.53125 
Q 34.96875 48.53125 38.375 46 
Q 41.609375 43.5625 41.609375 38.765625 
Q 41.609375 34.578125 38.671875 33.015625 
Q 35.640625 31.34375 25.203125 29.890625 
Q 13.375 28.421875 8.890625 23.34375 
Q 5.859375 19.828125 5.859375 13.375 
Q 5.859375 6.25 10.25 2.34375 
Q 14.75 -1.765625 23.53125 -1.765625 
Q 29.984375 -1.765625 35.0625 0.484375 
Q 38.765625 2.15625 41.703125 4.984375 
Q 41.703125 1.953125 43.453125 0.6875 
Q 45.609375 -0.6875 51.171875 -0.6875 
Q 52.546875 -0.6875 53.328125 0.203125 
Q 54 0.984375 54 2.046875 
Q 53.90625 3.21875 53.21875 4 
Q 52.4375 4.78125 51.265625 4.78125 
Q 49.515625 4.78125 48.53125 5.765625 
Q 47.65625 6.640625 47.65625 8.296875 
L 47.65625 39.265625 
Q 47.65625 46.96875 42 50.6875 
Q 37.015625 53.90625 28.21875 53.90625 
z
" id="UNAVAILABLE-97"/>
      <path d="M 8.5 50.390625 
L 8.5 1.46875 
Q 8.5 0 9.375 -0.875 
Q 10.25 -1.65625 11.53125 -1.65625 
Q 12.703125 -1.65625 13.578125 -0.875 
Q 14.546875 0 14.546875 1.46875 
L 14.546875 39.546875 
Q 16.3125 43.359375 19.625 45.515625 
Q 23.34375 47.953125 28.125 47.953125 
Q 30.5625 47.953125 30.46875 50.984375 
Q 30.375 53.90625 28.21875 53.90625 
Q 23.53125 53.90625 19.828125 51.5625 
Q 17 49.8125 14.546875 46.390625 
L 14.546875 50.390625 
Q 14.546875 51.765625 13.578125 52.546875 
Q 12.703125 53.125 11.53125 53.125 
Q 10.25 53.125 9.375 52.4375 
Q 8.5 51.65625 8.5 50.390625 
z
" id="UNAVAILABLE-114"/>
     </defs>
     <g transform="translate(362.154687 606.223438)scale(0.1 -0.1)">
      <use xlink:href="#UNAVAILABLE-121"/>
      <use x="50" xlink:href="#UNAVAILABLE-101"/>
      <use x="106.738281" xlink:href="#UNAVAILABLE-97"/>
      <use x="162.988281" xlink:href="#UNAVAILABLE-114"/>
     </g>
    </g>
   </g>
   <g id="matplotlib.axis_8">
    <g id="ytick_11">
     <g id="line2d_48">
      <g>
       <use style="stroke:#000000;stroke-width:0.8;" x="37.16875" xlink:href="#mc363550191" y="560.807913"/>
      </g>
     </g>
     <g id="text_22">
      <!-- 1000 -->
      <g transform="translate(7.2 564.479788)scale(0.1 -0.1)">
       <use xlink:href="#UNAVAILABLE-49"/>
       <use x="57.421875" xlink:href="#UNAVAILABLE-48"/>
       <use x="114.84375" xlink:href="#UNAVAILABLE-48"/>
       <use x="172.265625" xlink:href="#UNAVAILABLE-48"/>
      </g>
     </g>
    </g>
    <g id="ytick_12">
     <g id="line2d_49">
      <g>
       <use style="stroke:#000000;stroke-width:0.8;" x="37.16875" xlink:href="#mc363550191" y="528.947889"/>
      </g>
     </g>
     <g id="text_23">
      <!-- 2000 -->
      <g transform="translate(7.2 532.619764)scale(0.1 -0.1)">
       <use xlink:href="#UNAVAILABLE-50"/>
       <use x="57.421875" xlink:href="#UNAVAILABLE-48"/>
       <use x="114.84375" xlink:href="#UNAVAILABLE-48"/>
       <use x="172.265625" xlink:href="#UNAVAILABLE-48"/>
      </g>
     </g>
    </g>
    <g id="ytick_13">
     <g id="line2d_50">
      <g>
       <use style="stroke:#000000;stroke-width:0.8;" x="37.16875" xlink:href="#mc363550191" y="497.087865"/>
      </g>
     </g>
     <g id="text_24">
      <!-- 3000 -->
      <g transform="translate(7.2 500.75974)scale(0.1 -0.1)">
       <use xlink:href="#UNAVAILABLE-51"/>
       <use x="57.421875" xlink:href="#UNAVAILABLE-48"/>
       <use x="114.84375" xlink:href="#UNAVAILABLE-48"/>
       <use x="172.265625" xlink:href="#UNAVAILABLE-48"/>
      </g>
     </g>
    </g>
    <g id="ytick_14">
     <g id="line2d_51">
      <g>
       <use style="stroke:#000000;stroke-width:0.8;" x="37.16875" xlink:href="#mc363550191" y="465.227841"/>
      </g>
     </g>
     <g id="text_25">
      <!-- 4000 -->
      <g transform="translate(7.2 468.899716)scale(0.1 -0.1)">
       <use xlink:href="#UNAVAILABLE-52"/>
       <use x="57.421875" xlink:href="#UNAVAILABLE-48"/>
       <use x="114.84375" xlink:href="#UNAVAILABLE-48"/>
       <use x="172.265625" xlink:href="#UNAVAILABLE-48"/>
      </g>
     </g>
    </g>
   </g>
   <g id="line2d_52">
    <path clip-path="url(#p711a15e2c8)" d="M 67.605114 502.981969 
L 118.332386 479.851592 
L 169.059659 472.810526 
L 219.786932 467.362462 
L 270.514205 467.203162 
L 321.241477 473.224707 
L 371.96875 480.902972 
L 422.696023 472.141466 
L 473.423295 488.485658 
L 524.150568 505.562631 
L 574.877841 510.723955 
L 625.605114 518.752681 
L 676.332386 563.962055 
" style="fill:none;stroke:#d62728;stroke-linecap:square;stroke-width:1.5;"/>
   </g>
   <g id="patch_21">
    <path d="M 37.16875 568.8 
L 37.16875 462.365217 
" style="fill:none;stroke:#000000;stroke-linecap:square;stroke-linejoin:miter;stroke-width:0.8;"/>
   </g>
   <g id="patch_22">
    <path d="M 706.76875 568.8 
L 706.76875 462.365217 
" style="fill:none;stroke:#000000;stroke-linecap:square;stroke-linejoin:miter;stroke-width:0.8;"/>
   </g>
   <g id="patch_23">
    <path d="M 37.16875 568.8 
L 706.76875 568.8 
" style="fill:none;stroke:#000000;stroke-linecap:square;stroke-linejoin:miter;stroke-width:0.8;"/>
   </g>
   <g id="patch_24">
    <path d="M 37.16875 462.365217 
L 706.76875 462.365217 
" style="fill:none;stroke:#000000;stroke-linecap:square;stroke-linejoin:miter;stroke-width:0.8;"/>
   </g>
   <g id="legend_4">
    <g id="patch_25">
     <path d="M 647.76875 484.13553 
L 699.76875 484.13553 
Q 701.76875 484.13553 701.76875 482.13553 
L 701.76875 469.365217 
Q 701.76875 467.365217 699.76875 467.365217 
L 647.76875 467.365217 
Q 645.76875 467.365217 645.76875 469.365217 
L 645.76875 482.13553 
Q 645.76875 484.13553 647.76875 484.13553 
z
" style="fill:#ffffff;opacity:0.8;stroke:#cccccc;stroke-linejoin:miter;"/>
    </g>
    <g id="line2d_53">
     <path d="M 649.76875 475.208967 
L 669.76875 475.208967 
" style="fill:none;stroke:#d62728;stroke-linecap:square;stroke-width:1.5;"/>
    </g>
    <g id="line2d_54"/>
    <g id="text_26">
     <!-- 지우 -->
     <defs>
      <path d="M 60.640625 73.734375 
L 16.3125 73.734375 
Q 13.578125 73.734375 13.578125 71.296875 
Q 13.484375 68.75 16.21875 68.75 
L 35.546875 68.75 
L 35.546875 52.828125 
Q 35.546875 37.59375 29 25 
Q 22.75 12.703125 12.890625 7.625 
Q 11.625 7.03125 11.234375 5.859375 
Q 10.9375 4.78125 11.53125 3.71875 
Q 12.015625 2.734375 12.984375 2.34375 
Q 14.0625 1.859375 15.234375 2.4375 
Q 23.4375 6.546875 29.984375 16.21875 
Q 36.421875 25.6875 38.375 35.9375 
Q 40.046875 25.984375 46.6875 16.21875 
Q 53.328125 6.640625 61.140625 2.4375 
Q 62.59375 1.65625 63.875 2.046875 
Q 65.046875 2.34375 65.625 3.421875 
Q 66.109375 4.390625 65.828125 5.5625 
Q 65.53125 6.734375 64.265625 7.421875 
Q 54 13.09375 47.75 25.203125 
Q 41.3125 37.703125 41.3125 52.9375 
L 41.3125 68.75 
L 60.640625 68.75 
Q 63.09375 68.75 63.09375 71.296875 
Q 63.09375 73.734375 60.640625 73.734375 
z
M 81.453125 -1.953125 
L 81.453125 74.03125 
Q 81.453125 75.296875 80.46875 76.078125 
Q 79.6875 76.65625 78.515625 76.65625 
Q 77.25 76.65625 76.46875 76.078125 
Q 75.59375 75.296875 75.59375 74.03125 
L 75.59375 -1.953125 
Q 75.59375 -3.328125 76.46875 -4.203125 
Q 77.25 -4.984375 78.515625 -4.984375 
Q 79.6875 -4.984375 80.46875 -4.203125 
Q 81.453125 -3.328125 81.453125 -1.953125 
z
" id="UNAVAILABLE-51648"/>
      <path d="M 50 75.390625 
Q 33.109375 75.390625 24.125 70.125 
Q 15.921875 65.4375 15.921875 57.515625 
Q 15.921875 49.703125 24.125 44.921875 
Q 33.203125 39.546875 50 39.546875 
Q 66.703125 39.546875 75.78125 44.921875 
Q 84.078125 49.703125 84.078125 57.515625 
Q 84.078125 65.4375 75.78125 70.125 
Q 66.796875 75.390625 50 75.390625 
z
M 50 70.40625 
Q 63.96875 70.40625 71.484375 66.703125 
Q 78.421875 63.28125 78.421875 57.515625 
Q 78.421875 51.859375 71.484375 48.4375 
Q 64.0625 44.625 50 44.625 
Q 35.84375 44.625 28.421875 48.4375 
Q 21.578125 51.859375 21.578125 57.515625 
Q 21.578125 63.28125 28.421875 66.703125 
Q 35.9375 70.40625 50 70.40625 
z
M 88.09375 29.109375 
L 12.109375 29.109375 
Q 9.375 29.109375 9.28125 26.65625 
Q 9.1875 24.125 11.71875 24.125 
L 47.171875 24.125 
L 47.171875 -2.046875 
Q 47.171875 -3.421875 48.046875 -4.296875 
Q 48.828125 -4.984375 50 -4.984375 
Q 51.078125 -4.984375 51.859375 -4.203125 
Q 52.828125 -3.328125 52.828125 -1.953125 
L 52.828125 24.125 
L 88.28125 24.125 
Q 90.828125 24.125 90.828125 26.65625 
Q 90.71875 29.109375 88.09375 29.109375 
z
" id="UNAVAILABLE-50864"/>
     </defs>
     <g transform="translate(677.76875 478.708967)scale(0.1 -0.1)">
      <use xlink:href="#UNAVAILABLE-51648"/>
      <use x="100" xlink:href="#UNAVAILABLE-50864"/>
     </g>
    </g>
   </g>
  </g>
  <g id="text_27">
   <!-- Number of birth per year -->
   <defs>
    <path d="M 9.375 69.53125 
L 9.375 1.65625 
Q 9.375 0.09375 10.25 -0.875 
Q 11.140625 -1.765625 12.40625 -1.859375 
Q 13.671875 -1.859375 14.546875 -0.984375 
Q 15.53125 0 15.53125 1.65625 
L 15.53125 62.3125 
L 48.640625 7.71875 
L 54.109375 -0.296875 
Q 55.28125 -2.34375 57.90625 -1.5625 
Q 60.546875 -0.875 60.546875 2.4375 
L 60.546875 70.796875 
Q 60.546875 72.078125 59.578125 72.75 
Q 58.6875 73.4375 57.421875 73.4375 
Q 56.15625 73.4375 55.28125 72.859375 
Q 54.390625 72.078125 54.390625 70.796875 
L 54.390625 9.46875 
L 20.125 66.5 
L 16.796875 71.390625 
Q 15.234375 73.828125 12.3125 73.4375 
Q 9.375 72.953125 9.375 69.53125 
z
" id="UNAVAILABLE-78"/>
    <path d="M 48.4375 2.15625 
L 48.4375 50.984375 
Q 48.4375 52.640625 47.46875 53.515625 
Q 46.578125 54.390625 45.3125 54.390625 
Q 44.046875 54.390625 43.171875 53.515625 
Q 42.28125 52.640625 42.28125 50.984375 
L 42.28125 13.96875 
Q 38.671875 9.078125 34.375 6.546875 
Q 29.890625 3.71875 24.90625 3.71875 
Q 20.015625 3.71875 17.1875 6.84375 
Q 14.546875 9.671875 14.546875 13.671875 
L 14.546875 50.984375 
Q 14.546875 52.640625 13.578125 53.515625 
Q 12.703125 54.390625 11.53125 54.390625 
Q 10.25 54.390625 9.375 53.515625 
Q 8.5 52.640625 8.5 50.984375 
L 8.5 13.671875 
Q 8.5 7.515625 12.59375 3.125 
Q 17.1875 -1.765625 24.90625 -1.765625 
Q 30.46875 -1.765625 35.15625 0.78125 
Q 39.15625 2.828125 42.28125 6.453125 
L 42.28125 2.15625 
Q 42.28125 0.78125 43.171875 -0.09375 
Q 44.046875 -0.875 45.3125 -0.875 
Q 46.578125 -0.875 47.46875 -0.09375 
Q 48.4375 0.78125 48.4375 2.15625 
z
" id="UNAVAILABLE-117"/>
    <path d="M 8.5 49.8125 
L 8.5 1.265625 
Q 8.5 -0.09375 9.375 -0.984375 
Q 10.25 -1.765625 11.53125 -1.765625 
Q 12.703125 -1.765625 13.578125 -0.984375 
Q 14.546875 -0.09375 14.546875 1.265625 
L 14.546875 39.15625 
Q 17.78125 44.234375 21.390625 46.390625 
Q 25 48.53125 30.171875 48.53125 
Q 34.859375 48.53125 37.59375 45.796875 
Q 40.046875 43.265625 40.046875 39.0625 
L 40.046875 1.265625 
Q 40.046875 -0.09375 40.921875 -0.984375 
Q 41.796875 -1.765625 43.0625 -1.765625 
Q 44.234375 -1.765625 45.125 -0.984375 
Q 46.09375 -0.09375 46.09375 1.265625 
L 46.09375 38.28125 
Q 48.921875 43.75 52.4375 46.09375 
Q 55.953125 48.53125 61.53125 48.53125 
Q 66.40625 48.53125 69.046875 45.796875 
Q 71.484375 43.265625 71.484375 39.0625 
L 71.484375 1.265625 
Q 71.484375 -0.09375 72.359375 -0.984375 
Q 73.25 -1.765625 74.515625 -1.765625 
Q 75.6875 -1.765625 76.5625 -0.984375 
Q 77.546875 -0.09375 77.546875 1.265625 
L 77.546875 40.046875 
Q 77.546875 45.3125 73.53125 49.3125 
Q 68.953125 53.90625 61.328125 53.90625 
Q 55.765625 53.90625 51.265625 51.375 
Q 47.171875 49.125 44.625 45.125 
Q 42.875 48.828125 40.046875 50.984375 
Q 36.03125 53.90625 29.984375 53.90625 
Q 25.203125 53.90625 20.609375 51.375 
Q 16.890625 49.3125 14.546875 46.1875 
L 14.546875 49.8125 
Q 14.546875 51.46875 13.578125 52.34375 
Q 12.703125 53.21875 11.53125 53.21875 
Q 10.25 53.21875 9.375 52.34375 
Q 8.5 51.46875 8.5 49.8125 
z
" id="UNAVAILABLE-109"/>
    <path d="M 8.5 70.21875 
L 8.5 2.4375 
Q 8.5 0.875 9.46875 0 
Q 10.25 -0.6875 11.53125 -0.6875 
Q 12.703125 -0.59375 13.578125 0.203125 
Q 14.546875 1.078125 14.546875 2.4375 
L 14.546875 6.546875 
Q 16.609375 3.125 20.796875 0.875 
Q 25.59375 -1.765625 31.84375 -1.765625 
Q 42.671875 -1.765625 48.921875 6.84375 
Q 54.5 14.546875 54.5 25.984375 
Q 54.5 37.59375 48.921875 45.3125 
Q 42.671875 53.90625 31.84375 53.90625 
Q 25.984375 53.90625 21.6875 51.765625 
Q 17.484375 49.609375 14.546875 45.015625 
L 14.546875 70.40625 
Q 14.546875 71.875 13.578125 72.75 
Q 12.703125 73.4375 11.53125 73.4375 
Q 10.25 73.4375 9.375 72.65625 
Q 8.5 71.78125 8.5 70.21875 
z
M 31.84375 48.53125 
Q 39.75 48.53125 44.34375 41.609375 
Q 48.34375 35.453125 48.34375 26.078125 
Q 48.34375 16.796875 44.34375 10.640625 
Q 39.84375 3.71875 31.84375 3.71875 
Q 23.25 3.71875 18.65625 10.640625 
Q 14.546875 16.703125 14.546875 26.078125 
Q 14.546875 35.546875 18.65625 41.609375 
Q 23.25 48.53125 31.84375 48.53125 
z
" id="UNAVAILABLE-98"/>
    <path id="UNAVAILABLE-32"/>
    <path d="M 30.171875 53.71875 
Q 18.5625 53.71875 12.015625 45.125 
Q 6.25 37.5 6.25 25.875 
Q 6.25 14.359375 12.015625 6.734375 
Q 18.5625 -1.953125 30.171875 -1.953125 
Q 41.703125 -1.953125 48.25 6.734375 
Q 54.109375 14.359375 54.109375 25.875 
Q 54.109375 37.5 48.25 45.125 
Q 41.703125 53.71875 30.171875 53.71875 
z
M 30.171875 48.34375 
Q 38.765625 48.34375 43.5625 41.40625 
Q 47.953125 35.25 47.953125 25.875 
Q 47.953125 16.703125 43.5625 10.453125 
Q 38.765625 3.515625 30.171875 3.515625 
Q 21.484375 3.515625 16.609375 10.453125 
Q 12.40625 16.609375 12.40625 25.875 
Q 12.40625 35.25 16.609375 41.40625 
Q 21.484375 48.34375 30.171875 48.34375 
z
" id="UNAVAILABLE-111"/>
    <path d="M 13.28125 52.25 
L 8.40625 52.25 
Q 6.9375 52.25 6.0625 51.46875 
Q 5.28125 50.6875 5.28125 49.609375 
Q 5.28125 48.53125 6.0625 47.75 
Q 6.9375 46.875 8.40625 46.875 
L 13.28125 46.875 
L 13.28125 1.5625 
Q 13.28125 0 14.15625 -0.984375 
Q 15.046875 -1.765625 16.3125 -1.765625 
Q 17.484375 -1.765625 18.359375 -0.875 
Q 19.34375 0.09375 19.34375 1.5625 
L 19.34375 46.875 
L 26.46875 46.875 
Q 27.9375 46.875 28.8125 47.75 
Q 29.59375 48.53125 29.59375 49.609375 
Q 29.59375 50.6875 28.8125 51.46875 
Q 27.9375 52.25 26.46875 52.25 
L 19.34375 52.25 
L 19.34375 63.578125 
Q 19.34375 65.4375 20.3125 66.609375 
Q 21.484375 67.96875 23.640625 67.96875 
L 26.46875 67.96875 
Q 27.9375 67.96875 28.8125 68.84375 
Q 29.59375 69.625 29.59375 70.703125 
Q 29.59375 71.875 28.8125 72.65625 
Q 27.9375 73.4375 26.46875 73.4375 
L 22.5625 73.4375 
Q 18.0625 73.4375 15.53125 70.515625 
Q 13.28125 67.875 13.28125 63.96875 
z
" id="UNAVAILABLE-102"/>
    <path d="M 9.46875 51.171875 
L 9.46875 1.46875 
Q 9.46875 0 10.359375 -0.984375 
Q 11.234375 -1.765625 12.5 -1.765625 
Q 13.765625 -1.765625 14.65625 -0.875 
Q 15.625 0 15.625 1.46875 
L 15.625 51.171875 
Q 15.625 52.546875 14.65625 53.328125 
Q 13.765625 54 12.5 54 
Q 11.234375 54 10.359375 53.21875 
Q 9.46875 52.546875 9.46875 51.171875 
z
M 12.5 73.4375 
Q 10.15625 73.4375 8.890625 71.875 
Q 7.71875 70.40625 7.71875 68.265625 
Q 7.71875 66.21875 8.890625 64.84375 
Q 10.15625 63.28125 12.5 63.28125 
Q 14.75 63.28125 16.109375 64.84375 
Q 17.390625 66.3125 17.390625 68.265625 
Q 17.390625 70.40625 16.109375 71.875 
Q 14.75 73.4375 12.5 73.4375 
z
" id="UNAVAILABLE-105"/>
    <path d="M 11.140625 65.828125 
L 11.140625 52.25 
L 5.859375 52.25 
Q 3.609375 52.25 3.609375 49.609375 
Q 3.609375 46.875 5.859375 46.875 
L 11.140625 46.875 
L 11.140625 7.71875 
Q 11.140625 3.90625 13.484375 1.265625 
Q 16.015625 -1.765625 20.515625 -1.765625 
L 25.09375 -1.765625 
Q 26.46875 -1.765625 27.34375 -0.875 
Q 28.125 -0.09375 28.125 0.984375 
Q 28.125 2.15625 27.34375 2.9375 
Q 26.46875 3.71875 25.09375 3.71875 
L 21.578125 3.71875 
Q 19.4375 3.71875 18.265625 5.171875 
Q 17.28125 6.34375 17.28125 8.109375 
L 17.28125 46.875 
L 25.296875 46.875 
Q 27.828125 46.875 27.828125 49.609375 
Q 27.828125 52.25 25.296875 52.25 
L 17.28125 52.25 
L 17.28125 65.828125 
Q 17.28125 67.28125 16.3125 68.0625 
Q 15.4375 68.75 14.15625 68.75 
Q 12.890625 68.75 12.015625 68.0625 
Q 11.140625 67.28125 11.140625 65.828125 
z
" id="UNAVAILABLE-116"/>
    <path d="M 8.5 70.3125 
L 8.5 1.46875 
Q 8.5 -0.09375 9.375 -0.984375 
Q 10.25 -1.859375 11.53125 -1.859375 
Q 12.703125 -1.765625 13.578125 -0.984375 
Q 14.546875 0 14.546875 1.5625 
L 14.546875 38.1875 
Q 18.171875 43.265625 22.171875 45.796875 
Q 26.5625 48.53125 31.640625 48.53125 
Q 36.71875 48.53125 39.65625 45.40625 
Q 42.390625 42.671875 42.390625 38.484375 
L 42.390625 1.46875 
Q 42.390625 0 43.265625 -0.984375 
Q 44.140625 -1.765625 45.40625 -1.765625 
Q 46.6875 -1.765625 47.5625 -0.984375 
Q 48.53125 0 48.53125 1.46875 
L 48.53125 38.484375 
Q 48.53125 44.828125 44.234375 49.125 
Q 39.546875 53.90625 31.640625 53.90625 
Q 25.984375 53.90625 21.390625 51.46875 
Q 17.78125 49.515625 14.546875 45.796875 
L 14.546875 70.3125 
Q 14.546875 71.78125 13.578125 72.65625 
Q 12.703125 73.4375 11.53125 73.4375 
Q 10.25 73.4375 9.375 72.65625 
Q 8.5 71.78125 8.5 70.3125 
z
" id="UNAVAILABLE-104"/>
    <path d="M 8.5 -10.546875 
Q 8.5 -12.203125 9.375 -13.28125 
Q 10.25 -14.15625 11.53125 -14.15625 
Q 12.703125 -14.265625 13.578125 -13.375 
Q 14.546875 -12.40625 14.546875 -10.84375 
L 14.546875 6.546875 
Q 16.609375 3.125 20.703125 0.875 
Q 25.484375 -1.765625 31.546875 -1.765625 
Q 42.671875 -1.765625 48.921875 6.9375 
Q 54.59375 14.65625 54.59375 26.171875 
Q 54.59375 37.703125 48.921875 45.3125 
Q 42.671875 53.90625 31.546875 53.90625 
Q 25.875 53.90625 21.6875 51.765625 
Q 17.484375 49.515625 14.546875 45.015625 
L 14.546875 49.8125 
Q 14.546875 51.265625 13.578125 52.15625 
Q 12.703125 52.9375 11.53125 52.9375 
Q 10.25 52.9375 9.375 52.15625 
Q 8.5 51.265625 8.5 49.8125 
z
M 31.546875 48.53125 
Q 39.75 48.53125 44.34375 41.609375 
Q 48.4375 35.453125 48.4375 26.078125 
Q 48.4375 16.796875 44.34375 10.640625 
Q 39.75 3.71875 31.546875 3.71875 
Q 23.140625 3.71875 18.5625 10.640625 
Q 14.546875 16.796875 14.546875 26.078125 
Q 14.546875 35.453125 18.5625 41.609375 
Q 23.140625 48.53125 31.546875 48.53125 
z
" id="UNAVAILABLE-112"/>
   </defs>
   <g transform="translate(292.475312 16.059375)scale(0.12 -0.12)">
    <use xlink:href="#UNAVAILABLE-78"/>
    <use x="69.921875" xlink:href="#UNAVAILABLE-117"/>
    <use x="126.953125" xlink:href="#UNAVAILABLE-109"/>
    <use x="213.085938" xlink:href="#UNAVAILABLE-98"/>
    <use x="273.632812" xlink:href="#UNAVAILABLE-101"/>
    <use x="330.371094" xlink:href="#UNAVAILABLE-114"/>
    <use x="363.671875" xlink:href="#UNAVAILABLE-32"/>
    <use x="396.972656" xlink:href="#UNAVAILABLE-111"/>
    <use x="457.519531" xlink:href="#UNAVAILABLE-102"/>
    <use x="491.699219" xlink:href="#UNAVAILABLE-32"/>
    <use x="525" xlink:href="#UNAVAILABLE-98"/>
    <use x="585.546875" xlink:href="#UNAVAILABLE-105"/>
    <use x="609.667969" xlink:href="#UNAVAILABLE-114"/>
    <use x="642.96875" xlink:href="#UNAVAILABLE-116"/>
    <use x="674.316406" xlink:href="#UNAVAILABLE-104"/>
    <use x="731.445312" xlink:href="#UNAVAILABLE-32"/>
    <use x="764.746094" xlink:href="#UNAVAILABLE-112"/>
    <use x="825.292969" xlink:href="#UNAVAILABLE-101"/>
    <use x="882.03125" xlink:href="#UNAVAILABLE-114"/>
    <use x="915.332031" xlink:href="#UNAVAILABLE-32"/>
    <use x="948.632812" xlink:href="#UNAVAILABLE-121"/>
    <use x="998.632812" xlink:href="#UNAVAILABLE-101"/>
    <use x="1055.371094" xlink:href="#UNAVAILABLE-97"/>
    <use x="1111.621094" xlink:href="#UNAVAILABLE-114"/>
   </g>
  </g>
 </g>
 <defs>
  <clipPath id="pc459368750">
   <rect height="106.434783" width="669.6" x="37.16875" y="79.2"/>
  </clipPath>
  <clipPath id="pb7480f138f">
   <rect height="106.434783" width="669.6" x="37.16875" y="206.921739"/>
  </clipPath>
  <clipPath id="p17e4cce38f">
   <rect height="106.434783" width="669.6" x="37.16875" y="334.643478"/>
  </clipPath>
  <clipPath id="p711a15e2c8">
   <rect height="106.434783" width="669.6" x="37.16875" y="462.365217"/>
  </clipPath>
 </defs>
</svg>
