<?xml version="1.0" encoding="utf-8" standalone="no"?>
<!DOCTYPE svg PUBLIC "-//W3C//DTD SVG 1.1//EN"
  "http://www.w3.org/Graphics/SVG/1.1/DTD/svg11.dtd">
<!-- Created with matplotlib (https://matplotlib.org/) -->
<svg height="276.18875pt" version="1.1" viewBox="0 0 390.653125 276.18875" width="390.653125pt" xmlns="http://www.w3.org/2000/svg" xmlns:xlink="http://www.w3.org/1999/xlink">
 <defs>
  <style type="text/css">
*{stroke-linecap:butt;stroke-linejoin:round;}
  </style>
 </defs>
 <g id="figure_1">
  <g id="patch_1">
   <path d="M 0 276.18875 
L 390.653125 276.18875 
L 390.653125 0 
L 0 0 
z
" style="fill:none;"/>
  </g>
  <g id="axes_1">
   <g id="patch_2">
    <path d="M 48.653125 240.448125 
L 383.453125 240.448125 
L 383.453125 23.008125 
L 48.653125 23.008125 
z
" style="fill:#ffffff;"/>
   </g>
   <g id="matplotlib.axis_1">
    <g id="xtick_1">
     <g id="line2d_1">
      <defs>
       <path d="M 0 0 
L 0 3.5 
" id="ma23300d890" style="stroke:#000000;stroke-width:0.8;"/>
      </defs>
      <g>
       <use style="stroke:#000000;stroke-width:0.8;" x="63.871307" xlink:href="#ma23300d890" y="240.448125"/>
      </g>
     </g>
     <g id="text_1">
      <!-- 2008 -->
      <defs>
       <path d="M 28.90625 73.4375 
Q 18.953125 73.4375 13.09375 67.28125 
Q 7.90625 61.8125 7.90625 53.8125 
L 7.90625 51.265625 
Q 7.90625 49.609375 8.796875 48.640625 
Q 9.671875 47.75 10.9375 47.75 
Q 12.203125 47.75 13.09375 48.640625 
Q 14.0625 49.515625 14.0625 50.984375 
L 14.0625 53.8125 
Q 14.0625 59.671875 17.78125 63.578125 
Q 21.875 67.96875 28.90625 67.96875 
Q 35.9375 67.96875 40.140625 63.578125 
Q 43.84375 59.671875 43.84375 53.8125 
Q 43.84375 46.6875 39.453125 41.703125 
Q 36.03125 37.984375 26.265625 31.9375 
Q 16.015625 25.78125 11.234375 18.5625 
Q 5.953125 10.640625 6.0625 -0.09375 
L 48.734375 -0.09375 
Q 50 -0.09375 50.78125 0.78125 
Q 51.5625 1.5625 51.5625 2.640625 
Q 51.5625 3.8125 50.78125 4.59375 
Q 50 5.375 48.734375 5.375 
L 12.5 5.375 
Q 13.1875 12.40625 16.5 16.890625 
Q 20.3125 22.171875 30.671875 28.609375 
L 32.625 29.984375 
Q 42.1875 36.03125 45.21875 39.546875 
Q 50 45.015625 50 53.8125 
Q 50 61.8125 44.734375 67.28125 
Q 38.765625 73.4375 28.90625 73.4375 
z
" id="UNAVAILABLE-50"/>
       <path d="M 28.71875 73.4375 
Q 17.96875 73.4375 11.71875 61.8125 
Q 6.15625 51.265625 6.15625 35.84375 
Q 6.15625 20.515625 11.71875 9.96875 
Q 17.96875 -1.765625 28.71875 -1.765625 
Q 39.359375 -1.765625 45.609375 9.96875 
Q 51.265625 20.515625 51.265625 35.84375 
Q 51.265625 51.265625 45.609375 61.8125 
Q 39.359375 73.4375 28.71875 73.4375 
z
M 28.71875 67.96875 
Q 36.421875 67.96875 41.015625 58.015625 
Q 45.125 49.03125 45.125 35.75 
Q 45.125 22.65625 41.015625 13.671875 
Q 36.421875 3.71875 28.71875 3.71875 
Q 20.796875 3.71875 16.3125 13.671875 
Q 12.3125 22.65625 12.3125 35.75 
Q 12.3125 49.03125 16.3125 58.015625 
Q 20.796875 67.96875 28.71875 67.96875 
z
" id="UNAVAILABLE-48"/>
       <path d="M 50.296875 54.890625 
Q 50.296875 62.40625 44.828125 67.671875 
Q 38.765625 73.4375 28.8125 73.4375 
Q 18.84375 73.4375 12.796875 67.671875 
Q 7.421875 62.40625 7.421875 54.890625 
Q 7.421875 48.640625 10.75 44.234375 
Q 13.28125 40.828125 16.796875 39.359375 
Q 11.328125 36.421875 8.296875 31.640625 
Q 5.171875 26.5625 5.171875 20.125 
Q 5.171875 11.328125 11.140625 5.078125 
Q 17.78125 -1.765625 28.71875 -1.765625 
Q 39.75 -1.765625 46.390625 5.078125 
Q 52.4375 11.328125 52.4375 20.125 
Q 52.4375 26.5625 49.03125 31.84375 
Q 45.796875 36.8125 40.625 39.265625 
Q 44.234375 40.71875 46.875 44.140625 
Q 50.296875 48.640625 50.296875 54.890625 
z
M 28.8125 36.421875 
Q 37.015625 36.421875 42 31.34375 
Q 46.578125 26.765625 46.578125 20.015625 
Q 46.578125 13.375 42 8.796875 
Q 37.015625 3.71875 28.8125 3.71875 
Q 20.515625 3.71875 15.625 8.796875 
Q 11.140625 13.375 11.140625 20.015625 
Q 11.140625 26.765625 15.625 31.34375 
Q 20.515625 36.421875 28.8125 36.421875 
z
M 28.8125 67.96875 
Q 36.03125 67.96875 40.4375 63.96875 
Q 44.4375 60.25 44.4375 54.890625 
Q 44.4375 49.515625 40.4375 45.90625 
Q 36.03125 41.796875 28.8125 41.796875 
Q 21.578125 41.796875 17.28125 45.90625 
Q 13.375 49.515625 13.375 54.890625 
Q 13.375 60.25 17.28125 63.96875 
Q 21.578125 67.96875 28.8125 67.96875 
z
" id="UNAVAILABLE-56"/>
      </defs>
      <g transform="translate(52.386932 254.791875)scale(0.1 -0.1)">
       <use xlink:href="#UNAVAILABLE-50"/>
       <use x="57.421875" xlink:href="#UNAVAILABLE-48"/>
       <use x="114.84375" xlink:href="#UNAVAILABLE-48"/>
       <use x="172.265625" xlink:href="#UNAVAILABLE-56"/>
      </g>
     </g>
    </g>
    <g id="xtick_2">
     <g id="line2d_2">
      <g>
       <use style="stroke:#000000;stroke-width:0.8;" x="114.59858" xlink:href="#ma23300d890" y="240.448125"/>
      </g>
     </g>
     <g id="text_2">
      <!-- 2010 -->
      <defs>
       <path d="M 16.5 56.0625 
L 27.25 56.0625 
L 27.25 1.859375 
Q 27.25 0.203125 28.125 -0.875 
Q 29 -1.765625 30.28125 -1.859375 
Q 31.453125 -1.859375 32.328125 -0.875 
Q 33.296875 0.09375 33.296875 1.765625 
L 33.296875 71 
Q 33.296875 73.53125 30.765625 73.4375 
Q 28.21875 73.34375 28.125 71 
Q 27.828125 65.234375 24.515625 62.703125 
Q 21.6875 60.546875 16.21875 60.546875 
Q 13.96875 60.546875 14.0625 58.296875 
Q 14.15625 56.0625 16.5 56.0625 
z
" id="UNAVAILABLE-49"/>
      </defs>
      <g transform="translate(103.114205 254.791875)scale(0.1 -0.1)">
       <use xlink:href="#UNAVAILABLE-50"/>
       <use x="57.421875" xlink:href="#UNAVAILABLE-48"/>
       <use x="114.84375" xlink:href="#UNAVAILABLE-49"/>
       <use x="172.265625" xlink:href="#UNAVAILABLE-48"/>
      </g>
     </g>
    </g>
    <g id="xtick_3">
     <g id="line2d_3">
      <g>
       <use style="stroke:#000000;stroke-width:0.8;" x="165.325852" xlink:href="#ma23300d890" y="240.448125"/>
      </g>
     </g>
     <g id="text_3">
      <!-- 2012 -->
      <g transform="translate(153.841477 254.791875)scale(0.1 -0.1)">
       <use xlink:href="#UNAVAILABLE-50"/>
       <use x="57.421875" xlink:href="#UNAVAILABLE-48"/>
       <use x="114.84375" xlink:href="#UNAVAILABLE-49"/>
       <use x="172.265625" xlink:href="#UNAVAILABLE-50"/>
      </g>
     </g>
    </g>
    <g id="xtick_4">
     <g id="line2d_4">
      <g>
       <use style="stroke:#000000;stroke-width:0.8;" x="216.053125" xlink:href="#ma23300d890" y="240.448125"/>
      </g>
     </g>
     <g id="text_4">
      <!-- 2014 -->
      <defs>
       <path d="M 36.921875 62.3125 
L 36.921875 22.65625 
L 11.234375 22.65625 
z
M 35.75 70.796875 
L 5.375 24.3125 
Q 3.8125 21.875 4.296875 19.625 
Q 4.890625 17.28125 7.421875 17.28125 
L 36.921875 17.28125 
L 36.921875 1.265625 
Q 36.921875 -0.203125 37.796875 -0.984375 
Q 38.671875 -1.765625 39.9375 -1.765625 
Q 41.109375 -1.765625 42 -0.984375 
Q 42.96875 -0.09375 42.96875 1.265625 
L 42.96875 17.28125 
L 52.25 17.28125 
Q 53.609375 17.28125 54.390625 18.171875 
Q 55.171875 18.953125 55.171875 20.015625 
Q 55.171875 21.09375 54.5 21.875 
Q 53.71875 22.65625 52.546875 22.65625 
L 42.96875 22.65625 
L 42.96875 70.125 
Q 42.96875 73.25 40.234375 73.4375 
Q 37.5 73.53125 35.75 70.796875 
z
" id="UNAVAILABLE-52"/>
      </defs>
      <g transform="translate(204.56875 254.791875)scale(0.1 -0.1)">
       <use xlink:href="#UNAVAILABLE-50"/>
       <use x="57.421875" xlink:href="#UNAVAILABLE-48"/>
       <use x="114.84375" xlink:href="#UNAVAILABLE-49"/>
       <use x="172.265625" xlink:href="#UNAVAILABLE-52"/>
      </g>
     </g>
    </g>
    <g id="xtick_5">
     <g id="line2d_5">
      <g>
       <use style="stroke:#000000;stroke-width:0.8;" x="266.780398" xlink:href="#ma23300d890" y="240.448125"/>
      </g>
     </g>
     <g id="text_5">
      <!-- 2016 -->
      <defs>
       <path d="M 12.203125 22.46875 
Q 12.203125 30.171875 17 35.25 
Q 21.875 40.328125 29.296875 40.328125 
Q 37.40625 40.328125 41.703125 34.96875 
Q 45.40625 30.171875 45.40625 22.5625 
Q 45.40625 14.0625 40.828125 8.890625 
Q 36.328125 3.71875 29 3.71875 
Q 21.578125 3.71875 16.890625 8.890625 
Q 12.203125 14.0625 12.203125 22.46875 
z
M 31.0625 73.4375 
Q 18.171875 73.4375 11.625 60.25 
Q 6.0625 48.734375 6.0625 29.5 
Q 6.0625 11.53125 13.375 3.8125 
Q 18.75 -1.765625 28.125 -1.765625 
Q 39.15625 -1.765625 45.21875 4.6875 
Q 51.46875 11.234375 51.46875 23.25 
Q 51.46875 34.28125 44.34375 40.625 
Q 38.375 45.796875 30.859375 45.796875 
Q 23.734375 45.796875 18.65625 42.96875 
Q 14.546875 40.625 12.203125 36.71875 
Q 12.890625 49.125 16.609375 57.234375 
Q 21.578125 67.96875 30.953125 67.96875 
Q 36.71875 67.96875 40.046875 64.75 
Q 42.875 62.015625 43.65625 57.234375 
Q 44.234375 54.296875 47.171875 54.78125 
Q 50.203125 55.375 49.90625 58.109375 
Q 48.921875 65.921875 43.359375 69.921875 
Q 38.484375 73.4375 31.0625 73.4375 
z
" id="UNAVAILABLE-54"/>
      </defs>
      <g transform="translate(255.296023 254.791875)scale(0.1 -0.1)">
       <use xlink:href="#UNAVAILABLE-50"/>
       <use x="57.421875" xlink:href="#UNAVAILABLE-48"/>
       <use x="114.84375" xlink:href="#UNAVAILABLE-49"/>
       <use x="172.265625" xlink:href="#UNAVAILABLE-54"/>
      </g>
     </g>
    </g>
    <g id="xtick_6">
     <g id="line2d_6">
      <g>
       <use style="stroke:#000000;stroke-width:0.8;" x="317.50767" xlink:href="#ma23300d890" y="240.448125"/>
      </g>
     </g>
     <g id="text_6">
      <!-- 2018 -->
      <g transform="translate(306.023295 254.791875)scale(0.1 -0.1)">
       <use xlink:href="#UNAVAILABLE-50"/>
       <use x="57.421875" xlink:href="#UNAVAILABLE-48"/>
       <use x="114.84375" xlink:href="#UNAVAILABLE-49"/>
       <use x="172.265625" xlink:href="#UNAVAILABLE-56"/>
      </g>
     </g>
    </g>
    <g id="xtick_7">
     <g id="line2d_7">
      <g>
       <use style="stroke:#000000;stroke-width:0.8;" x="368.234943" xlink:href="#ma23300d890" y="240.448125"/>
      </g>
     </g>
     <g id="text_7">
      <!-- 2020 -->
      <g transform="translate(356.750568 254.791875)scale(0.1 -0.1)">
       <use xlink:href="#UNAVAILABLE-50"/>
       <use x="57.421875" xlink:href="#UNAVAILABLE-48"/>
       <use x="114.84375" xlink:href="#UNAVAILABLE-50"/>
       <use x="172.265625" xlink:href="#UNAVAILABLE-48"/>
      </g>
     </g>
    </g>
    <g id="text_8">
     <!-- year -->
     <defs>
      <path d="M 2.4375 49.8125 
L 20.703125 3.71875 
L 17.28125 -3.515625 
Q 15.921875 -6.453125 14.84375 -7.515625 
Q 13.578125 -8.796875 11.421875 -8.796875 
L 7.03125 -8.796875 
Q 5.5625 -8.796875 4.78125 -9.578125 
Q 4.109375 -10.359375 4.109375 -11.421875 
Q 4.109375 -12.5 4.78125 -13.28125 
Q 5.5625 -14.15625 7.03125 -14.15625 
L 11.421875 -14.15625 
Q 15.4375 -14.15625 18.453125 -11.71875 
Q 21.578125 -9.28125 23.828125 -4.296875 
L 45.90625 50.484375 
Q 46.390625 51.65625 45.703125 52.640625 
Q 45.015625 53.515625 43.75 53.8125 
Q 42.484375 54.109375 41.40625 53.71875 
Q 40.046875 53.328125 39.65625 52.046875 
L 24.03125 11.625 
L 8.203125 52.34375 
Q 7.71875 53.609375 6.546875 53.90625 
Q 5.375 54.203125 4.203125 53.609375 
Q 3.03125 53.125 2.4375 52.15625 
Q 1.859375 51.078125 2.4375 49.8125 
z
" id="UNAVAILABLE-121"/>
      <path d="M 43.265625 14.75 
Q 40.921875 9.671875 37.890625 7.125 
Q 33.984375 3.71875 28.125 3.71875 
Q 20.703125 3.71875 16.3125 10.453125 
Q 12.5 16.109375 12.109375 24.421875 
L 50.484375 24.421875 
L 50.484375 25.984375 
Q 50.484375 37.40625 44.828125 45.3125 
Q 38.578125 53.90625 28.125 53.90625 
Q 17.671875 53.90625 11.53125 45.3125 
Q 5.953125 37.40625 5.953125 25.984375 
Q 5.953125 14.65625 11.53125 6.84375 
Q 17.671875 -1.765625 28.125 -1.765625 
Q 35.546875 -1.765625 41.015625 2.046875 
Q 46.390625 5.671875 49.21875 12.5 
Q 49.8125 13.96875 49.21875 15.234375 
Q 48.734375 16.3125 47.5625 16.703125 
Q 46.296875 17.1875 45.125 16.796875 
Q 43.84375 16.21875 43.265625 14.75 
z
M 12.3125 29.890625 
Q 12.890625 37.015625 16.5 42.1875 
Q 20.90625 48.53125 28.125 48.53125 
Q 35.359375 48.53125 39.84375 42.09375 
Q 43.453125 36.8125 44.046875 29.890625 
z
" id="UNAVAILABLE-101"/>
      <path d="M 41.609375 12.5 
Q 39.359375 8.5 35.0625 6.25 
Q 30.28125 3.71875 23.53125 3.71875 
Q 17.578125 3.71875 14.75 6.25 
Q 12.015625 8.59375 12.015625 13.375 
Q 12.015625 18.359375 14.9375 20.90625 
Q 17.96875 23.640625 25.296875 24.609375 
Q 32.625 25.59375 36.8125 26.859375 
Q 40.234375 27.9375 41.609375 29.109375 
z
M 28.21875 53.90625 
Q 20.015625 53.90625 15.046875 50.296875 
Q 9.96875 46.484375 8.796875 38.96875 
Q 8.5 37.5 9.375 36.625 
Q 10.15625 35.75 11.328125 35.640625 
Q 12.59375 35.546875 13.484375 36.234375 
Q 14.546875 36.921875 14.75 38.1875 
Q 15.234375 43.0625 18.171875 45.609375 
Q 21.484375 48.53125 28.125 48.53125 
Q 34.96875 48.53125 38.375 46 
Q 41.609375 43.5625 41.609375 38.765625 
Q 41.609375 34.578125 38.671875 33.015625 
Q 35.640625 31.34375 25.203125 29.890625 
Q 13.375 28.421875 8.890625 23.34375 
Q 5.859375 19.828125 5.859375 13.375 
Q 5.859375 6.25 10.25 2.34375 
Q 14.75 -1.765625 23.53125 -1.765625 
Q 29.984375 -1.765625 35.0625 0.484375 
Q 38.765625 2.15625 41.703125 4.984375 
Q 41.703125 1.953125 43.453125 0.6875 
Q 45.609375 -0.6875 51.171875 -0.6875 
Q 52.546875 -0.6875 53.328125 0.203125 
Q 54 0.984375 54 2.046875 
Q 53.90625 3.21875 53.21875 4 
Q 52.4375 4.78125 51.265625 4.78125 
Q 49.515625 4.78125 48.53125 5.765625 
Q 47.65625 6.640625 47.65625 8.296875 
L 47.65625 39.265625 
Q 47.65625 46.96875 42 50.6875 
Q 37.015625 53.90625 28.21875 53.90625 
z
" id="UNAVAILABLE-97"/>
      <path d="M 8.5 50.390625 
L 8.5 1.46875 
Q 8.5 0 9.375 -0.875 
Q 10.25 -1.65625 11.53125 -1.65625 
Q 12.703125 -1.65625 13.578125 -0.875 
Q 14.546875 0 14.546875 1.46875 
L 14.546875 39.546875 
Q 16.3125 43.359375 19.625 45.515625 
Q 23.34375 47.953125 28.125 47.953125 
Q 30.5625 47.953125 30.46875 50.984375 
Q 30.375 53.90625 28.21875 53.90625 
Q 23.53125 53.90625 19.828125 51.5625 
Q 17 49.8125 14.546875 46.390625 
L 14.546875 50.390625 
Q 14.546875 51.765625 13.578125 52.546875 
Q 12.703125 53.125 11.53125 53.125 
Q 10.25 53.125 9.375 52.4375 
Q 8.5 51.65625 8.5 50.390625 
z
" id="UNAVAILABLE-114"/>
     </defs>
     <g transform="translate(206.239063 267.562188)scale(0.1 -0.1)">
      <use xlink:href="#UNAVAILABLE-121"/>
      <use x="50" xlink:href="#UNAVAILABLE-101"/>
      <use x="106.738281" xlink:href="#UNAVAILABLE-97"/>
      <use x="162.988281" xlink:href="#UNAVAILABLE-114"/>
     </g>
    </g>
   </g>
   <g id="matplotlib.axis_2">
    <g id="ytick_1">
     <g id="line2d_8">
      <defs>
       <path d="M 0 0 
L -3.5 0 
" id="mccd36d80a0" style="stroke:#000000;stroke-width:0.8;"/>
      </defs>
      <g>
       <use style="stroke:#000000;stroke-width:0.8;" x="48.653125" xlink:href="#mccd36d80a0" y="218.084091"/>
      </g>
     </g>
     <g id="text_9">
      <!-- 60000 -->
      <g transform="translate(12.942188 221.755966)scale(0.1 -0.1)">
       <use xlink:href="#UNAVAILABLE-54"/>
       <use x="57.421875" xlink:href="#UNAVAILABLE-48"/>
       <use x="114.84375" xlink:href="#UNAVAILABLE-48"/>
       <use x="172.265625" xlink:href="#UNAVAILABLE-48"/>
       <use x="229.6875" xlink:href="#UNAVAILABLE-48"/>
      </g>
     </g>
    </g>
    <g id="ytick_2">
     <g id="line2d_9">
      <g>
       <use style="stroke:#000000;stroke-width:0.8;" x="48.653125" xlink:href="#mccd36d80a0" y="192.36722"/>
      </g>
     </g>
     <g id="text_10">
      <!-- 80000 -->
      <g transform="translate(12.942188 196.039095)scale(0.1 -0.1)">
       <use xlink:href="#UNAVAILABLE-56"/>
       <use x="57.421875" xlink:href="#UNAVAILABLE-48"/>
       <use x="114.84375" xlink:href="#UNAVAILABLE-48"/>
       <use x="172.265625" xlink:href="#UNAVAILABLE-48"/>
       <use x="229.6875" xlink:href="#UNAVAILABLE-48"/>
      </g>
     </g>
    </g>
    <g id="ytick_3">
     <g id="line2d_10">
      <g>
       <use style="stroke:#000000;stroke-width:0.8;" x="48.653125" xlink:href="#mccd36d80a0" y="166.65035"/>
      </g>
     </g>
     <g id="text_11">
      <!-- 100000 -->
      <g transform="translate(7.2 170.322225)scale(0.1 -0.1)">
       <use xlink:href="#UNAVAILABLE-49"/>
       <use x="57.421875" xlink:href="#UNAVAILABLE-48"/>
       <use x="114.84375" xlink:href="#UNAVAILABLE-48"/>
       <use x="172.265625" xlink:href="#UNAVAILABLE-48"/>
       <use x="229.6875" xlink:href="#UNAVAILABLE-48"/>
       <use x="287.109375" xlink:href="#UNAVAILABLE-48"/>
      </g>
     </g>
    </g>
    <g id="ytick_4">
     <g id="line2d_11">
      <g>
       <use style="stroke:#000000;stroke-width:0.8;" x="48.653125" xlink:href="#mccd36d80a0" y="140.933479"/>
      </g>
     </g>
     <g id="text_12">
      <!-- 120000 -->
      <g transform="translate(7.2 144.605354)scale(0.1 -0.1)">
       <use xlink:href="#UNAVAILABLE-49"/>
       <use x="57.421875" xlink:href="#UNAVAILABLE-50"/>
       <use x="114.84375" xlink:href="#UNAVAILABLE-48"/>
       <use x="172.265625" xlink:href="#UNAVAILABLE-48"/>
       <use x="229.6875" xlink:href="#UNAVAILABLE-48"/>
       <use x="287.109375" xlink:href="#UNAVAILABLE-48"/>
      </g>
     </g>
    </g>
    <g id="ytick_5">
     <g id="line2d_12">
      <g>
       <use style="stroke:#000000;stroke-width:0.8;" x="48.653125" xlink:href="#mccd36d80a0" y="115.216608"/>
      </g>
     </g>
     <g id="text_13">
      <!-- 140000 -->
      <g transform="translate(7.2 118.888483)scale(0.1 -0.1)">
       <use xlink:href="#UNAVAILABLE-49"/>
       <use x="57.421875" xlink:href="#UNAVAILABLE-52"/>
       <use x="114.84375" xlink:href="#UNAVAILABLE-48"/>
       <use x="172.265625" xlink:href="#UNAVAILABLE-48"/>
       <use x="229.6875" xlink:href="#UNAVAILABLE-48"/>
       <use x="287.109375" xlink:href="#UNAVAILABLE-48"/>
      </g>
     </g>
    </g>
    <g id="ytick_6">
     <g id="line2d_13">
      <g>
       <use style="stroke:#000000;stroke-width:0.8;" x="48.653125" xlink:href="#mccd36d80a0" y="89.499737"/>
      </g>
     </g>
     <g id="text_14">
      <!-- 160000 -->
      <g transform="translate(7.2 93.171612)scale(0.1 -0.1)">
       <use xlink:href="#UNAVAILABLE-49"/>
       <use x="57.421875" xlink:href="#UNAVAILABLE-54"/>
       <use x="114.84375" xlink:href="#UNAVAILABLE-48"/>
       <use x="172.265625" xlink:href="#UNAVAILABLE-48"/>
       <use x="229.6875" xlink:href="#UNAVAILABLE-48"/>
       <use x="287.109375" xlink:href="#UNAVAILABLE-48"/>
      </g>
     </g>
    </g>
    <g id="ytick_7">
     <g id="line2d_14">
      <g>
       <use style="stroke:#000000;stroke-width:0.8;" x="48.653125" xlink:href="#mccd36d80a0" y="63.782867"/>
      </g>
     </g>
     <g id="text_15">
      <!-- 180000 -->
      <g transform="translate(7.2 67.454742)scale(0.1 -0.1)">
       <use xlink:href="#UNAVAILABLE-49"/>
       <use x="57.421875" xlink:href="#UNAVAILABLE-56"/>
       <use x="114.84375" xlink:href="#UNAVAILABLE-48"/>
       <use x="172.265625" xlink:href="#UNAVAILABLE-48"/>
       <use x="229.6875" xlink:href="#UNAVAILABLE-48"/>
       <use x="287.109375" xlink:href="#UNAVAILABLE-48"/>
      </g>
     </g>
    </g>
    <g id="ytick_8">
     <g id="line2d_15">
      <g>
       <use style="stroke:#000000;stroke-width:0.8;" x="48.653125" xlink:href="#mccd36d80a0" y="38.065996"/>
      </g>
     </g>
     <g id="text_16">
      <!-- 200000 -->
      <g transform="translate(7.2 41.737871)scale(0.1 -0.1)">
       <use xlink:href="#UNAVAILABLE-50"/>
       <use x="57.421875" xlink:href="#UNAVAILABLE-48"/>
       <use x="114.84375" xlink:href="#UNAVAILABLE-48"/>
       <use x="172.265625" xlink:href="#UNAVAILABLE-48"/>
       <use x="229.6875" xlink:href="#UNAVAILABLE-48"/>
       <use x="287.109375" xlink:href="#UNAVAILABLE-48"/>
      </g>
     </g>
    </g>
   </g>
   <g id="line2d_16">
    <path clip-path="url(#p8c1636487c)" d="M 63.871307 49.27598 
L 89.234943 55.634476 
L 114.59858 43.412533 
L 139.962216 39.140961 
L 165.325852 32.891761 
L 190.689489 51.347474 
L 216.053125 54.667522 
L 241.416761 50.861425 
L 266.780398 67.703403 
L 292.144034 95.984246 
L 317.50767 109.026557 
L 342.871307 123.334138 
L 368.234943 227.751063 
" style="fill:none;stroke:#1f77b4;stroke-linecap:square;stroke-width:1.5;"/>
   </g>
   <g id="line2d_17">
    <path clip-path="url(#p8c1636487c)" d="M 63.871307 77.846137 
L 89.234943 81.338488 
L 114.59858 67.158206 
L 139.962216 63.712145 
L 165.325852 56.840597 
L 190.689489 72.651329 
L 216.053125 70.829289 
L 241.416761 66.061381 
L 266.780398 82.180716 
L 292.144034 104.832136 
L 317.50767 118.078896 
L 342.871307 129.927944 
L 368.234943 230.564489 
" style="fill:none;stroke:#ff7f0e;stroke-linecap:square;stroke-width:1.5;"/>
   </g>
   <g id="patch_3">
    <path d="M 48.653125 240.448125 
L 48.653125 23.008125 
" style="fill:none;stroke:#000000;stroke-linecap:square;stroke-linejoin:miter;stroke-width:0.8;"/>
   </g>
   <g id="patch_4">
    <path d="M 383.453125 240.448125 
L 383.453125 23.008125 
" style="fill:none;stroke:#000000;stroke-linecap:square;stroke-linejoin:miter;stroke-width:0.8;"/>
   </g>
   <g id="patch_5">
    <path d="M 48.653125 240.448125 
L 383.453125 240.448125 
" style="fill:none;stroke:#000000;stroke-linecap:square;stroke-linejoin:miter;stroke-width:0.8;"/>
   </g>
   <g id="patch_6">
    <path d="M 48.653125 23.008125 
L 383.453125 23.008125 
" style="fill:none;stroke:#000000;stroke-linecap:square;stroke-linejoin:miter;stroke-width:0.8;"/>
   </g>
   <g id="text_17">
    <!-- total births(gender/year) -->
    <defs>
     <path d="M 11.140625 65.828125 
L 11.140625 52.25 
L 5.859375 52.25 
Q 3.609375 52.25 3.609375 49.609375 
Q 3.609375 46.875 5.859375 46.875 
L 11.140625 46.875 
L 11.140625 7.71875 
Q 11.140625 3.90625 13.484375 1.265625 
Q 16.015625 -1.765625 20.515625 -1.765625 
L 25.09375 -1.765625 
Q 26.46875 -1.765625 27.34375 -0.875 
Q 28.125 -0.09375 28.125 0.984375 
Q 28.125 2.15625 27.34375 2.9375 
Q 26.46875 3.71875 25.09375 3.71875 
L 21.578125 3.71875 
Q 19.4375 3.71875 18.265625 5.171875 
Q 17.28125 6.34375 17.28125 8.109375 
L 17.28125 46.875 
L 25.296875 46.875 
Q 27.828125 46.875 27.828125 49.609375 
Q 27.828125 52.25 25.296875 52.25 
L 17.28125 52.25 
L 17.28125 65.828125 
Q 17.28125 67.28125 16.3125 68.0625 
Q 15.4375 68.75 14.15625 68.75 
Q 12.890625 68.75 12.015625 68.0625 
Q 11.140625 67.28125 11.140625 65.828125 
z
" id="UNAVAILABLE-116"/>
     <path d="M 30.171875 53.71875 
Q 18.5625 53.71875 12.015625 45.125 
Q 6.25 37.5 6.25 25.875 
Q 6.25 14.359375 12.015625 6.734375 
Q 18.5625 -1.953125 30.171875 -1.953125 
Q 41.703125 -1.953125 48.25 6.734375 
Q 54.109375 14.359375 54.109375 25.875 
Q 54.109375 37.5 48.25 45.125 
Q 41.703125 53.71875 30.171875 53.71875 
z
M 30.171875 48.34375 
Q 38.765625 48.34375 43.5625 41.40625 
Q 47.953125 35.25 47.953125 25.875 
Q 47.953125 16.703125 43.5625 10.453125 
Q 38.765625 3.515625 30.171875 3.515625 
Q 21.484375 3.515625 16.609375 10.453125 
Q 12.40625 16.609375 12.40625 25.875 
Q 12.40625 35.25 16.609375 41.40625 
Q 21.484375 48.34375 30.171875 48.34375 
z
" id="UNAVAILABLE-111"/>
     <path d="M 8.5 70.609375 
L 8.5 1.265625 
Q 8.5 -0.09375 9.375 -0.984375 
Q 10.25 -1.765625 11.53125 -1.765625 
Q 12.703125 -1.765625 13.578125 -0.984375 
Q 14.546875 -0.203125 14.546875 1.171875 
L 14.546875 70.515625 
Q 14.546875 71.96875 13.578125 72.75 
Q 12.703125 73.4375 11.53125 73.4375 
Q 10.25 73.4375 9.375 72.75 
Q 8.5 71.96875 8.5 70.609375 
z
" id="UNAVAILABLE-108"/>
     <path id="UNAVAILABLE-32"/>
     <path d="M 8.5 70.21875 
L 8.5 2.4375 
Q 8.5 0.875 9.46875 0 
Q 10.25 -0.6875 11.53125 -0.6875 
Q 12.703125 -0.59375 13.578125 0.203125 
Q 14.546875 1.078125 14.546875 2.4375 
L 14.546875 6.546875 
Q 16.609375 3.125 20.796875 0.875 
Q 25.59375 -1.765625 31.84375 -1.765625 
Q 42.671875 -1.765625 48.921875 6.84375 
Q 54.5 14.546875 54.5 25.984375 
Q 54.5 37.59375 48.921875 45.3125 
Q 42.671875 53.90625 31.84375 53.90625 
Q 25.984375 53.90625 21.6875 51.765625 
Q 17.484375 49.609375 14.546875 45.015625 
L 14.546875 70.40625 
Q 14.546875 71.875 13.578125 72.75 
Q 12.703125 73.4375 11.53125 73.4375 
Q 10.25 73.4375 9.375 72.65625 
Q 8.5 71.78125 8.5 70.21875 
z
M 31.84375 48.53125 
Q 39.75 48.53125 44.34375 41.609375 
Q 48.34375 35.453125 48.34375 26.078125 
Q 48.34375 16.796875 44.34375 10.640625 
Q 39.84375 3.71875 31.84375 3.71875 
Q 23.25 3.71875 18.65625 10.640625 
Q 14.546875 16.703125 14.546875 26.078125 
Q 14.546875 35.546875 18.65625 41.609375 
Q 23.25 48.53125 31.84375 48.53125 
z
" id="UNAVAILABLE-98"/>
     <path d="M 9.46875 51.171875 
L 9.46875 1.46875 
Q 9.46875 0 10.359375 -0.984375 
Q 11.234375 -1.765625 12.5 -1.765625 
Q 13.765625 -1.765625 14.65625 -0.875 
Q 15.625 0 15.625 1.46875 
L 15.625 51.171875 
Q 15.625 52.546875 14.65625 53.328125 
Q 13.765625 54 12.5 54 
Q 11.234375 54 10.359375 53.21875 
Q 9.46875 52.546875 9.46875 51.171875 
z
M 12.5 73.4375 
Q 10.15625 73.4375 8.890625 71.875 
Q 7.71875 70.40625 7.71875 68.265625 
Q 7.71875 66.21875 8.890625 64.84375 
Q 10.15625 63.28125 12.5 63.28125 
Q 14.75 63.28125 16.109375 64.84375 
Q 17.390625 66.3125 17.390625 68.265625 
Q 17.390625 70.40625 16.109375 71.875 
Q 14.75 73.4375 12.5 73.4375 
z
" id="UNAVAILABLE-105"/>
     <path d="M 8.5 70.3125 
L 8.5 1.46875 
Q 8.5 -0.09375 9.375 -0.984375 
Q 10.25 -1.859375 11.53125 -1.859375 
Q 12.703125 -1.765625 13.578125 -0.984375 
Q 14.546875 0 14.546875 1.5625 
L 14.546875 38.1875 
Q 18.171875 43.265625 22.171875 45.796875 
Q 26.5625 48.53125 31.640625 48.53125 
Q 36.71875 48.53125 39.65625 45.40625 
Q 42.390625 42.671875 42.390625 38.484375 
L 42.390625 1.46875 
Q 42.390625 0 43.265625 -0.984375 
Q 44.140625 -1.765625 45.40625 -1.765625 
Q 46.6875 -1.765625 47.5625 -0.984375 
Q 48.53125 0 48.53125 1.46875 
L 48.53125 38.484375 
Q 48.53125 44.828125 44.234375 49.125 
Q 39.546875 53.90625 31.640625 53.90625 
Q 25.984375 53.90625 21.390625 51.46875 
Q 17.78125 49.515625 14.546875 45.796875 
L 14.546875 70.3125 
Q 14.546875 71.78125 13.578125 72.65625 
Q 12.703125 73.4375 11.53125 73.4375 
Q 10.25 73.4375 9.375 72.65625 
Q 8.5 71.78125 8.5 70.3125 
z
" id="UNAVAILABLE-104"/>
     <path d="M 24.90625 53.90625 
Q 17 53.90625 12.109375 50.390625 
Q 6.9375 46.6875 6.9375 40.140625 
Q 6.9375 34.078125 11.234375 30.46875 
Q 15.140625 27.046875 23.828125 24.8125 
Q 33.40625 22.46875 36.921875 19.625 
Q 39.84375 17.390625 39.84375 13.375 
Q 39.84375 9.078125 36.421875 6.546875 
Q 32.8125 3.71875 26.46875 3.71875 
Q 18.84375 3.71875 15.4375 6.546875 
Q 12.203125 9.1875 12.203125 14.265625 
Q 12.109375 15.625 11.140625 16.3125 
Q 10.25 17 8.984375 16.890625 
Q 7.71875 16.890625 6.9375 16.109375 
Q 5.953125 15.234375 6.0625 13.875 
Q 6.34375 6.25 11.53125 2.25 
Q 16.703125 -1.765625 26.375 -1.765625 
Q 36.03125 -1.765625 41.21875 2.734375 
Q 46 6.734375 46 13.28125 
Q 46 19.828125 42 23.53125 
Q 37.796875 27.546875 27.546875 29.890625 
Q 19.140625 32.03125 16.015625 34.46875 
Q 13.09375 36.8125 13.09375 40.828125 
Q 13.09375 44.234375 16.40625 46.484375 
Q 19.734375 48.53125 24.703125 48.53125 
Q 31.25 48.53125 34.578125 46.09375 
Q 37.703125 43.84375 38.09375 39.546875 
Q 38.1875 38.1875 39.265625 37.40625 
Q 40.234375 36.71875 41.5 36.8125 
Q 42.875 37.015625 43.75 37.796875 
Q 44.734375 38.765625 44.625 40.140625 
Q 44.140625 46.09375 39.84375 49.703125 
Q 34.765625 53.90625 24.90625 53.90625 
z
" id="UNAVAILABLE-115"/>
     <path d="M 24.703125 80.46875 
Q 17.1875 69.734375 13.765625 58.796875 
Q 10.453125 48.140625 10.453125 35.84375 
Q 10.453125 22.65625 13.578125 11.8125 
Q 17.1875 -0.296875 24.703125 -8.984375 
Q 25.78125 -10.25 27.15625 -10.359375 
Q 28.421875 -10.453125 29.390625 -9.578125 
Q 30.375 -8.6875 30.46875 -7.421875 
Q 30.5625 -5.953125 29.59375 -4.78125 
Q 22.46875 4 19.34375 13.96875 
Q 16.40625 23.4375 16.40625 35.84375 
Q 16.40625 47.75 19.625 57.515625 
Q 22.65625 66.703125 29.6875 77.046875 
Q 30.46875 78.328125 30.171875 79.5 
Q 29.984375 80.5625 28.90625 81.25 
Q 27.9375 81.84375 26.765625 81.734375 
Q 25.484375 81.640625 24.703125 80.46875 
z
" id="UNAVAILABLE-40"/>
     <path d="M 45.703125 50.203125 
L 45.703125 45.015625 
Q 42.671875 49.515625 38.578125 51.765625 
Q 34.375 53.90625 28.8125 53.90625 
Q 17.671875 53.90625 11.328125 45.40625 
Q 5.765625 37.796875 5.765625 26.859375 
Q 5.765625 15.53125 11.328125 8.203125 
Q 17.578125 -0.09375 28.8125 -0.09375 
Q 34.765625 -0.09375 39.546875 2.546875 
Q 43.65625 4.890625 45.703125 8.296875 
L 45.703125 2.546875 
Q 45.703125 -2.046875 41.609375 -5.171875 
Q 37.109375 -8.6875 28.8125 -8.6875 
Q 22.171875 -8.6875 18.171875 -6.640625 
Q 14.453125 -4.78125 12.703125 -1.171875 
Q 12.015625 0 10.84375 0.203125 
Q 9.765625 0.484375 8.6875 -0.203125 
Q 7.515625 -0.78125 7.234375 -1.859375 
Q 6.734375 -3.03125 7.515625 -4.296875 
Q 10.15625 -9.1875 15.625 -11.625 
Q 20.90625 -14.0625 28.71875 -14.0625 
Q 39.84375 -14.0625 46.1875 -8.796875 
Q 51.859375 -4.203125 51.859375 2.640625 
L 51.859375 50.203125 
Q 51.859375 51.5625 50.875 52.34375 
Q 50 53.03125 48.734375 53.03125 
Q 47.46875 53.03125 46.578125 52.34375 
Q 45.703125 51.5625 45.703125 50.203125 
z
M 28.71875 48.53125 
Q 36.921875 48.53125 41.609375 41.703125 
Q 45.703125 35.640625 45.703125 26.953125 
Q 45.703125 17.78125 41.609375 11.921875 
Q 37.015625 5.375 28.71875 5.375 
Q 20.3125 5.375 15.828125 11.921875 
Q 11.8125 17.78125 11.8125 26.953125 
Q 11.8125 35.640625 15.828125 41.703125 
Q 20.515625 48.53125 28.71875 48.53125 
z
" id="UNAVAILABLE-103"/>
     <path d="M 8.5 50 
L 8.5 1.46875 
Q 8.5 -0.09375 9.375 -0.984375 
Q 10.25 -1.859375 11.53125 -1.859375 
Q 12.703125 -1.765625 13.578125 -0.984375 
Q 14.546875 0 14.546875 1.5625 
L 14.546875 36.328125 
Q 17.96875 42.578125 22.5625 45.609375 
Q 26.953125 48.53125 32.515625 48.53125 
Q 37.59375 48.53125 40.625 45.40625 
Q 43.359375 42.671875 43.359375 38.484375 
L 43.359375 1.46875 
Q 43.359375 0 44.234375 -0.984375 
Q 45.125 -1.765625 46.390625 -1.765625 
Q 47.5625 -1.765625 48.4375 -0.984375 
Q 49.421875 0 49.421875 1.46875 
L 49.421875 38.484375 
Q 49.421875 44.828125 45.125 49.125 
Q 40.4375 53.90625 32.515625 53.90625 
Q 26.375 53.90625 21.78125 51.265625 
Q 17.390625 48.734375 14.546875 43.953125 
L 14.546875 50 
Q 14.546875 51.46875 13.578125 52.34375 
Q 12.703125 53.125 11.53125 53.125 
Q 10.25 53.125 9.375 52.34375 
Q 8.5 51.46875 8.5 50 
z
" id="UNAVAILABLE-110"/>
     <path d="M 52.25 70.015625 
Q 52.25 71.578125 51.265625 72.46875 
Q 50.390625 73.25 49.21875 73.25 
Q 47.953125 73.25 47.078125 72.5625 
Q 46.1875 71.6875 46.1875 70.21875 
L 46.1875 44.828125 
Q 43.171875 49.421875 38.96875 51.5625 
Q 34.859375 53.71875 29.296875 53.71875 
Q 18.0625 53.71875 11.8125 45.125 
Q 6.25 37.5 6.25 25.875 
Q 6.25 14.359375 11.8125 6.734375 
Q 18.0625 -1.953125 29.296875 -1.953125 
Q 35.15625 -1.953125 39.9375 0.6875 
Q 44.046875 3.03125 46.1875 6.453125 
L 46.1875 2.25 
Q 46.1875 0.875 47.078125 0 
Q 47.953125 -0.78125 49.125 -0.875 
Q 50.390625 -0.875 51.171875 -0.203125 
Q 52.15625 0.6875 52.25 2.25 
z
M 29.296875 48.34375 
Q 37.5 48.34375 42.09375 41.40625 
Q 46.1875 35.25 46.1875 25.875 
Q 46.1875 16.609375 42.09375 10.453125 
Q 37.5 3.515625 29.296875 3.515625 
Q 21 3.515625 16.40625 10.453125 
Q 12.40625 16.609375 12.40625 25.875 
Q 12.40625 35.25 16.40625 41.40625 
Q 21 48.34375 29.296875 48.34375 
z
" id="UNAVAILABLE-100"/>
     <path d="M 32.421875 78.125 
L 5.078125 -5.28125 
Q 4.390625 -7.625 6.640625 -8.109375 
Q 8.890625 -8.6875 9.765625 -6.25 
L 36.71875 76.953125 
Q 37.40625 79.203125 35.15625 79.78125 
Q 33.015625 80.28125 32.421875 78.125 
z
" id="UNAVAILABLE-47"/>
     <path d="M 12.796875 80.46875 
Q 11.921875 81.640625 10.640625 81.734375 
Q 9.46875 81.84375 8.5 81.25 
Q 7.421875 80.5625 7.234375 79.5 
Q 6.9375 78.328125 7.8125 77.046875 
Q 14.75 66.703125 17.78125 57.515625 
Q 21.09375 47.75 21.09375 35.84375 
Q 21.09375 23.4375 18.0625 13.96875 
Q 14.9375 4 7.90625 -4.78125 
Q 6.84375 -5.953125 6.9375 -7.421875 
Q 7.03125 -8.6875 8.015625 -9.578125 
Q 8.984375 -10.453125 10.25 -10.359375 
Q 11.625 -10.25 12.796875 -8.984375 
Q 20.21875 -0.296875 23.828125 11.8125 
Q 27.046875 22.65625 27.046875 35.84375 
Q 27.046875 48.140625 23.640625 58.796875 
Q 20.21875 69.734375 12.796875 80.46875 
z
" id="UNAVAILABLE-41"/>
    </defs>
    <g transform="translate(148.027188 17.008125)scale(0.12 -0.12)">
     <use xlink:href="#UNAVAILABLE-116"/>
     <use x="31.347656" xlink:href="#UNAVAILABLE-111"/>
     <use x="91.894531" xlink:href="#UNAVAILABLE-116"/>
     <use x="123.242188" xlink:href="#UNAVAILABLE-97"/>
     <use x="179.492188" xlink:href="#UNAVAILABLE-108"/>
     <use x="202.636719" xlink:href="#UNAVAILABLE-32"/>
     <use x="235.9375" xlink:href="#UNAVAILABLE-98"/>
     <use x="296.484375" xlink:href="#UNAVAILABLE-105"/>
     <use x="320.605469" xlink:href="#UNAVAILABLE-114"/>
     <use x="353.90625" xlink:href="#UNAVAILABLE-116"/>
     <use x="385.253906" xlink:href="#UNAVAILABLE-104"/>
     <use x="442.382812" xlink:href="#UNAVAILABLE-115"/>
     <use x="494.921875" xlink:href="#UNAVAILABLE-40"/>
     <use x="532.421875" xlink:href="#UNAVAILABLE-103"/>
     <use x="592.96875" xlink:href="#UNAVAILABLE-101"/>
     <use x="649.707031" xlink:href="#UNAVAILABLE-110"/>
     <use x="707.714844" xlink:href="#UNAVAILABLE-100"/>
     <use x="768.261719" xlink:href="#UNAVAILABLE-101"/>
     <use x="825" xlink:href="#UNAVAILABLE-114"/>
     <use x="858.300781" xlink:href="#UNAVAILABLE-47"/>
     <use x="900" xlink:href="#UNAVAILABLE-121"/>
     <use x="950" xlink:href="#UNAVAILABLE-101"/>
     <use x="1006.738281" xlink:href="#UNAVAILABLE-97"/>
     <use x="1062.988281" xlink:href="#UNAVAILABLE-114"/>
     <use x="1096.289062" xlink:href="#UNAVAILABLE-41"/>
    </g>
   </g>
   <g id="legend_1">
    <g id="patch_7">
     <path d="M 336.328125 72.319063 
L 376.453125 72.319063 
Q 378.453125 72.319063 378.453125 70.319063 
L 378.453125 30.008125 
Q 378.453125 28.008125 376.453125 28.008125 
L 336.328125 28.008125 
Q 334.328125 28.008125 334.328125 30.008125 
L 334.328125 70.319063 
Q 334.328125 72.319063 336.328125 72.319063 
z
" style="fill:#ffffff;opacity:0.8;stroke:#cccccc;stroke-linejoin:miter;"/>
    </g>
    <g id="text_18">
     <!-- gender -->
     <g transform="translate(340.096875 39.351875)scale(0.1 -0.1)">
      <use xlink:href="#UNAVAILABLE-103"/>
      <use x="60.546875" xlink:href="#UNAVAILABLE-101"/>
      <use x="117.285156" xlink:href="#UNAVAILABLE-110"/>
      <use x="175.292969" xlink:href="#UNAVAILABLE-100"/>
      <use x="235.839844" xlink:href="#UNAVAILABLE-101"/>
      <use x="292.578125" xlink:href="#UNAVAILABLE-114"/>
     </g>
    </g>
    <g id="line2d_18">
     <path d="M 338.328125 49.622188 
L 358.328125 49.622188 
" style="fill:none;stroke:#1f77b4;stroke-linecap:square;stroke-width:1.5;"/>
    </g>
    <g id="line2d_19"/>
    <g id="text_19">
     <!-- F -->
     <defs>
      <path d="M 18.65625 71.78125 
Q 14.15625 71.78125 11.625 68.84375 
Q 9.375 66.21875 9.375 62.3125 
L 9.375 1.375 
Q 9.375 -0.09375 10.25 -0.984375 
Q 11.140625 -1.765625 12.40625 -1.765625 
Q 13.578125 -1.765625 14.453125 -0.984375 
Q 15.4375 -0.09375 15.4375 1.375 
L 15.4375 34.28125 
L 48.921875 34.28125 
Q 50.390625 34.28125 51.265625 35.15625 
Q 52.046875 35.9375 52.046875 37.015625 
Q 52.046875 38.09375 51.265625 38.875 
Q 50.390625 39.65625 48.921875 39.65625 
L 15.4375 39.65625 
L 15.4375 61.921875 
Q 15.4375 63.765625 16.40625 64.9375 
Q 17.578125 66.3125 19.734375 66.3125 
L 52.640625 66.3125 
Q 54.109375 66.3125 54.984375 67.1875 
Q 55.765625 67.96875 55.765625 69.046875 
Q 55.765625 70.21875 54.984375 71 
Q 54.109375 71.78125 52.640625 71.78125 
z
" id="UNAVAILABLE-70"/>
     </defs>
     <g transform="translate(366.328125 53.122188)scale(0.1 -0.1)">
      <use xlink:href="#UNAVAILABLE-70"/>
     </g>
    </g>
    <g id="line2d_20">
     <path d="M 338.328125 63.3925 
L 358.328125 63.3925 
" style="fill:none;stroke:#ff7f0e;stroke-linecap:square;stroke-width:1.5;"/>
    </g>
    <g id="line2d_21"/>
    <g id="text_20">
     <!-- M -->
     <defs>
      <path d="M 9.375 68.65625 
L 9.375 1.375 
Q 9.375 -0.09375 10.25 -0.984375 
Q 11.140625 -1.765625 12.40625 -1.765625 
Q 13.578125 -1.765625 14.453125 -0.984375 
Q 15.4375 -0.09375 15.4375 1.375 
L 15.4375 63.375 
L 36.234375 1.859375 
Q 37.796875 -1.765625 40.53125 -1.765625 
Q 43.359375 -1.765625 44.921875 1.859375 
L 65.71875 63.375 
L 65.71875 1.375 
Q 65.71875 -0.09375 66.609375 -0.984375 
Q 67.484375 -1.765625 68.75 -1.765625 
Q 70.015625 -1.765625 70.90625 -0.984375 
Q 71.875 -0.09375 71.875 1.375 
L 71.875 68.65625 
Q 71.875 70.796875 70.515625 72.078125 
Q 69.34375 73.25 67.578125 73.34375 
Q 65.828125 73.53125 64.265625 72.65625 
Q 62.703125 71.578125 62.109375 69.734375 
L 60.15625 63.96875 
L 40.625 7.234375 
L 21.296875 63.765625 
L 19.140625 70.015625 
Q 18.5625 71.6875 17 72.65625 
Q 15.53125 73.53125 13.671875 73.4375 
Q 11.8125 73.25 10.640625 72.078125 
Q 9.375 70.796875 9.375 68.65625 
z
" id="UNAVAILABLE-77"/>
     </defs>
     <g transform="translate(366.328125 66.8925)scale(0.1 -0.1)">
      <use xlink:href="#UNAVAILABLE-77"/>
     </g>
    </g>
   </g>
  </g>
 </g>
 <defs>
  <clipPath id="p8c1636487c">
   <rect height="217.44" width="334.8" x="48.653125" y="23.008125"/>
  </clipPath>
 </defs>
</svg>
