<?xml version="1.0" encoding="utf-8" standalone="no"?>
<!DOCTYPE svg PUBLIC "-//W3C//DTD SVG 1.1//EN"
  "http://www.w3.org/Graphics/SVG/1.1/DTD/svg11.dtd">
<!-- Created with matplotlib (https://matplotlib.org/) -->
<svg height="260.380625pt" version="1.1" viewBox="0 0 371.025 260.380625" width="371.025pt" xmlns="http://www.w3.org/2000/svg" xmlns:xlink="http://www.w3.org/1999/xlink">
 <defs>
  <style type="text/css">
*{stroke-linecap:butt;stroke-linejoin:round;}
  </style>
 </defs>
 <g id="figure_1">
  <g id="patch_1">
   <path d="M 0 260.380625 
L 371.025 260.380625 
L 371.025 0 
L 0 0 
z
" style="fill:none;"/>
  </g>
  <g id="axes_1">
   <g id="patch_2">
    <path d="M 29.025 224.64 
L 363.825 224.64 
L 363.825 7.2 
L 29.025 7.2 
z
" style="fill:#ffffff;"/>
   </g>
   <g id="matplotlib.axis_1">
    <g id="xtick_1">
     <g id="line2d_1">
      <defs>
       <path d="M 0 0 
L 0 3.5 
" id="mb809273b82" style="stroke:#000000;stroke-width:0.8;"/>
      </defs>
      <g>
       <use style="stroke:#000000;stroke-width:0.8;" x="44.243182" xlink:href="#mb809273b82" y="224.64"/>
      </g>
     </g>
     <g id="text_1">
      <!-- 2008 -->
      <defs>
       <path d="M 28.90625 73.4375 
Q 18.953125 73.4375 13.09375 67.28125 
Q 7.90625 61.8125 7.90625 53.8125 
L 7.90625 51.265625 
Q 7.90625 49.609375 8.796875 48.640625 
Q 9.671875 47.75 10.9375 47.75 
Q 12.203125 47.75 13.09375 48.640625 
Q 14.0625 49.515625 14.0625 50.984375 
L 14.0625 53.8125 
Q 14.0625 59.671875 17.78125 63.578125 
Q 21.875 67.96875 28.90625 67.96875 
Q 35.9375 67.96875 40.140625 63.578125 
Q 43.84375 59.671875 43.84375 53.8125 
Q 43.84375 46.6875 39.453125 41.703125 
Q 36.03125 37.984375 26.265625 31.9375 
Q 16.015625 25.78125 11.234375 18.5625 
Q 5.953125 10.640625 6.0625 -0.09375 
L 48.734375 -0.09375 
Q 50 -0.09375 50.78125 0.78125 
Q 51.5625 1.5625 51.5625 2.640625 
Q 51.5625 3.8125 50.78125 4.59375 
Q 50 5.375 48.734375 5.375 
L 12.5 5.375 
Q 13.1875 12.40625 16.5 16.890625 
Q 20.3125 22.171875 30.671875 28.609375 
L 32.625 29.984375 
Q 42.1875 36.03125 45.21875 39.546875 
Q 50 45.015625 50 53.8125 
Q 50 61.8125 44.734375 67.28125 
Q 38.765625 73.4375 28.90625 73.4375 
z
" id="UNAVAILABLE-50"/>
       <path d="M 28.71875 73.4375 
Q 17.96875 73.4375 11.71875 61.8125 
Q 6.15625 51.265625 6.15625 35.84375 
Q 6.15625 20.515625 11.71875 9.96875 
Q 17.96875 -1.765625 28.71875 -1.765625 
Q 39.359375 -1.765625 45.609375 9.96875 
Q 51.265625 20.515625 51.265625 35.84375 
Q 51.265625 51.265625 45.609375 61.8125 
Q 39.359375 73.4375 28.71875 73.4375 
z
M 28.71875 67.96875 
Q 36.421875 67.96875 41.015625 58.015625 
Q 45.125 49.03125 45.125 35.75 
Q 45.125 22.65625 41.015625 13.671875 
Q 36.421875 3.71875 28.71875 3.71875 
Q 20.796875 3.71875 16.3125 13.671875 
Q 12.3125 22.65625 12.3125 35.75 
Q 12.3125 49.03125 16.3125 58.015625 
Q 20.796875 67.96875 28.71875 67.96875 
z
" id="UNAVAILABLE-48"/>
       <path d="M 50.296875 54.890625 
Q 50.296875 62.40625 44.828125 67.671875 
Q 38.765625 73.4375 28.8125 73.4375 
Q 18.84375 73.4375 12.796875 67.671875 
Q 7.421875 62.40625 7.421875 54.890625 
Q 7.421875 48.640625 10.75 44.234375 
Q 13.28125 40.828125 16.796875 39.359375 
Q 11.328125 36.421875 8.296875 31.640625 
Q 5.171875 26.5625 5.171875 20.125 
Q 5.171875 11.328125 11.140625 5.078125 
Q 17.78125 -1.765625 28.71875 -1.765625 
Q 39.75 -1.765625 46.390625 5.078125 
Q 52.4375 11.328125 52.4375 20.125 
Q 52.4375 26.5625 49.03125 31.84375 
Q 45.796875 36.8125 40.625 39.265625 
Q 44.234375 40.71875 46.875 44.140625 
Q 50.296875 48.640625 50.296875 54.890625 
z
M 28.8125 36.421875 
Q 37.015625 36.421875 42 31.34375 
Q 46.578125 26.765625 46.578125 20.015625 
Q 46.578125 13.375 42 8.796875 
Q 37.015625 3.71875 28.8125 3.71875 
Q 20.515625 3.71875 15.625 8.796875 
Q 11.140625 13.375 11.140625 20.015625 
Q 11.140625 26.765625 15.625 31.34375 
Q 20.515625 36.421875 28.8125 36.421875 
z
M 28.8125 67.96875 
Q 36.03125 67.96875 40.4375 63.96875 
Q 44.4375 60.25 44.4375 54.890625 
Q 44.4375 49.515625 40.4375 45.90625 
Q 36.03125 41.796875 28.8125 41.796875 
Q 21.578125 41.796875 17.28125 45.90625 
Q 13.375 49.515625 13.375 54.890625 
Q 13.375 60.25 17.28125 63.96875 
Q 21.578125 67.96875 28.8125 67.96875 
z
" id="UNAVAILABLE-56"/>
      </defs>
      <g transform="translate(32.758807 238.98375)scale(0.1 -0.1)">
       <use xlink:href="#UNAVAILABLE-50"/>
       <use x="57.421875" xlink:href="#UNAVAILABLE-48"/>
       <use x="114.84375" xlink:href="#UNAVAILABLE-48"/>
       <use x="172.265625" xlink:href="#UNAVAILABLE-56"/>
      </g>
     </g>
    </g>
    <g id="xtick_2">
     <g id="line2d_2">
      <g>
       <use style="stroke:#000000;stroke-width:0.8;" x="94.970455" xlink:href="#mb809273b82" y="224.64"/>
      </g>
     </g>
     <g id="text_2">
      <!-- 2010 -->
      <defs>
       <path d="M 16.5 56.0625 
L 27.25 56.0625 
L 27.25 1.859375 
Q 27.25 0.203125 28.125 -0.875 
Q 29 -1.765625 30.28125 -1.859375 
Q 31.453125 -1.859375 32.328125 -0.875 
Q 33.296875 0.09375 33.296875 1.765625 
L 33.296875 71 
Q 33.296875 73.53125 30.765625 73.4375 
Q 28.21875 73.34375 28.125 71 
Q 27.828125 65.234375 24.515625 62.703125 
Q 21.6875 60.546875 16.21875 60.546875 
Q 13.96875 60.546875 14.0625 58.296875 
Q 14.15625 56.0625 16.5 56.0625 
z
" id="UNAVAILABLE-49"/>
      </defs>
      <g transform="translate(83.48608 238.98375)scale(0.1 -0.1)">
       <use xlink:href="#UNAVAILABLE-50"/>
       <use x="57.421875" xlink:href="#UNAVAILABLE-48"/>
       <use x="114.84375" xlink:href="#UNAVAILABLE-49"/>
       <use x="172.265625" xlink:href="#UNAVAILABLE-48"/>
      </g>
     </g>
    </g>
    <g id="xtick_3">
     <g id="line2d_3">
      <g>
       <use style="stroke:#000000;stroke-width:0.8;" x="145.697727" xlink:href="#mb809273b82" y="224.64"/>
      </g>
     </g>
     <g id="text_3">
      <!-- 2012 -->
      <g transform="translate(134.213352 238.98375)scale(0.1 -0.1)">
       <use xlink:href="#UNAVAILABLE-50"/>
       <use x="57.421875" xlink:href="#UNAVAILABLE-48"/>
       <use x="114.84375" xlink:href="#UNAVAILABLE-49"/>
       <use x="172.265625" xlink:href="#UNAVAILABLE-50"/>
      </g>
     </g>
    </g>
    <g id="xtick_4">
     <g id="line2d_4">
      <g>
       <use style="stroke:#000000;stroke-width:0.8;" x="196.425" xlink:href="#mb809273b82" y="224.64"/>
      </g>
     </g>
     <g id="text_4">
      <!-- 2014 -->
      <defs>
       <path d="M 36.921875 62.3125 
L 36.921875 22.65625 
L 11.234375 22.65625 
z
M 35.75 70.796875 
L 5.375 24.3125 
Q 3.8125 21.875 4.296875 19.625 
Q 4.890625 17.28125 7.421875 17.28125 
L 36.921875 17.28125 
L 36.921875 1.265625 
Q 36.921875 -0.203125 37.796875 -0.984375 
Q 38.671875 -1.765625 39.9375 -1.765625 
Q 41.109375 -1.765625 42 -0.984375 
Q 42.96875 -0.09375 42.96875 1.265625 
L 42.96875 17.28125 
L 52.25 17.28125 
Q 53.609375 17.28125 54.390625 18.171875 
Q 55.171875 18.953125 55.171875 20.015625 
Q 55.171875 21.09375 54.5 21.875 
Q 53.71875 22.65625 52.546875 22.65625 
L 42.96875 22.65625 
L 42.96875 70.125 
Q 42.96875 73.25 40.234375 73.4375 
Q 37.5 73.53125 35.75 70.796875 
z
" id="UNAVAILABLE-52"/>
      </defs>
      <g transform="translate(184.940625 238.98375)scale(0.1 -0.1)">
       <use xlink:href="#UNAVAILABLE-50"/>
       <use x="57.421875" xlink:href="#UNAVAILABLE-48"/>
       <use x="114.84375" xlink:href="#UNAVAILABLE-49"/>
       <use x="172.265625" xlink:href="#UNAVAILABLE-52"/>
      </g>
     </g>
    </g>
    <g id="xtick_5">
     <g id="line2d_5">
      <g>
       <use style="stroke:#000000;stroke-width:0.8;" x="247.152273" xlink:href="#mb809273b82" y="224.64"/>
      </g>
     </g>
     <g id="text_5">
      <!-- 2016 -->
      <defs>
       <path d="M 12.203125 22.46875 
Q 12.203125 30.171875 17 35.25 
Q 21.875 40.328125 29.296875 40.328125 
Q 37.40625 40.328125 41.703125 34.96875 
Q 45.40625 30.171875 45.40625 22.5625 
Q 45.40625 14.0625 40.828125 8.890625 
Q 36.328125 3.71875 29 3.71875 
Q 21.578125 3.71875 16.890625 8.890625 
Q 12.203125 14.0625 12.203125 22.46875 
z
M 31.0625 73.4375 
Q 18.171875 73.4375 11.625 60.25 
Q 6.0625 48.734375 6.0625 29.5 
Q 6.0625 11.53125 13.375 3.8125 
Q 18.75 -1.765625 28.125 -1.765625 
Q 39.15625 -1.765625 45.21875 4.6875 
Q 51.46875 11.234375 51.46875 23.25 
Q 51.46875 34.28125 44.34375 40.625 
Q 38.375 45.796875 30.859375 45.796875 
Q 23.734375 45.796875 18.65625 42.96875 
Q 14.546875 40.625 12.203125 36.71875 
Q 12.890625 49.125 16.609375 57.234375 
Q 21.578125 67.96875 30.953125 67.96875 
Q 36.71875 67.96875 40.046875 64.75 
Q 42.875 62.015625 43.65625 57.234375 
Q 44.234375 54.296875 47.171875 54.78125 
Q 50.203125 55.375 49.90625 58.109375 
Q 48.921875 65.921875 43.359375 69.921875 
Q 38.484375 73.4375 31.0625 73.4375 
z
" id="UNAVAILABLE-54"/>
      </defs>
      <g transform="translate(235.667898 238.98375)scale(0.1 -0.1)">
       <use xlink:href="#UNAVAILABLE-50"/>
       <use x="57.421875" xlink:href="#UNAVAILABLE-48"/>
       <use x="114.84375" xlink:href="#UNAVAILABLE-49"/>
       <use x="172.265625" xlink:href="#UNAVAILABLE-54"/>
      </g>
     </g>
    </g>
    <g id="xtick_6">
     <g id="line2d_6">
      <g>
       <use style="stroke:#000000;stroke-width:0.8;" x="297.879545" xlink:href="#mb809273b82" y="224.64"/>
      </g>
     </g>
     <g id="text_6">
      <!-- 2018 -->
      <g transform="translate(286.39517 238.98375)scale(0.1 -0.1)">
       <use xlink:href="#UNAVAILABLE-50"/>
       <use x="57.421875" xlink:href="#UNAVAILABLE-48"/>
       <use x="114.84375" xlink:href="#UNAVAILABLE-49"/>
       <use x="172.265625" xlink:href="#UNAVAILABLE-56"/>
      </g>
     </g>
    </g>
    <g id="xtick_7">
     <g id="line2d_7">
      <g>
       <use style="stroke:#000000;stroke-width:0.8;" x="348.606818" xlink:href="#mb809273b82" y="224.64"/>
      </g>
     </g>
     <g id="text_7">
      <!-- 2020 -->
      <g transform="translate(337.122443 238.98375)scale(0.1 -0.1)">
       <use xlink:href="#UNAVAILABLE-50"/>
       <use x="57.421875" xlink:href="#UNAVAILABLE-48"/>
       <use x="114.84375" xlink:href="#UNAVAILABLE-50"/>
       <use x="172.265625" xlink:href="#UNAVAILABLE-48"/>
      </g>
     </g>
    </g>
    <g id="text_8">
     <!-- year -->
     <defs>
      <path d="M 2.4375 49.8125 
L 20.703125 3.71875 
L 17.28125 -3.515625 
Q 15.921875 -6.453125 14.84375 -7.515625 
Q 13.578125 -8.796875 11.421875 -8.796875 
L 7.03125 -8.796875 
Q 5.5625 -8.796875 4.78125 -9.578125 
Q 4.109375 -10.359375 4.109375 -11.421875 
Q 4.109375 -12.5 4.78125 -13.28125 
Q 5.5625 -14.15625 7.03125 -14.15625 
L 11.421875 -14.15625 
Q 15.4375 -14.15625 18.453125 -11.71875 
Q 21.578125 -9.28125 23.828125 -4.296875 
L 45.90625 50.484375 
Q 46.390625 51.65625 45.703125 52.640625 
Q 45.015625 53.515625 43.75 53.8125 
Q 42.484375 54.109375 41.40625 53.71875 
Q 40.046875 53.328125 39.65625 52.046875 
L 24.03125 11.625 
L 8.203125 52.34375 
Q 7.71875 53.609375 6.546875 53.90625 
Q 5.375 54.203125 4.203125 53.609375 
Q 3.03125 53.125 2.4375 52.15625 
Q 1.859375 51.078125 2.4375 49.8125 
z
" id="UNAVAILABLE-121"/>
      <path d="M 43.265625 14.75 
Q 40.921875 9.671875 37.890625 7.125 
Q 33.984375 3.71875 28.125 3.71875 
Q 20.703125 3.71875 16.3125 10.453125 
Q 12.5 16.109375 12.109375 24.421875 
L 50.484375 24.421875 
L 50.484375 25.984375 
Q 50.484375 37.40625 44.828125 45.3125 
Q 38.578125 53.90625 28.125 53.90625 
Q 17.671875 53.90625 11.53125 45.3125 
Q 5.953125 37.40625 5.953125 25.984375 
Q 5.953125 14.65625 11.53125 6.84375 
Q 17.671875 -1.765625 28.125 -1.765625 
Q 35.546875 -1.765625 41.015625 2.046875 
Q 46.390625 5.671875 49.21875 12.5 
Q 49.8125 13.96875 49.21875 15.234375 
Q 48.734375 16.3125 47.5625 16.703125 
Q 46.296875 17.1875 45.125 16.796875 
Q 43.84375 16.21875 43.265625 14.75 
z
M 12.3125 29.890625 
Q 12.890625 37.015625 16.5 42.1875 
Q 20.90625 48.53125 28.125 48.53125 
Q 35.359375 48.53125 39.84375 42.09375 
Q 43.453125 36.8125 44.046875 29.890625 
z
" id="UNAVAILABLE-101"/>
      <path d="M 41.609375 12.5 
Q 39.359375 8.5 35.0625 6.25 
Q 30.28125 3.71875 23.53125 3.71875 
Q 17.578125 3.71875 14.75 6.25 
Q 12.015625 8.59375 12.015625 13.375 
Q 12.015625 18.359375 14.9375 20.90625 
Q 17.96875 23.640625 25.296875 24.609375 
Q 32.625 25.59375 36.8125 26.859375 
Q 40.234375 27.9375 41.609375 29.109375 
z
M 28.21875 53.90625 
Q 20.015625 53.90625 15.046875 50.296875 
Q 9.96875 46.484375 8.796875 38.96875 
Q 8.5 37.5 9.375 36.625 
Q 10.15625 35.75 11.328125 35.640625 
Q 12.59375 35.546875 13.484375 36.234375 
Q 14.546875 36.921875 14.75 38.1875 
Q 15.234375 43.0625 18.171875 45.609375 
Q 21.484375 48.53125 28.125 48.53125 
Q 34.96875 48.53125 38.375 46 
Q 41.609375 43.5625 41.609375 38.765625 
Q 41.609375 34.578125 38.671875 33.015625 
Q 35.640625 31.34375 25.203125 29.890625 
Q 13.375 28.421875 8.890625 23.34375 
Q 5.859375 19.828125 5.859375 13.375 
Q 5.859375 6.25 10.25 2.34375 
Q 14.75 -1.765625 23.53125 -1.765625 
Q 29.984375 -1.765625 35.0625 0.484375 
Q 38.765625 2.15625 41.703125 4.984375 
Q 41.703125 1.953125 43.453125 0.6875 
Q 45.609375 -0.6875 51.171875 -0.6875 
Q 52.546875 -0.6875 53.328125 0.203125 
Q 54 0.984375 54 2.046875 
Q 53.90625 3.21875 53.21875 4 
Q 52.4375 4.78125 51.265625 4.78125 
Q 49.515625 4.78125 48.53125 5.765625 
Q 47.65625 6.640625 47.65625 8.296875 
L 47.65625 39.265625 
Q 47.65625 46.96875 42 50.6875 
Q 37.015625 53.90625 28.21875 53.90625 
z
" id="UNAVAILABLE-97"/>
      <path d="M 8.5 50.390625 
L 8.5 1.46875 
Q 8.5 0 9.375 -0.875 
Q 10.25 -1.65625 11.53125 -1.65625 
Q 12.703125 -1.65625 13.578125 -0.875 
Q 14.546875 0 14.546875 1.46875 
L 14.546875 39.546875 
Q 16.3125 43.359375 19.625 45.515625 
Q 23.34375 47.953125 28.125 47.953125 
Q 30.5625 47.953125 30.46875 50.984375 
Q 30.375 53.90625 28.21875 53.90625 
Q 23.53125 53.90625 19.828125 51.5625 
Q 17 49.8125 14.546875 46.390625 
L 14.546875 50.390625 
Q 14.546875 51.765625 13.578125 52.546875 
Q 12.703125 53.125 11.53125 53.125 
Q 10.25 53.125 9.375 52.4375 
Q 8.5 51.65625 8.5 50.390625 
z
" id="UNAVAILABLE-114"/>
     </defs>
     <g transform="translate(186.610938 251.754062)scale(0.1 -0.1)">
      <use xlink:href="#UNAVAILABLE-121"/>
      <use x="50" xlink:href="#UNAVAILABLE-101"/>
      <use x="106.738281" xlink:href="#UNAVAILABLE-97"/>
      <use x="162.988281" xlink:href="#UNAVAILABLE-114"/>
     </g>
    </g>
   </g>
   <g id="matplotlib.axis_2">
    <g id="ytick_1">
     <g id="line2d_8">
      <defs>
       <path d="M 0 0 
L -3.5 0 
" id="m8f367c97fa" style="stroke:#000000;stroke-width:0.8;"/>
      </defs>
      <g>
       <use style="stroke:#000000;stroke-width:0.8;" x="29.025" xlink:href="#m8f367c97fa" y="201.702504"/>
      </g>
     </g>
     <g id="text_9">
      <!-- 0.3 -->
      <defs>
       <path d="M 16.703125 9.28125 
Q 14.15625 9.28125 12.703125 7.625 
Q 11.421875 6.0625 11.421875 3.71875 
Q 11.421875 1.5625 12.703125 0 
Q 14.15625 -1.765625 16.703125 -1.765625 
Q 19.140625 -1.765625 20.609375 0 
Q 21.96875 1.5625 21.96875 3.71875 
Q 21.96875 6.0625 20.609375 7.625 
Q 19.140625 9.28125 16.703125 9.28125 
z
" id="UNAVAILABLE-46"/>
       <path d="M 28.125 73.4375 
Q 18.265625 73.4375 12.5 67.484375 
Q 7.328125 62.109375 7.328125 54.203125 
Q 7.328125 52.734375 8.203125 51.765625 
Q 8.984375 50.984375 10.25 50.984375 
Q 11.421875 50.984375 12.203125 51.765625 
Q 13.1875 52.734375 13.1875 54.203125 
Q 13.1875 59.859375 16.796875 63.765625 
Q 20.90625 67.96875 28.03125 67.96875 
Q 34.96875 67.96875 39.0625 63.765625 
Q 42.875 59.859375 42.875 54.203125 
Q 42.875 48.734375 39.0625 44.921875 
Q 35.0625 40.828125 28.03125 40.828125 
L 25.296875 40.828125 
Q 22.5625 40.828125 22.5625 38.1875 
Q 22.5625 35.453125 25.296875 35.453125 
L 28.71875 35.453125 
Q 36.625 35.453125 41.3125 30.671875 
Q 45.515625 26.265625 45.515625 19.625 
Q 45.515625 13.28125 41.3125 8.796875 
Q 36.625 3.71875 28.71875 3.71875 
Q 20.796875 3.71875 16.109375 8.796875 
Q 12.015625 13.28125 12.015625 19.625 
L 12.015625 21.78125 
Q 12.015625 23.25 11.03125 24.03125 
Q 10.15625 24.703125 8.984375 24.703125 
Q 7.71875 24.703125 6.84375 24.03125 
Q 5.953125 23.25 5.953125 21.78125 
L 5.953125 19.734375 
Q 5.953125 11.03125 11.625 4.984375 
Q 17.875 -1.765625 28.71875 -1.765625 
Q 39.265625 -1.765625 45.609375 4.984375 
Q 51.46875 11.140625 51.46875 19.734375 
Q 51.46875 26.953125 47.265625 32.421875 
Q 44.046875 36.53125 39.75 38.375 
Q 42.875 39.75 45.515625 43.265625 
Q 49.125 47.953125 49.125 54.203125 
Q 49.125 62.015625 43.84375 67.484375 
Q 37.984375 73.4375 28.125 73.4375 
z
" id="UNAVAILABLE-51"/>
      </defs>
      <g transform="translate(7.2 205.374379)scale(0.1 -0.1)">
       <use xlink:href="#UNAVAILABLE-48"/>
       <use x="57.421875" xlink:href="#UNAVAILABLE-46"/>
       <use x="90.820312" xlink:href="#UNAVAILABLE-51"/>
      </g>
     </g>
    </g>
    <g id="ytick_2">
     <g id="line2d_9">
      <g>
       <use style="stroke:#000000;stroke-width:0.8;" x="29.025" xlink:href="#m8f367c97fa" y="158.811252"/>
      </g>
     </g>
     <g id="text_10">
      <!-- 0.4 -->
      <g transform="translate(7.2 162.483127)scale(0.1 -0.1)">
       <use xlink:href="#UNAVAILABLE-48"/>
       <use x="57.421875" xlink:href="#UNAVAILABLE-46"/>
       <use x="90.820312" xlink:href="#UNAVAILABLE-52"/>
      </g>
     </g>
    </g>
    <g id="ytick_3">
     <g id="line2d_10">
      <g>
       <use style="stroke:#000000;stroke-width:0.8;" x="29.025" xlink:href="#m8f367c97fa" y="115.92"/>
      </g>
     </g>
     <g id="text_11">
      <!-- 0.5 -->
      <defs>
       <path d="M 44.828125 71.78125 
L 13.671875 71.78125 
L 8.59375 37.3125 
Q 8.015625 34.28125 10.359375 33.203125 
Q 12.703125 32.234375 14.65625 35.0625 
Q 16.609375 38.09375 19.734375 39.84375 
Q 23.53125 41.890625 28.125 41.890625 
Q 36.140625 41.890625 40.921875 36.03125 
Q 45.21875 30.671875 45.21875 22.75 
Q 45.21875 15.046875 40.625 9.578125 
Q 35.640625 3.71875 27.546875 3.71875 
Q 21 3.71875 16.890625 6.546875 
Q 12.984375 9.28125 12.015625 13.765625 
Q 11.625 15.328125 10.453125 15.921875 
Q 9.375 16.5 8.203125 16.21875 
Q 6.9375 15.921875 6.25 14.84375 
Q 5.5625 13.765625 5.953125 12.3125 
Q 7.328125 5.953125 13.1875 2.046875 
Q 19.046875 -1.765625 27.15625 -1.765625 
Q 39.546875 -1.765625 45.90625 5.859375 
Q 51.375 12.40625 51.375 22.75 
Q 51.375 32.90625 45.796875 39.75 
Q 39.75 47.359375 29.296875 47.359375 
Q 24.90625 47.359375 21.1875 46 
Q 17.671875 44.734375 15.046875 42.09375 
L 18.75 66.3125 
L 44.828125 66.3125 
Q 46.296875 66.3125 47.265625 67.1875 
Q 48.046875 67.96875 48.046875 69.046875 
Q 48.046875 70.21875 47.171875 71 
Q 46.296875 71.78125 44.828125 71.78125 
z
" id="UNAVAILABLE-53"/>
      </defs>
      <g transform="translate(7.2 119.591875)scale(0.1 -0.1)">
       <use xlink:href="#UNAVAILABLE-48"/>
       <use x="57.421875" xlink:href="#UNAVAILABLE-46"/>
       <use x="90.820312" xlink:href="#UNAVAILABLE-53"/>
      </g>
     </g>
    </g>
    <g id="ytick_4">
     <g id="line2d_11">
      <g>
       <use style="stroke:#000000;stroke-width:0.8;" x="29.025" xlink:href="#m8f367c97fa" y="73.028748"/>
      </g>
     </g>
     <g id="text_12">
      <!-- 0.6 -->
      <g transform="translate(7.2 76.700623)scale(0.1 -0.1)">
       <use xlink:href="#UNAVAILABLE-48"/>
       <use x="57.421875" xlink:href="#UNAVAILABLE-46"/>
       <use x="90.820312" xlink:href="#UNAVAILABLE-54"/>
      </g>
     </g>
    </g>
    <g id="ytick_5">
     <g id="line2d_12">
      <g>
       <use style="stroke:#000000;stroke-width:0.8;" x="29.025" xlink:href="#m8f367c97fa" y="30.137496"/>
      </g>
     </g>
     <g id="text_13">
      <!-- 0.7 -->
      <defs>
       <path d="M 9.671875 66.40625 
L 44.34375 66.40625 
Q 33.890625 53.515625 25.59375 32.90625 
Q 18.453125 15.046875 16.796875 2.34375 
Q 16.5 0.59375 17.390625 -0.59375 
Q 18.265625 -1.65625 19.625 -1.765625 
Q 21 -1.859375 22.078125 -0.984375 
Q 23.25 0.09375 23.53125 1.953125 
Q 26.078125 22.46875 36.140625 42.578125 
Q 43.65625 57.8125 51.171875 65.625 
Q 53.03125 67.671875 52.046875 69.734375 
Q 51.078125 71.78125 48.4375 71.78125 
L 9.671875 71.78125 
Q 6.9375 71.78125 6.9375 69.140625 
Q 6.9375 66.40625 9.671875 66.40625 
z
" id="UNAVAILABLE-55"/>
      </defs>
      <g transform="translate(7.2 33.809371)scale(0.1 -0.1)">
       <use xlink:href="#UNAVAILABLE-48"/>
       <use x="57.421875" xlink:href="#UNAVAILABLE-46"/>
       <use x="90.820312" xlink:href="#UNAVAILABLE-55"/>
      </g>
     </g>
    </g>
   </g>
   <g id="line2d_13">
    <path clip-path="url(#p1c695fcc2e)" d="M 44.243182 88.236954 
L 69.606818 75.590169 
L 94.970455 79.432185 
L 120.334091 115.599786 
L 145.697727 101.404284 
L 171.061364 123.410956 
L 196.425 144.290114 
L 221.788636 177.874031 
L 247.152273 185.816397 
L 272.515909 200.415696 
L 297.879545 189.3467 
L 323.243182 206.651495 
L 348.606818 214.756364 
" style="fill:none;stroke:#0000ff;stroke-dasharray:5.55,2.4;stroke-dashoffset:0;stroke-width:1.5;"/>
   </g>
   <g id="line2d_14">
    <path clip-path="url(#p1c695fcc2e)" d="M 44.243182 143.603046 
L 69.606818 156.249831 
L 94.970455 152.407815 
L 120.334091 116.240214 
L 145.697727 130.435716 
L 171.061364 108.429044 
L 196.425 87.549886 
L 221.788636 53.965969 
L 247.152273 46.023603 
L 272.515909 31.424304 
L 297.879545 42.4933 
L 323.243182 25.188505 
L 348.606818 17.083636 
" style="fill:none;stroke:#000000;stroke-linecap:square;stroke-width:1.5;"/>
   </g>
   <g id="patch_3">
    <path d="M 29.025 224.64 
L 29.025 7.2 
" style="fill:none;stroke:#000000;stroke-linecap:square;stroke-linejoin:miter;stroke-width:0.8;"/>
   </g>
   <g id="patch_4">
    <path d="M 363.825 224.64 
L 363.825 7.2 
" style="fill:none;stroke:#000000;stroke-linecap:square;stroke-linejoin:miter;stroke-width:0.8;"/>
   </g>
   <g id="patch_5">
    <path d="M 29.025 224.64 
L 363.825 224.64 
" style="fill:none;stroke:#000000;stroke-linecap:square;stroke-linejoin:miter;stroke-width:0.8;"/>
   </g>
   <g id="patch_6">
    <path d="M 29.025 7.2 
L 363.825 7.2 
" style="fill:none;stroke:#000000;stroke-linecap:square;stroke-linejoin:miter;stroke-width:0.8;"/>
   </g>
   <g id="legend_1">
    <g id="patch_7">
     <path d="M 36.025 56.510937 
L 76.15 56.510937 
Q 78.15 56.510937 78.15 54.510937 
L 78.15 14.2 
Q 78.15 12.2 76.15 12.2 
L 36.025 12.2 
Q 34.025 12.2 34.025 14.2 
L 34.025 54.510937 
Q 34.025 56.510937 36.025 56.510937 
z
" style="fill:#ffffff;opacity:0.8;stroke:#cccccc;stroke-linejoin:miter;"/>
    </g>
    <g id="text_14">
     <!-- gender -->
     <defs>
      <path d="M 45.703125 50.203125 
L 45.703125 45.015625 
Q 42.671875 49.515625 38.578125 51.765625 
Q 34.375 53.90625 28.8125 53.90625 
Q 17.671875 53.90625 11.328125 45.40625 
Q 5.765625 37.796875 5.765625 26.859375 
Q 5.765625 15.53125 11.328125 8.203125 
Q 17.578125 -0.09375 28.8125 -0.09375 
Q 34.765625 -0.09375 39.546875 2.546875 
Q 43.65625 4.890625 45.703125 8.296875 
L 45.703125 2.546875 
Q 45.703125 -2.046875 41.609375 -5.171875 
Q 37.109375 -8.6875 28.8125 -8.6875 
Q 22.171875 -8.6875 18.171875 -6.640625 
Q 14.453125 -4.78125 12.703125 -1.171875 
Q 12.015625 0 10.84375 0.203125 
Q 9.765625 0.484375 8.6875 -0.203125 
Q 7.515625 -0.78125 7.234375 -1.859375 
Q 6.734375 -3.03125 7.515625 -4.296875 
Q 10.15625 -9.1875 15.625 -11.625 
Q 20.90625 -14.0625 28.71875 -14.0625 
Q 39.84375 -14.0625 46.1875 -8.796875 
Q 51.859375 -4.203125 51.859375 2.640625 
L 51.859375 50.203125 
Q 51.859375 51.5625 50.875 52.34375 
Q 50 53.03125 48.734375 53.03125 
Q 47.46875 53.03125 46.578125 52.34375 
Q 45.703125 51.5625 45.703125 50.203125 
z
M 28.71875 48.53125 
Q 36.921875 48.53125 41.609375 41.703125 
Q 45.703125 35.640625 45.703125 26.953125 
Q 45.703125 17.78125 41.609375 11.921875 
Q 37.015625 5.375 28.71875 5.375 
Q 20.3125 5.375 15.828125 11.921875 
Q 11.8125 17.78125 11.8125 26.953125 
Q 11.8125 35.640625 15.828125 41.703125 
Q 20.515625 48.53125 28.71875 48.53125 
z
" id="UNAVAILABLE-103"/>
      <path d="M 8.5 50 
L 8.5 1.46875 
Q 8.5 -0.09375 9.375 -0.984375 
Q 10.25 -1.859375 11.53125 -1.859375 
Q 12.703125 -1.765625 13.578125 -0.984375 
Q 14.546875 0 14.546875 1.5625 
L 14.546875 36.328125 
Q 17.96875 42.578125 22.5625 45.609375 
Q 26.953125 48.53125 32.515625 48.53125 
Q 37.59375 48.53125 40.625 45.40625 
Q 43.359375 42.671875 43.359375 38.484375 
L 43.359375 1.46875 
Q 43.359375 0 44.234375 -0.984375 
Q 45.125 -1.765625 46.390625 -1.765625 
Q 47.5625 -1.765625 48.4375 -0.984375 
Q 49.421875 0 49.421875 1.46875 
L 49.421875 38.484375 
Q 49.421875 44.828125 45.125 49.125 
Q 40.4375 53.90625 32.515625 53.90625 
Q 26.375 53.90625 21.78125 51.265625 
Q 17.390625 48.734375 14.546875 43.953125 
L 14.546875 50 
Q 14.546875 51.46875 13.578125 52.34375 
Q 12.703125 53.125 11.53125 53.125 
Q 10.25 53.125 9.375 52.34375 
Q 8.5 51.46875 8.5 50 
z
" id="UNAVAILABLE-110"/>
      <path d="M 52.25 70.015625 
Q 52.25 71.578125 51.265625 72.46875 
Q 50.390625 73.25 49.21875 73.25 
Q 47.953125 73.25 47.078125 72.5625 
Q 46.1875 71.6875 46.1875 70.21875 
L 46.1875 44.828125 
Q 43.171875 49.421875 38.96875 51.5625 
Q 34.859375 53.71875 29.296875 53.71875 
Q 18.0625 53.71875 11.8125 45.125 
Q 6.25 37.5 6.25 25.875 
Q 6.25 14.359375 11.8125 6.734375 
Q 18.0625 -1.953125 29.296875 -1.953125 
Q 35.15625 -1.953125 39.9375 0.6875 
Q 44.046875 3.03125 46.1875 6.453125 
L 46.1875 2.25 
Q 46.1875 0.875 47.078125 0 
Q 47.953125 -0.78125 49.125 -0.875 
Q 50.390625 -0.875 51.171875 -0.203125 
Q 52.15625 0.6875 52.25 2.25 
z
M 29.296875 48.34375 
Q 37.5 48.34375 42.09375 41.40625 
Q 46.1875 35.25 46.1875 25.875 
Q 46.1875 16.609375 42.09375 10.453125 
Q 37.5 3.515625 29.296875 3.515625 
Q 21 3.515625 16.40625 10.453125 
Q 12.40625 16.609375 12.40625 25.875 
Q 12.40625 35.25 16.40625 41.40625 
Q 21 48.34375 29.296875 48.34375 
z
" id="UNAVAILABLE-100"/>
     </defs>
     <g transform="translate(39.79375 23.54375)scale(0.1 -0.1)">
      <use xlink:href="#UNAVAILABLE-103"/>
      <use x="60.546875" xlink:href="#UNAVAILABLE-101"/>
      <use x="117.285156" xlink:href="#UNAVAILABLE-110"/>
      <use x="175.292969" xlink:href="#UNAVAILABLE-100"/>
      <use x="235.839844" xlink:href="#UNAVAILABLE-101"/>
      <use x="292.578125" xlink:href="#UNAVAILABLE-114"/>
     </g>
    </g>
    <g id="line2d_15">
     <path d="M 38.025 33.814062 
L 58.025 33.814062 
" style="fill:none;stroke:#0000ff;stroke-dasharray:5.55,2.4;stroke-dashoffset:0;stroke-width:1.5;"/>
    </g>
    <g id="line2d_16"/>
    <g id="text_15">
     <!-- F -->
     <defs>
      <path d="M 18.65625 71.78125 
Q 14.15625 71.78125 11.625 68.84375 
Q 9.375 66.21875 9.375 62.3125 
L 9.375 1.375 
Q 9.375 -0.09375 10.25 -0.984375 
Q 11.140625 -1.765625 12.40625 -1.765625 
Q 13.578125 -1.765625 14.453125 -0.984375 
Q 15.4375 -0.09375 15.4375 1.375 
L 15.4375 34.28125 
L 48.921875 34.28125 
Q 50.390625 34.28125 51.265625 35.15625 
Q 52.046875 35.9375 52.046875 37.015625 
Q 52.046875 38.09375 51.265625 38.875 
Q 50.390625 39.65625 48.921875 39.65625 
L 15.4375 39.65625 
L 15.4375 61.921875 
Q 15.4375 63.765625 16.40625 64.9375 
Q 17.578125 66.3125 19.734375 66.3125 
L 52.640625 66.3125 
Q 54.109375 66.3125 54.984375 67.1875 
Q 55.765625 67.96875 55.765625 69.046875 
Q 55.765625 70.21875 54.984375 71 
Q 54.109375 71.78125 52.640625 71.78125 
z
" id="UNAVAILABLE-70"/>
     </defs>
     <g transform="translate(66.025 37.314062)scale(0.1 -0.1)">
      <use xlink:href="#UNAVAILABLE-70"/>
     </g>
    </g>
    <g id="line2d_17">
     <path d="M 38.025 47.584375 
L 58.025 47.584375 
" style="fill:none;stroke:#000000;stroke-linecap:square;stroke-width:1.5;"/>
    </g>
    <g id="line2d_18"/>
    <g id="text_16">
     <!-- M -->
     <defs>
      <path d="M 9.375 68.65625 
L 9.375 1.375 
Q 9.375 -0.09375 10.25 -0.984375 
Q 11.140625 -1.765625 12.40625 -1.765625 
Q 13.578125 -1.765625 14.453125 -0.984375 
Q 15.4375 -0.09375 15.4375 1.375 
L 15.4375 63.375 
L 36.234375 1.859375 
Q 37.796875 -1.765625 40.53125 -1.765625 
Q 43.359375 -1.765625 44.921875 1.859375 
L 65.71875 63.375 
L 65.71875 1.375 
Q 65.71875 -0.09375 66.609375 -0.984375 
Q 67.484375 -1.765625 68.75 -1.765625 
Q 70.015625 -1.765625 70.90625 -0.984375 
Q 71.875 -0.09375 71.875 1.375 
L 71.875 68.65625 
Q 71.875 70.796875 70.515625 72.078125 
Q 69.34375 73.25 67.578125 73.34375 
Q 65.828125 73.53125 64.265625 72.65625 
Q 62.703125 71.578125 62.109375 69.734375 
L 60.15625 63.96875 
L 40.625 7.234375 
L 21.296875 63.765625 
L 19.140625 70.015625 
Q 18.5625 71.6875 17 72.65625 
Q 15.53125 73.53125 13.671875 73.4375 
Q 11.8125 73.25 10.640625 72.078125 
Q 9.375 70.796875 9.375 68.65625 
z
" id="UNAVAILABLE-77"/>
     </defs>
     <g transform="translate(66.025 51.084375)scale(0.1 -0.1)">
      <use xlink:href="#UNAVAILABLE-77"/>
     </g>
    </g>
   </g>
  </g>
 </g>
 <defs>
  <clipPath id="p1c695fcc2e">
   <rect height="217.44" width="334.8" x="29.025" y="7.2"/>
  </clipPath>
 </defs>
</svg>
